<?xml version="1.0" encoding="utf-8" standalone="no"?>
<!DOCTYPE svg PUBLIC "-//W3C//DTD SVG 1.1//EN"
  "http://www.w3.org/Graphics/SVG/1.1/DTD/svg11.dtd">
<svg xmlns:xlink="http://www.w3.org/1999/xlink" width="830.446719pt" height="488.557812pt" viewBox="0 0 830.446719 488.557812" xmlns="http://www.w3.org/2000/svg" version="1.1">
 <metadata>
  <rdf:RDF xmlns:dc="http://purl.org/dc/elements/1.1/" xmlns:cc="http://creativecommons.org/ns#" xmlns:rdf="http://www.w3.org/1999/02/22-rdf-syntax-ns#">
   <cc:Work>
    <dc:type rdf:resource="http://purl.org/dc/dcmitype/StillImage"/>
    <dc:date>2026-03-12T14:34:21.249977</dc:date>
    <dc:format>image/svg+xml</dc:format>
    <dc:creator>
     <cc:Agent>
      <dc:title>Matplotlib v3.8.4, https://matplotlib.org/</dc:title>
     </cc:Agent>
    </dc:creator>
   </cc:Work>
  </rdf:RDF>
 </metadata>
 <defs>
  <style type="text/css">*{stroke-linejoin: round; stroke-linecap: butt}</style>
 </defs>
 <g id="figure_1">
  <g id="patch_1">
   <path d="M 0 488.557812 
L 830.446719 488.557812 
L 830.446719 0 
L 0 0 
z
" style="fill: #ffffff"/>
  </g>
  <g id="axes_1">
   <g id="patch_2">
    <path d="M 153.646719 326.306105 
L 823.246719 326.306105 
L 823.246719 37.837812 
L 153.646719 37.837812 
z
" style="fill: #ffffff"/>
   </g>
   <g id="matplotlib.axis_1">
    <g id="xtick_1"/>
    <g id="xtick_2"/>
    <g id="xtick_3"/>
    <g id="xtick_4"/>
    <g id="xtick_5"/>
    <g id="xtick_6"/>
    <g id="xtick_7"/>
    <g id="xtick_8"/>
    <g id="xtick_9"/>
    <g id="xtick_10"/>
    <g id="xtick_11"/>
    <g id="xtick_12"/>
    <g id="xtick_13"/>
    <g id="xtick_14"/>
    <g id="xtick_15"/>
   </g>
   <g id="matplotlib.axis_2">
    <g id="ytick_1">
     <g id="line2d_1">
      <path d="M 153.646719 326.306105 
L 823.246719 326.306105 
" clip-path="url(#p17c960c0c3)" style="fill: none; stroke-dasharray: 3.7,1.6; stroke-dashoffset: 0; stroke: #cccccc; stroke-opacity: 0.5"/>
     </g>
     <g id="text_1">
      <!-- 0 -->
      <g style="fill: #262626" transform="translate(137.147969 330.485246) scale(0.11 -0.11)">
       <defs>
        <path id="DejaVuSans-30" d="M 2034 4250 
Q 1547 4250 1301 3770 
Q 1056 3291 1056 2328 
Q 1056 1369 1301 889 
Q 1547 409 2034 409 
Q 2525 409 2770 889 
Q 3016 1369 3016 2328 
Q 3016 3291 2770 3770 
Q 2525 4250 2034 4250 
z
M 2034 4750 
Q 2819 4750 3233 4129 
Q 3647 3509 3647 2328 
Q 3647 1150 3233 529 
Q 2819 -91 2034 -91 
Q 1250 -91 836 529 
Q 422 1150 422 2328 
Q 422 3509 836 4129 
Q 1250 4750 2034 4750 
z
" transform="scale(0.015625)"/>
       </defs>
       <use xlink:href="#DejaVuSans-30"/>
      </g>
     </g>
    </g>
    <g id="ytick_2">
     <g id="line2d_2">
      <path d="M 153.646719 293.992331 
L 823.246719 293.992331 
" clip-path="url(#p17c960c0c3)" style="fill: none; stroke-dasharray: 3.7,1.6; stroke-dashoffset: 0; stroke: #cccccc; stroke-opacity: 0.5"/>
     </g>
     <g id="text_2">
      <!-- 2500 -->
      <g style="fill: #262626" transform="translate(116.151719 298.171472) scale(0.11 -0.11)">
       <defs>
        <path id="DejaVuSans-32" d="M 1228 531 
L 3431 531 
L 3431 0 
L 469 0 
L 469 531 
Q 828 903 1448 1529 
Q 2069 2156 2228 2338 
Q 2531 2678 2651 2914 
Q 2772 3150 2772 3378 
Q 2772 3750 2511 3984 
Q 2250 4219 1831 4219 
Q 1534 4219 1204 4116 
Q 875 4013 500 3803 
L 500 4441 
Q 881 4594 1212 4672 
Q 1544 4750 1819 4750 
Q 2544 4750 2975 4387 
Q 3406 4025 3406 3419 
Q 3406 3131 3298 2873 
Q 3191 2616 2906 2266 
Q 2828 2175 2409 1742 
Q 1991 1309 1228 531 
z
" transform="scale(0.015625)"/>
        <path id="DejaVuSans-35" d="M 691 4666 
L 3169 4666 
L 3169 4134 
L 1269 4134 
L 1269 2991 
Q 1406 3038 1543 3061 
Q 1681 3084 1819 3084 
Q 2600 3084 3056 2656 
Q 3513 2228 3513 1497 
Q 3513 744 3044 326 
Q 2575 -91 1722 -91 
Q 1428 -91 1123 -41 
Q 819 9 494 109 
L 494 744 
Q 775 591 1075 516 
Q 1375 441 1709 441 
Q 2250 441 2565 725 
Q 2881 1009 2881 1497 
Q 2881 1984 2565 2268 
Q 2250 2553 1709 2553 
Q 1456 2553 1204 2497 
Q 953 2441 691 2322 
L 691 4666 
z
" transform="scale(0.015625)"/>
       </defs>
       <use xlink:href="#DejaVuSans-32"/>
       <use xlink:href="#DejaVuSans-35" x="63.623047"/>
       <use xlink:href="#DejaVuSans-30" x="127.246094"/>
       <use xlink:href="#DejaVuSans-30" x="190.869141"/>
      </g>
     </g>
    </g>
    <g id="ytick_3">
     <g id="line2d_3">
      <path d="M 153.646719 261.678557 
L 823.246719 261.678557 
" clip-path="url(#p17c960c0c3)" style="fill: none; stroke-dasharray: 3.7,1.6; stroke-dashoffset: 0; stroke: #cccccc; stroke-opacity: 0.5"/>
     </g>
     <g id="text_3">
      <!-- 5000 -->
      <g style="fill: #262626" transform="translate(116.151719 265.857698) scale(0.11 -0.11)">
       <use xlink:href="#DejaVuSans-35"/>
       <use xlink:href="#DejaVuSans-30" x="63.623047"/>
       <use xlink:href="#DejaVuSans-30" x="127.246094"/>
       <use xlink:href="#DejaVuSans-30" x="190.869141"/>
      </g>
     </g>
    </g>
    <g id="ytick_4">
     <g id="line2d_4">
      <path d="M 153.646719 229.364783 
L 823.246719 229.364783 
" clip-path="url(#p17c960c0c3)" style="fill: none; stroke-dasharray: 3.7,1.6; stroke-dashoffset: 0; stroke: #cccccc; stroke-opacity: 0.5"/>
     </g>
     <g id="text_4">
      <!-- 7500 -->
      <g style="fill: #262626" transform="translate(116.151719 233.543924) scale(0.11 -0.11)">
       <defs>
        <path id="DejaVuSans-37" d="M 525 4666 
L 3525 4666 
L 3525 4397 
L 1831 0 
L 1172 0 
L 2766 4134 
L 525 4134 
L 525 4666 
z
" transform="scale(0.015625)"/>
       </defs>
       <use xlink:href="#DejaVuSans-37"/>
       <use xlink:href="#DejaVuSans-35" x="63.623047"/>
       <use xlink:href="#DejaVuSans-30" x="127.246094"/>
       <use xlink:href="#DejaVuSans-30" x="190.869141"/>
      </g>
     </g>
    </g>
    <g id="ytick_5">
     <g id="line2d_5">
      <path d="M 153.646719 197.051009 
L 823.246719 197.051009 
" clip-path="url(#p17c960c0c3)" style="fill: none; stroke-dasharray: 3.7,1.6; stroke-dashoffset: 0; stroke: #cccccc; stroke-opacity: 0.5"/>
     </g>
     <g id="text_5">
      <!-- 10000 -->
      <g style="fill: #262626" transform="translate(109.152969 201.230149) scale(0.11 -0.11)">
       <defs>
        <path id="DejaVuSans-31" d="M 794 531 
L 1825 531 
L 1825 4091 
L 703 3866 
L 703 4441 
L 1819 4666 
L 2450 4666 
L 2450 531 
L 3481 531 
L 3481 0 
L 794 0 
L 794 531 
z
" transform="scale(0.015625)"/>
       </defs>
       <use xlink:href="#DejaVuSans-31"/>
       <use xlink:href="#DejaVuSans-30" x="63.623047"/>
       <use xlink:href="#DejaVuSans-30" x="127.246094"/>
       <use xlink:href="#DejaVuSans-30" x="190.869141"/>
       <use xlink:href="#DejaVuSans-30" x="254.492188"/>
      </g>
     </g>
    </g>
    <g id="ytick_6">
     <g id="line2d_6">
      <path d="M 153.646719 164.737235 
L 823.246719 164.737235 
" clip-path="url(#p17c960c0c3)" style="fill: none; stroke-dasharray: 3.7,1.6; stroke-dashoffset: 0; stroke: #cccccc; stroke-opacity: 0.5"/>
     </g>
     <g id="text_6">
      <!-- 12500 -->
      <g style="fill: #262626" transform="translate(109.152969 168.916375) scale(0.11 -0.11)">
       <use xlink:href="#DejaVuSans-31"/>
       <use xlink:href="#DejaVuSans-32" x="63.623047"/>
       <use xlink:href="#DejaVuSans-35" x="127.246094"/>
       <use xlink:href="#DejaVuSans-30" x="190.869141"/>
       <use xlink:href="#DejaVuSans-30" x="254.492188"/>
      </g>
     </g>
    </g>
    <g id="ytick_7">
     <g id="line2d_7">
      <path d="M 153.646719 132.423461 
L 823.246719 132.423461 
" clip-path="url(#p17c960c0c3)" style="fill: none; stroke-dasharray: 3.7,1.6; stroke-dashoffset: 0; stroke: #cccccc; stroke-opacity: 0.5"/>
     </g>
     <g id="text_7">
      <!-- 15000 -->
      <g style="fill: #262626" transform="translate(109.152969 136.602601) scale(0.11 -0.11)">
       <use xlink:href="#DejaVuSans-31"/>
       <use xlink:href="#DejaVuSans-35" x="63.623047"/>
       <use xlink:href="#DejaVuSans-30" x="127.246094"/>
       <use xlink:href="#DejaVuSans-30" x="190.869141"/>
       <use xlink:href="#DejaVuSans-30" x="254.492188"/>
      </g>
     </g>
    </g>
    <g id="ytick_8">
     <g id="line2d_8">
      <path d="M 153.646719 100.109687 
L 823.246719 100.109687 
" clip-path="url(#p17c960c0c3)" style="fill: none; stroke-dasharray: 3.7,1.6; stroke-dashoffset: 0; stroke: #cccccc; stroke-opacity: 0.5"/>
     </g>
     <g id="text_8">
      <!-- 17500 -->
      <g style="fill: #262626" transform="translate(109.152969 104.288827) scale(0.11 -0.11)">
       <use xlink:href="#DejaVuSans-31"/>
       <use xlink:href="#DejaVuSans-37" x="63.623047"/>
       <use xlink:href="#DejaVuSans-35" x="127.246094"/>
       <use xlink:href="#DejaVuSans-30" x="190.869141"/>
       <use xlink:href="#DejaVuSans-30" x="254.492188"/>
      </g>
     </g>
    </g>
    <g id="ytick_9">
     <g id="line2d_9">
      <path d="M 153.646719 67.795912 
L 823.246719 67.795912 
" clip-path="url(#p17c960c0c3)" style="fill: none; stroke-dasharray: 3.7,1.6; stroke-dashoffset: 0; stroke: #cccccc; stroke-opacity: 0.5"/>
     </g>
     <g id="text_9">
      <!-- 20000 -->
      <g style="fill: #262626" transform="translate(109.152969 71.975053) scale(0.11 -0.11)">
       <use xlink:href="#DejaVuSans-32"/>
       <use xlink:href="#DejaVuSans-30" x="63.623047"/>
       <use xlink:href="#DejaVuSans-30" x="127.246094"/>
       <use xlink:href="#DejaVuSans-30" x="190.869141"/>
       <use xlink:href="#DejaVuSans-30" x="254.492188"/>
      </g>
     </g>
    </g>
    <g id="text_10">
     <!-- Number of Station-Years -->
     <g style="fill: #262626" transform="translate(102.657344 264.455709) rotate(-90) scale(0.12 -0.12)">
      <defs>
       <path id="DejaVuSans-Bold-4e" d="M 588 4666 
L 1931 4666 
L 3628 1466 
L 3628 4666 
L 4769 4666 
L 4769 0 
L 3425 0 
L 1728 3200 
L 1728 0 
L 588 0 
L 588 4666 
z
" transform="scale(0.015625)"/>
       <path id="DejaVuSans-Bold-75" d="M 500 1363 
L 500 3500 
L 1625 3500 
L 1625 3150 
Q 1625 2866 1622 2436 
Q 1619 2006 1619 1863 
Q 1619 1441 1641 1255 
Q 1663 1069 1716 984 
Q 1784 875 1895 815 
Q 2006 756 2150 756 
Q 2500 756 2700 1025 
Q 2900 1294 2900 1772 
L 2900 3500 
L 4019 3500 
L 4019 0 
L 2900 0 
L 2900 506 
Q 2647 200 2364 54 
Q 2081 -91 1741 -91 
Q 1134 -91 817 281 
Q 500 653 500 1363 
z
" transform="scale(0.015625)"/>
       <path id="DejaVuSans-Bold-6d" d="M 3781 2919 
Q 3994 3244 4286 3414 
Q 4578 3584 4928 3584 
Q 5531 3584 5847 3212 
Q 6163 2841 6163 2131 
L 6163 0 
L 5038 0 
L 5038 1825 
Q 5041 1866 5042 1909 
Q 5044 1953 5044 2034 
Q 5044 2406 4934 2573 
Q 4825 2741 4581 2741 
Q 4263 2741 4089 2478 
Q 3916 2216 3909 1719 
L 3909 0 
L 2784 0 
L 2784 1825 
Q 2784 2406 2684 2573 
Q 2584 2741 2328 2741 
Q 2006 2741 1831 2477 
Q 1656 2213 1656 1722 
L 1656 0 
L 531 0 
L 531 3500 
L 1656 3500 
L 1656 2988 
Q 1863 3284 2130 3434 
Q 2397 3584 2719 3584 
Q 3081 3584 3359 3409 
Q 3638 3234 3781 2919 
z
" transform="scale(0.015625)"/>
       <path id="DejaVuSans-Bold-62" d="M 2400 722 
Q 2759 722 2948 984 
Q 3138 1247 3138 1747 
Q 3138 2247 2948 2509 
Q 2759 2772 2400 2772 
Q 2041 2772 1848 2508 
Q 1656 2244 1656 1747 
Q 1656 1250 1848 986 
Q 2041 722 2400 722 
z
M 1656 2988 
Q 1888 3294 2169 3439 
Q 2450 3584 2816 3584 
Q 3463 3584 3878 3070 
Q 4294 2556 4294 1747 
Q 4294 938 3878 423 
Q 3463 -91 2816 -91 
Q 2450 -91 2169 54 
Q 1888 200 1656 506 
L 1656 0 
L 538 0 
L 538 4863 
L 1656 4863 
L 1656 2988 
z
" transform="scale(0.015625)"/>
       <path id="DejaVuSans-Bold-65" d="M 4031 1759 
L 4031 1441 
L 1416 1441 
Q 1456 1047 1700 850 
Q 1944 653 2381 653 
Q 2734 653 3104 758 
Q 3475 863 3866 1075 
L 3866 213 
Q 3469 63 3072 -14 
Q 2675 -91 2278 -91 
Q 1328 -91 801 392 
Q 275 875 275 1747 
Q 275 2603 792 3093 
Q 1309 3584 2216 3584 
Q 3041 3584 3536 3087 
Q 4031 2591 4031 1759 
z
M 2881 2131 
Q 2881 2450 2695 2645 
Q 2509 2841 2209 2841 
Q 1884 2841 1681 2658 
Q 1478 2475 1428 2131 
L 2881 2131 
z
" transform="scale(0.015625)"/>
       <path id="DejaVuSans-Bold-72" d="M 3138 2547 
Q 2991 2616 2845 2648 
Q 2700 2681 2553 2681 
Q 2122 2681 1889 2404 
Q 1656 2128 1656 1613 
L 1656 0 
L 538 0 
L 538 3500 
L 1656 3500 
L 1656 2925 
Q 1872 3269 2151 3426 
Q 2431 3584 2822 3584 
Q 2878 3584 2943 3579 
Q 3009 3575 3134 3559 
L 3138 2547 
z
" transform="scale(0.015625)"/>
       <path id="DejaVuSans-Bold-20" transform="scale(0.015625)"/>
       <path id="DejaVuSans-Bold-6f" d="M 2203 2784 
Q 1831 2784 1636 2517 
Q 1441 2250 1441 1747 
Q 1441 1244 1636 976 
Q 1831 709 2203 709 
Q 2569 709 2762 976 
Q 2956 1244 2956 1747 
Q 2956 2250 2762 2517 
Q 2569 2784 2203 2784 
z
M 2203 3584 
Q 3106 3584 3614 3096 
Q 4122 2609 4122 1747 
Q 4122 884 3614 396 
Q 3106 -91 2203 -91 
Q 1297 -91 786 396 
Q 275 884 275 1747 
Q 275 2609 786 3096 
Q 1297 3584 2203 3584 
z
" transform="scale(0.015625)"/>
       <path id="DejaVuSans-Bold-66" d="M 2841 4863 
L 2841 4128 
L 2222 4128 
Q 1984 4128 1890 4042 
Q 1797 3956 1797 3744 
L 1797 3500 
L 2753 3500 
L 2753 2700 
L 1797 2700 
L 1797 0 
L 678 0 
L 678 2700 
L 122 2700 
L 122 3500 
L 678 3500 
L 678 3744 
Q 678 4316 997 4589 
Q 1316 4863 1984 4863 
L 2841 4863 
z
" transform="scale(0.015625)"/>
       <path id="DejaVuSans-Bold-53" d="M 3834 4519 
L 3834 3531 
Q 3450 3703 3084 3790 
Q 2719 3878 2394 3878 
Q 1963 3878 1756 3759 
Q 1550 3641 1550 3391 
Q 1550 3203 1689 3098 
Q 1828 2994 2194 2919 
L 2706 2816 
Q 3484 2659 3812 2340 
Q 4141 2022 4141 1434 
Q 4141 663 3683 286 
Q 3225 -91 2284 -91 
Q 1841 -91 1394 -6 
Q 947 78 500 244 
L 500 1259 
Q 947 1022 1364 901 
Q 1781 781 2169 781 
Q 2563 781 2772 912 
Q 2981 1044 2981 1288 
Q 2981 1506 2839 1625 
Q 2697 1744 2272 1838 
L 1806 1941 
Q 1106 2091 782 2419 
Q 459 2747 459 3303 
Q 459 4000 909 4375 
Q 1359 4750 2203 4750 
Q 2588 4750 2994 4692 
Q 3400 4634 3834 4519 
z
" transform="scale(0.015625)"/>
       <path id="DejaVuSans-Bold-74" d="M 1759 4494 
L 1759 3500 
L 2913 3500 
L 2913 2700 
L 1759 2700 
L 1759 1216 
Q 1759 972 1856 886 
Q 1953 800 2241 800 
L 2816 800 
L 2816 0 
L 1856 0 
Q 1194 0 917 276 
Q 641 553 641 1216 
L 641 2700 
L 84 2700 
L 84 3500 
L 641 3500 
L 641 4494 
L 1759 4494 
z
" transform="scale(0.015625)"/>
       <path id="DejaVuSans-Bold-61" d="M 2106 1575 
Q 1756 1575 1579 1456 
Q 1403 1338 1403 1106 
Q 1403 894 1545 773 
Q 1688 653 1941 653 
Q 2256 653 2472 879 
Q 2688 1106 2688 1447 
L 2688 1575 
L 2106 1575 
z
M 3816 1997 
L 3816 0 
L 2688 0 
L 2688 519 
Q 2463 200 2181 54 
Q 1900 -91 1497 -91 
Q 953 -91 614 226 
Q 275 544 275 1050 
Q 275 1666 698 1953 
Q 1122 2241 2028 2241 
L 2688 2241 
L 2688 2328 
Q 2688 2594 2478 2717 
Q 2269 2841 1825 2841 
Q 1466 2841 1156 2769 
Q 847 2697 581 2553 
L 581 3406 
Q 941 3494 1303 3539 
Q 1666 3584 2028 3584 
Q 2975 3584 3395 3211 
Q 3816 2838 3816 1997 
z
" transform="scale(0.015625)"/>
       <path id="DejaVuSans-Bold-69" d="M 538 3500 
L 1656 3500 
L 1656 0 
L 538 0 
L 538 3500 
z
M 538 4863 
L 1656 4863 
L 1656 3950 
L 538 3950 
L 538 4863 
z
" transform="scale(0.015625)"/>
       <path id="DejaVuSans-Bold-6e" d="M 4056 2131 
L 4056 0 
L 2931 0 
L 2931 347 
L 2931 1631 
Q 2931 2084 2911 2256 
Q 2891 2428 2841 2509 
Q 2775 2619 2662 2680 
Q 2550 2741 2406 2741 
Q 2056 2741 1856 2470 
Q 1656 2200 1656 1722 
L 1656 0 
L 538 0 
L 538 3500 
L 1656 3500 
L 1656 2988 
Q 1909 3294 2193 3439 
Q 2478 3584 2822 3584 
Q 3428 3584 3742 3212 
Q 4056 2841 4056 2131 
z
" transform="scale(0.015625)"/>
       <path id="DejaVuSans-Bold-2d" d="M 347 2297 
L 2309 2297 
L 2309 1388 
L 347 1388 
L 347 2297 
z
" transform="scale(0.015625)"/>
       <path id="DejaVuSans-Bold-59" d="M -63 4666 
L 1253 4666 
L 2316 3003 
L 3378 4666 
L 4697 4666 
L 2919 1966 
L 2919 0 
L 1716 0 
L 1716 1966 
L -63 4666 
z
" transform="scale(0.015625)"/>
       <path id="DejaVuSans-Bold-73" d="M 3272 3391 
L 3272 2541 
Q 2913 2691 2578 2766 
Q 2244 2841 1947 2841 
Q 1628 2841 1473 2761 
Q 1319 2681 1319 2516 
Q 1319 2381 1436 2309 
Q 1553 2238 1856 2203 
L 2053 2175 
Q 2913 2066 3209 1816 
Q 3506 1566 3506 1031 
Q 3506 472 3093 190 
Q 2681 -91 1863 -91 
Q 1516 -91 1145 -36 
Q 775 19 384 128 
L 384 978 
Q 719 816 1070 734 
Q 1422 653 1784 653 
Q 2113 653 2278 743 
Q 2444 834 2444 1013 
Q 2444 1163 2330 1236 
Q 2216 1309 1875 1350 
L 1678 1375 
Q 931 1469 631 1722 
Q 331 1975 331 2491 
Q 331 3047 712 3315 
Q 1094 3584 1881 3584 
Q 2191 3584 2531 3537 
Q 2872 3491 3272 3391 
z
" transform="scale(0.015625)"/>
      </defs>
      <use xlink:href="#DejaVuSans-Bold-4e"/>
      <use xlink:href="#DejaVuSans-Bold-75" x="83.691406"/>
      <use xlink:href="#DejaVuSans-Bold-6d" x="154.882812"/>
      <use xlink:href="#DejaVuSans-Bold-62" x="259.082031"/>
      <use xlink:href="#DejaVuSans-Bold-65" x="330.664062"/>
      <use xlink:href="#DejaVuSans-Bold-72" x="398.486328"/>
      <use xlink:href="#DejaVuSans-Bold-20" x="447.802734"/>
      <use xlink:href="#DejaVuSans-Bold-6f" x="482.617188"/>
      <use xlink:href="#DejaVuSans-Bold-66" x="551.318359"/>
      <use xlink:href="#DejaVuSans-Bold-20" x="594.824219"/>
      <use xlink:href="#DejaVuSans-Bold-53" x="629.638672"/>
      <use xlink:href="#DejaVuSans-Bold-74" x="701.660156"/>
      <use xlink:href="#DejaVuSans-Bold-61" x="749.462891"/>
      <use xlink:href="#DejaVuSans-Bold-74" x="816.943359"/>
      <use xlink:href="#DejaVuSans-Bold-69" x="864.746094"/>
      <use xlink:href="#DejaVuSans-Bold-6f" x="899.023438"/>
      <use xlink:href="#DejaVuSans-Bold-6e" x="967.724609"/>
      <use xlink:href="#DejaVuSans-Bold-2d" x="1038.916016"/>
      <use xlink:href="#DejaVuSans-Bold-59" x="1065.669922"/>
      <use xlink:href="#DejaVuSans-Bold-65" x="1128.957031"/>
      <use xlink:href="#DejaVuSans-Bold-61" x="1196.779297"/>
      <use xlink:href="#DejaVuSans-Bold-72" x="1264.259766"/>
      <use xlink:href="#DejaVuSans-Bold-73" x="1313.576172"/>
     </g>
    </g>
   </g>
   <g id="patch_3">
    <path d="M 184.083082 326.306105 
L 209.099272 326.306105 
L 209.099272 51.574398 
L 184.083082 51.574398 
z
" clip-path="url(#p17c960c0c3)" style="fill: #4c72b0; stroke: #000000; stroke-linejoin: miter"/>
   </g>
   <g id="patch_4">
    <path d="M 225.776731 326.306105 
L 250.79292 326.306105 
L 250.79292 195.887713 
L 225.776731 195.887713 
z
" clip-path="url(#p17c960c0c3)" style="fill: #4c72b0; stroke: #000000; stroke-linejoin: miter"/>
   </g>
   <g id="patch_5">
    <path d="M 267.47038 326.306105 
L 292.486569 326.306105 
L 292.486569 206.538333 
L 267.47038 206.538333 
z
" clip-path="url(#p17c960c0c3)" style="fill: #4c72b0; stroke: #000000; stroke-linejoin: miter"/>
   </g>
   <g id="patch_6">
    <path d="M 309.164029 326.306105 
L 334.180218 326.306105 
L 334.180218 298.102643 
L 309.164029 298.102643 
z
" clip-path="url(#p17c960c0c3)" style="fill: #4c72b0; stroke: #000000; stroke-linejoin: miter"/>
   </g>
   <g id="patch_7">
    <path d="M 350.857678 326.306105 
L 375.873867 326.306105 
L 375.873867 308.106988 
L 350.857678 308.106988 
z
" clip-path="url(#p17c960c0c3)" style="fill: #4c72b0; stroke: #000000; stroke-linejoin: miter"/>
   </g>
   <g id="patch_8">
    <path d="M 392.551326 326.306105 
L 417.567516 326.306105 
L 417.567516 312.966979 
L 392.551326 312.966979 
z
" clip-path="url(#p17c960c0c3)" style="fill: #4c72b0; stroke: #000000; stroke-linejoin: miter"/>
   </g>
   <g id="patch_9">
    <path d="M 434.244975 326.306105 
L 459.261165 326.306105 
L 459.261165 316.056176 
L 434.244975 316.056176 
z
" clip-path="url(#p17c960c0c3)" style="fill: #4c72b0; stroke: #000000; stroke-linejoin: miter"/>
   </g>
   <g id="patch_10">
    <path d="M 475.938624 326.306105 
L 500.954813 326.306105 
L 500.954813 319.32633 
L 475.938624 319.32633 
z
" clip-path="url(#p17c960c0c3)" style="fill: #4c72b0; stroke: #000000; stroke-linejoin: miter"/>
   </g>
   <g id="patch_11">
    <path d="M 517.632273 326.306105 
L 542.648462 326.306105 
L 542.648462 319.972605 
L 517.632273 319.972605 
z
" clip-path="url(#p17c960c0c3)" style="fill: #4c72b0; stroke: #000000; stroke-linejoin: miter"/>
   </g>
   <g id="patch_12">
    <path d="M 559.325922 326.306105 
L 584.342111 326.306105 
L 584.342111 321.213454 
L 559.325922 321.213454 
z
" clip-path="url(#p17c960c0c3)" style="fill: #4c72b0; stroke: #000000; stroke-linejoin: miter"/>
   </g>
   <g id="patch_13">
    <path d="M 601.019571 326.306105 
L 626.03576 326.306105 
L 626.03576 321.652922 
L 601.019571 321.652922 
z
" clip-path="url(#p17c960c0c3)" style="fill: #4c72b0; stroke: #000000; stroke-linejoin: miter"/>
   </g>
   <g id="patch_14">
    <path d="M 642.713219 326.306105 
L 667.729409 326.306105 
L 667.729409 323.333238 
L 642.713219 323.333238 
z
" clip-path="url(#p17c960c0c3)" style="fill: #4c72b0; stroke: #000000; stroke-linejoin: miter"/>
   </g>
   <g id="patch_15">
    <path d="M 684.406868 326.306105 
L 709.423057 326.306105 
L 709.423057 323.488344 
L 684.406868 323.488344 
z
" clip-path="url(#p17c960c0c3)" style="fill: #4c72b0; stroke: #000000; stroke-linejoin: miter"/>
   </g>
   <g id="patch_16">
    <path d="M 726.100517 326.306105 
L 751.116706 326.306105 
L 751.116706 324.289726 
L 726.100517 324.289726 
z
" clip-path="url(#p17c960c0c3)" style="fill: #4c72b0; stroke: #000000; stroke-linejoin: miter"/>
   </g>
   <g id="patch_17">
    <path d="M 767.794166 326.306105 
L 792.810355 326.306105 
L 792.810355 324.302651 
L 767.794166 324.302651 
z
" clip-path="url(#p17c960c0c3)" style="fill: #4c72b0; stroke: #000000; stroke-linejoin: miter"/>
   </g>
   <g id="patch_18">
    <path d="M 153.646719 326.306105 
L 153.646719 37.837812 
" style="fill: none; stroke: #262626; stroke-width: 1.25; stroke-linejoin: miter; stroke-linecap: square"/>
   </g>
   <g id="text_11">
    <!-- 21,255 -->
    <g style="fill: #262626" transform="translate(177.297427 46.49471) scale(0.1 -0.1)">
     <defs>
      <path id="DejaVuSans-Bold-32" d="M 1844 884 
L 3897 884 
L 3897 0 
L 506 0 
L 506 884 
L 2209 2388 
Q 2438 2594 2547 2791 
Q 2656 2988 2656 3200 
Q 2656 3528 2436 3728 
Q 2216 3928 1850 3928 
Q 1569 3928 1234 3808 
Q 900 3688 519 3450 
L 519 4475 
Q 925 4609 1322 4679 
Q 1719 4750 2100 4750 
Q 2938 4750 3402 4381 
Q 3866 4013 3866 3353 
Q 3866 2972 3669 2642 
Q 3472 2313 2841 1759 
L 1844 884 
z
" transform="scale(0.015625)"/>
      <path id="DejaVuSans-Bold-31" d="M 750 831 
L 1813 831 
L 1813 3847 
L 722 3622 
L 722 4441 
L 1806 4666 
L 2950 4666 
L 2950 831 
L 4013 831 
L 4013 0 
L 750 0 
L 750 831 
z
" transform="scale(0.015625)"/>
      <path id="DejaVuSans-Bold-2c" d="M 653 1209 
L 1778 1209 
L 1778 256 
L 1006 -909 
L 341 -909 
L 653 256 
L 653 1209 
z
" transform="scale(0.015625)"/>
      <path id="DejaVuSans-Bold-35" d="M 678 4666 
L 3669 4666 
L 3669 3781 
L 1638 3781 
L 1638 3059 
Q 1775 3097 1914 3117 
Q 2053 3138 2203 3138 
Q 3056 3138 3531 2711 
Q 4006 2284 4006 1522 
Q 4006 766 3489 337 
Q 2972 -91 2053 -91 
Q 1656 -91 1267 -14 
Q 878 63 494 219 
L 494 1166 
Q 875 947 1217 837 
Q 1559 728 1863 728 
Q 2300 728 2551 942 
Q 2803 1156 2803 1522 
Q 2803 1891 2551 2103 
Q 2300 2316 1863 2316 
Q 1603 2316 1309 2248 
Q 1016 2181 678 2041 
L 678 4666 
z
" transform="scale(0.015625)"/>
     </defs>
     <use xlink:href="#DejaVuSans-Bold-32"/>
     <use xlink:href="#DejaVuSans-Bold-31" x="69.580078"/>
     <use xlink:href="#DejaVuSans-Bold-2c" x="139.160156"/>
     <use xlink:href="#DejaVuSans-Bold-32" x="177.148438"/>
     <use xlink:href="#DejaVuSans-Bold-35" x="246.728516"/>
     <use xlink:href="#DejaVuSans-Bold-35" x="316.308594"/>
    </g>
   </g>
   <g id="text_12">
    <!-- 10,090 -->
    <g style="fill: #262626" transform="translate(218.991076 190.808025) scale(0.1 -0.1)">
     <defs>
      <path id="DejaVuSans-Bold-30" d="M 2944 2338 
Q 2944 3213 2780 3570 
Q 2616 3928 2228 3928 
Q 1841 3928 1675 3570 
Q 1509 3213 1509 2338 
Q 1509 1453 1675 1090 
Q 1841 728 2228 728 
Q 2613 728 2778 1090 
Q 2944 1453 2944 2338 
z
M 4147 2328 
Q 4147 1169 3647 539 
Q 3147 -91 2228 -91 
Q 1306 -91 806 539 
Q 306 1169 306 2328 
Q 306 3491 806 4120 
Q 1306 4750 2228 4750 
Q 3147 4750 3647 4120 
Q 4147 3491 4147 2328 
z
" transform="scale(0.015625)"/>
      <path id="DejaVuSans-Bold-39" d="M 641 103 
L 641 966 
Q 928 831 1190 764 
Q 1453 697 1709 697 
Q 2247 697 2547 995 
Q 2847 1294 2900 1881 
Q 2688 1725 2447 1647 
Q 2206 1569 1925 1569 
Q 1209 1569 770 1986 
Q 331 2403 331 3084 
Q 331 3838 820 4291 
Q 1309 4744 2131 4744 
Q 3044 4744 3544 4128 
Q 4044 3513 4044 2388 
Q 4044 1231 3459 570 
Q 2875 -91 1856 -91 
Q 1528 -91 1228 -42 
Q 928 6 641 103 
z
M 2125 2350 
Q 2441 2350 2600 2554 
Q 2759 2759 2759 3169 
Q 2759 3575 2600 3781 
Q 2441 3988 2125 3988 
Q 1809 3988 1650 3781 
Q 1491 3575 1491 3169 
Q 1491 2759 1650 2554 
Q 1809 2350 2125 2350 
z
" transform="scale(0.015625)"/>
     </defs>
     <use xlink:href="#DejaVuSans-Bold-31"/>
     <use xlink:href="#DejaVuSans-Bold-30" x="69.580078"/>
     <use xlink:href="#DejaVuSans-Bold-2c" x="139.160156"/>
     <use xlink:href="#DejaVuSans-Bold-30" x="177.148438"/>
     <use xlink:href="#DejaVuSans-Bold-39" x="246.728516"/>
     <use xlink:href="#DejaVuSans-Bold-30" x="316.308594"/>
    </g>
   </g>
   <g id="text_13">
    <!-- 9,266 -->
    <g style="fill: #262626" transform="translate(264.163631 201.458645) scale(0.1 -0.1)">
     <defs>
      <path id="DejaVuSans-Bold-36" d="M 2316 2303 
Q 2000 2303 1842 2098 
Q 1684 1894 1684 1484 
Q 1684 1075 1842 870 
Q 2000 666 2316 666 
Q 2634 666 2792 870 
Q 2950 1075 2950 1484 
Q 2950 1894 2792 2098 
Q 2634 2303 2316 2303 
z
M 3803 4544 
L 3803 3681 
Q 3506 3822 3243 3889 
Q 2981 3956 2731 3956 
Q 2194 3956 1894 3657 
Q 1594 3359 1544 2772 
Q 1750 2925 1990 3001 
Q 2231 3078 2516 3078 
Q 3231 3078 3670 2659 
Q 4109 2241 4109 1563 
Q 4109 813 3618 361 
Q 3128 -91 2303 -91 
Q 1394 -91 895 523 
Q 397 1138 397 2266 
Q 397 3422 980 4083 
Q 1563 4744 2578 4744 
Q 2900 4744 3203 4694 
Q 3506 4644 3803 4544 
z
" transform="scale(0.015625)"/>
     </defs>
     <use xlink:href="#DejaVuSans-Bold-39"/>
     <use xlink:href="#DejaVuSans-Bold-2c" x="69.580078"/>
     <use xlink:href="#DejaVuSans-Bold-32" x="107.568359"/>
     <use xlink:href="#DejaVuSans-Bold-36" x="177.148438"/>
     <use xlink:href="#DejaVuSans-Bold-36" x="246.728516"/>
    </g>
   </g>
   <g id="text_14">
    <!-- 2,182 -->
    <g style="fill: #262626" transform="translate(305.85728 293.022956) scale(0.1 -0.1)">
     <defs>
      <path id="DejaVuSans-Bold-38" d="M 2228 2088 
Q 1891 2088 1709 1903 
Q 1528 1719 1528 1375 
Q 1528 1031 1709 848 
Q 1891 666 2228 666 
Q 2563 666 2741 848 
Q 2919 1031 2919 1375 
Q 2919 1722 2741 1905 
Q 2563 2088 2228 2088 
z
M 1350 2484 
Q 925 2613 709 2878 
Q 494 3144 494 3541 
Q 494 4131 934 4440 
Q 1375 4750 2228 4750 
Q 3075 4750 3515 4442 
Q 3956 4134 3956 3541 
Q 3956 3144 3739 2878 
Q 3522 2613 3097 2484 
Q 3572 2353 3814 2058 
Q 4056 1763 4056 1313 
Q 4056 619 3595 264 
Q 3134 -91 2228 -91 
Q 1319 -91 855 264 
Q 391 619 391 1313 
Q 391 1763 633 2058 
Q 875 2353 1350 2484 
z
M 1631 3419 
Q 1631 3141 1786 2991 
Q 1941 2841 2228 2841 
Q 2509 2841 2662 2991 
Q 2816 3141 2816 3419 
Q 2816 3697 2662 3845 
Q 2509 3994 2228 3994 
Q 1941 3994 1786 3844 
Q 1631 3694 1631 3419 
z
" transform="scale(0.015625)"/>
     </defs>
     <use xlink:href="#DejaVuSans-Bold-32"/>
     <use xlink:href="#DejaVuSans-Bold-2c" x="69.580078"/>
     <use xlink:href="#DejaVuSans-Bold-31" x="107.568359"/>
     <use xlink:href="#DejaVuSans-Bold-38" x="177.148438"/>
     <use xlink:href="#DejaVuSans-Bold-32" x="246.728516"/>
    </g>
   </g>
   <g id="text_15">
    <!-- 1,408 -->
    <g style="fill: #262626" transform="translate(347.550929 303.0273) scale(0.1 -0.1)">
     <defs>
      <path id="DejaVuSans-Bold-34" d="M 2356 3675 
L 1038 1722 
L 2356 1722 
L 2356 3675 
z
M 2156 4666 
L 3494 4666 
L 3494 1722 
L 4159 1722 
L 4159 850 
L 3494 850 
L 3494 0 
L 2356 0 
L 2356 850 
L 288 850 
L 288 1881 
L 2156 4666 
z
" transform="scale(0.015625)"/>
     </defs>
     <use xlink:href="#DejaVuSans-Bold-31"/>
     <use xlink:href="#DejaVuSans-Bold-2c" x="69.580078"/>
     <use xlink:href="#DejaVuSans-Bold-34" x="107.568359"/>
     <use xlink:href="#DejaVuSans-Bold-30" x="177.148438"/>
     <use xlink:href="#DejaVuSans-Bold-38" x="246.728516"/>
    </g>
   </g>
   <g id="text_16">
    <!-- 1,032 -->
    <g style="fill: #262626" transform="translate(389.244577 307.887292) scale(0.1 -0.1)">
     <defs>
      <path id="DejaVuSans-Bold-33" d="M 2981 2516 
Q 3453 2394 3698 2092 
Q 3944 1791 3944 1325 
Q 3944 631 3412 270 
Q 2881 -91 1863 -91 
Q 1503 -91 1142 -33 
Q 781 25 428 141 
L 428 1069 
Q 766 900 1098 814 
Q 1431 728 1753 728 
Q 2231 728 2486 893 
Q 2741 1059 2741 1369 
Q 2741 1688 2480 1852 
Q 2219 2016 1709 2016 
L 1228 2016 
L 1228 2791 
L 1734 2791 
Q 2188 2791 2409 2933 
Q 2631 3075 2631 3366 
Q 2631 3634 2415 3781 
Q 2200 3928 1806 3928 
Q 1516 3928 1219 3862 
Q 922 3797 628 3669 
L 628 4550 
Q 984 4650 1334 4700 
Q 1684 4750 2022 4750 
Q 2931 4750 3382 4451 
Q 3834 4153 3834 3553 
Q 3834 3144 3618 2883 
Q 3403 2622 2981 2516 
z
" transform="scale(0.015625)"/>
     </defs>
     <use xlink:href="#DejaVuSans-Bold-31"/>
     <use xlink:href="#DejaVuSans-Bold-2c" x="69.580078"/>
     <use xlink:href="#DejaVuSans-Bold-30" x="107.568359"/>
     <use xlink:href="#DejaVuSans-Bold-33" x="177.148438"/>
     <use xlink:href="#DejaVuSans-Bold-32" x="246.728516"/>
    </g>
   </g>
   <g id="text_17">
    <!-- 793 -->
    <g style="fill: #262626" transform="translate(436.316351 310.976489) scale(0.1 -0.1)">
     <defs>
      <path id="DejaVuSans-Bold-37" d="M 428 4666 
L 3944 4666 
L 3944 3988 
L 2125 0 
L 953 0 
L 2675 3781 
L 428 3781 
L 428 4666 
z
" transform="scale(0.015625)"/>
     </defs>
     <use xlink:href="#DejaVuSans-Bold-37"/>
     <use xlink:href="#DejaVuSans-Bold-39" x="69.580078"/>
     <use xlink:href="#DejaVuSans-Bold-33" x="139.160156"/>
    </g>
   </g>
   <g id="text_18">
    <!-- 540 -->
    <g style="fill: #262626" transform="translate(478.01 314.246642) scale(0.1 -0.1)">
     <use xlink:href="#DejaVuSans-Bold-35"/>
     <use xlink:href="#DejaVuSans-Bold-34" x="69.580078"/>
     <use xlink:href="#DejaVuSans-Bold-30" x="139.160156"/>
    </g>
   </g>
   <g id="text_19">
    <!-- 490 -->
    <g style="fill: #262626" transform="translate(519.703649 314.892918) scale(0.1 -0.1)">
     <use xlink:href="#DejaVuSans-Bold-34"/>
     <use xlink:href="#DejaVuSans-Bold-39" x="69.580078"/>
     <use xlink:href="#DejaVuSans-Bold-30" x="139.160156"/>
    </g>
   </g>
   <g id="text_20">
    <!-- 394 -->
    <g style="fill: #262626" transform="translate(561.397298 316.133767) scale(0.1 -0.1)">
     <use xlink:href="#DejaVuSans-Bold-33"/>
     <use xlink:href="#DejaVuSans-Bold-39" x="69.580078"/>
     <use xlink:href="#DejaVuSans-Bold-34" x="139.160156"/>
    </g>
   </g>
   <g id="text_21">
    <!-- 360 -->
    <g style="fill: #262626" transform="translate(603.090946 316.573234) scale(0.1 -0.1)">
     <use xlink:href="#DejaVuSans-Bold-33"/>
     <use xlink:href="#DejaVuSans-Bold-36" x="69.580078"/>
     <use xlink:href="#DejaVuSans-Bold-30" x="139.160156"/>
    </g>
   </g>
   <g id="text_22">
    <!-- 230 -->
    <g style="fill: #262626" transform="translate(644.784595 318.25355) scale(0.1 -0.1)">
     <use xlink:href="#DejaVuSans-Bold-32"/>
     <use xlink:href="#DejaVuSans-Bold-33" x="69.580078"/>
     <use xlink:href="#DejaVuSans-Bold-30" x="139.160156"/>
    </g>
   </g>
   <g id="text_23">
    <!-- 218 -->
    <g style="fill: #262626" transform="translate(686.478244 318.408657) scale(0.1 -0.1)">
     <use xlink:href="#DejaVuSans-Bold-32"/>
     <use xlink:href="#DejaVuSans-Bold-31" x="69.580078"/>
     <use xlink:href="#DejaVuSans-Bold-38" x="139.160156"/>
    </g>
   </g>
   <g id="text_24">
    <!-- 156 -->
    <g style="fill: #262626" transform="translate(728.171893 319.210038) scale(0.1 -0.1)">
     <use xlink:href="#DejaVuSans-Bold-31"/>
     <use xlink:href="#DejaVuSans-Bold-35" x="69.580078"/>
     <use xlink:href="#DejaVuSans-Bold-36" x="139.160156"/>
    </g>
   </g>
   <g id="text_25">
    <!-- 155 -->
    <g style="fill: #262626" transform="translate(769.865542 319.222964) scale(0.1 -0.1)">
     <use xlink:href="#DejaVuSans-Bold-31"/>
     <use xlink:href="#DejaVuSans-Bold-35" x="69.580078"/>
     <use xlink:href="#DejaVuSans-Bold-35" x="139.160156"/>
    </g>
   </g>
   <g id="text_26">
    <!-- Concurrent Variable Co-occurrence -->
    <g style="fill: #262626" transform="translate(350.564219 17.837812) scale(0.14 -0.14)">
     <defs>
      <path id="DejaVuSans-Bold-43" d="M 4288 256 
Q 3956 84 3597 -3 
Q 3238 -91 2847 -91 
Q 1681 -91 1000 561 
Q 319 1213 319 2328 
Q 319 3447 1000 4098 
Q 1681 4750 2847 4750 
Q 3238 4750 3597 4662 
Q 3956 4575 4288 4403 
L 4288 3438 
Q 3953 3666 3628 3772 
Q 3303 3878 2944 3878 
Q 2300 3878 1931 3465 
Q 1563 3053 1563 2328 
Q 1563 1606 1931 1193 
Q 2300 781 2944 781 
Q 3303 781 3628 887 
Q 3953 994 4288 1222 
L 4288 256 
z
" transform="scale(0.015625)"/>
      <path id="DejaVuSans-Bold-63" d="M 3366 3391 
L 3366 2478 
Q 3138 2634 2908 2709 
Q 2678 2784 2431 2784 
Q 1963 2784 1702 2511 
Q 1441 2238 1441 1747 
Q 1441 1256 1702 982 
Q 1963 709 2431 709 
Q 2694 709 2930 787 
Q 3166 866 3366 1019 
L 3366 103 
Q 3103 6 2833 -42 
Q 2563 -91 2291 -91 
Q 1344 -91 809 395 
Q 275 881 275 1747 
Q 275 2613 809 3098 
Q 1344 3584 2291 3584 
Q 2566 3584 2833 3536 
Q 3100 3488 3366 3391 
z
" transform="scale(0.015625)"/>
      <path id="DejaVuSans-Bold-56" d="M 31 4666 
L 1241 4666 
L 2478 1222 
L 3713 4666 
L 4922 4666 
L 3194 0 
L 1759 0 
L 31 4666 
z
" transform="scale(0.015625)"/>
      <path id="DejaVuSans-Bold-6c" d="M 538 4863 
L 1656 4863 
L 1656 0 
L 538 0 
L 538 4863 
z
" transform="scale(0.015625)"/>
     </defs>
     <use xlink:href="#DejaVuSans-Bold-43"/>
     <use xlink:href="#DejaVuSans-Bold-6f" x="73.388672"/>
     <use xlink:href="#DejaVuSans-Bold-6e" x="142.089844"/>
     <use xlink:href="#DejaVuSans-Bold-63" x="213.28125"/>
     <use xlink:href="#DejaVuSans-Bold-75" x="272.558594"/>
     <use xlink:href="#DejaVuSans-Bold-72" x="343.75"/>
     <use xlink:href="#DejaVuSans-Bold-72" x="393.066406"/>
     <use xlink:href="#DejaVuSans-Bold-65" x="442.382812"/>
     <use xlink:href="#DejaVuSans-Bold-6e" x="510.205078"/>
     <use xlink:href="#DejaVuSans-Bold-74" x="581.396484"/>
     <use xlink:href="#DejaVuSans-Bold-20" x="629.199219"/>
     <use xlink:href="#DejaVuSans-Bold-56" x="664.013672"/>
     <use xlink:href="#DejaVuSans-Bold-61" x="735.90625"/>
     <use xlink:href="#DejaVuSans-Bold-72" x="803.386719"/>
     <use xlink:href="#DejaVuSans-Bold-69" x="852.703125"/>
     <use xlink:href="#DejaVuSans-Bold-61" x="886.980469"/>
     <use xlink:href="#DejaVuSans-Bold-62" x="954.460938"/>
     <use xlink:href="#DejaVuSans-Bold-6c" x="1026.042969"/>
     <use xlink:href="#DejaVuSans-Bold-65" x="1060.320312"/>
     <use xlink:href="#DejaVuSans-Bold-20" x="1128.142578"/>
     <use xlink:href="#DejaVuSans-Bold-43" x="1162.957031"/>
     <use xlink:href="#DejaVuSans-Bold-6f" x="1236.345703"/>
     <use xlink:href="#DejaVuSans-Bold-2d" x="1305.046875"/>
     <use xlink:href="#DejaVuSans-Bold-6f" x="1346.550781"/>
     <use xlink:href="#DejaVuSans-Bold-63" x="1415.251953"/>
     <use xlink:href="#DejaVuSans-Bold-63" x="1474.529297"/>
     <use xlink:href="#DejaVuSans-Bold-75" x="1533.806641"/>
     <use xlink:href="#DejaVuSans-Bold-72" x="1604.998047"/>
     <use xlink:href="#DejaVuSans-Bold-72" x="1654.314453"/>
     <use xlink:href="#DejaVuSans-Bold-65" x="1703.630859"/>
     <use xlink:href="#DejaVuSans-Bold-6e" x="1771.453125"/>
     <use xlink:href="#DejaVuSans-Bold-63" x="1842.644531"/>
     <use xlink:href="#DejaVuSans-Bold-65" x="1901.921875"/>
    </g>
   </g>
  </g>
  <g id="axes_2">
   <g id="patch_19">
    <path d="M 153.646719 481.357812 
L 823.246719 481.357812 
L 823.246719 337.123666 
L 153.646719 337.123666 
z
" style="fill: #ffffff"/>
   </g>
   <g id="patch_20">
    <path d="M 153.646719 474.801715 
L 153.646719 450.96136 
L 823.246719 450.96136 
L 823.246719 474.801715 
z
" clip-path="url(#p2083c5a279)" style="fill: #f4f4f4; stroke: #f4f4f4; stroke-linejoin: miter"/>
   </g>
   <g id="patch_21">
    <path d="M 153.646719 427.121005 
L 153.646719 403.280651 
L 823.246719 403.280651 
L 823.246719 427.121005 
z
" clip-path="url(#p2083c5a279)" style="fill: #f4f4f4; stroke: #f4f4f4; stroke-linejoin: miter"/>
   </g>
   <g id="patch_22">
    <path d="M 153.646719 379.440296 
L 153.646719 355.599941 
L 823.246719 355.599941 
L 823.246719 379.440296 
z
" clip-path="url(#p2083c5a279)" style="fill: #f4f4f4; stroke: #f4f4f4; stroke-linejoin: miter"/>
   </g>
   <g id="matplotlib.axis_3">
    <g id="xtick_16"/>
    <g id="xtick_17"/>
    <g id="xtick_18"/>
    <g id="xtick_19"/>
    <g id="xtick_20"/>
    <g id="xtick_21"/>
    <g id="xtick_22"/>
    <g id="xtick_23"/>
    <g id="xtick_24"/>
    <g id="xtick_25"/>
    <g id="xtick_26"/>
    <g id="xtick_27"/>
    <g id="xtick_28"/>
    <g id="xtick_29"/>
    <g id="xtick_30"/>
   </g>
   <g id="matplotlib.axis_4">
    <g id="ytick_10">
     <g id="text_27">
      <!-- Minimum Temperature -->
      <g style="fill: #262626" transform="translate(10.116719 467.060678) scale(0.11 -0.11)">
       <defs>
        <path id="DejaVuSans-Bold-4d" d="M 588 4666 
L 2119 4666 
L 3181 2169 
L 4250 4666 
L 5778 4666 
L 5778 0 
L 4641 0 
L 4641 3413 
L 3566 897 
L 2803 897 
L 1728 3413 
L 1728 0 
L 588 0 
L 588 4666 
z
" transform="scale(0.015625)"/>
        <path id="DejaVuSans-Bold-54" d="M 31 4666 
L 4331 4666 
L 4331 3756 
L 2784 3756 
L 2784 0 
L 1581 0 
L 1581 3756 
L 31 3756 
L 31 4666 
z
" transform="scale(0.015625)"/>
        <path id="DejaVuSans-Bold-70" d="M 1656 506 
L 1656 -1331 
L 538 -1331 
L 538 3500 
L 1656 3500 
L 1656 2988 
Q 1888 3294 2169 3439 
Q 2450 3584 2816 3584 
Q 3463 3584 3878 3070 
Q 4294 2556 4294 1747 
Q 4294 938 3878 423 
Q 3463 -91 2816 -91 
Q 2450 -91 2169 54 
Q 1888 200 1656 506 
z
M 2400 2772 
Q 2041 2772 1848 2508 
Q 1656 2244 1656 1747 
Q 1656 1250 1848 986 
Q 2041 722 2400 722 
Q 2759 722 2948 984 
Q 3138 1247 3138 1747 
Q 3138 2247 2948 2509 
Q 2759 2772 2400 2772 
z
" transform="scale(0.015625)"/>
       </defs>
       <use xlink:href="#DejaVuSans-Bold-4d"/>
       <use xlink:href="#DejaVuSans-Bold-69" x="99.511719"/>
       <use xlink:href="#DejaVuSans-Bold-6e" x="133.789062"/>
       <use xlink:href="#DejaVuSans-Bold-69" x="204.980469"/>
       <use xlink:href="#DejaVuSans-Bold-6d" x="239.257812"/>
       <use xlink:href="#DejaVuSans-Bold-75" x="343.457031"/>
       <use xlink:href="#DejaVuSans-Bold-6d" x="414.648438"/>
       <use xlink:href="#DejaVuSans-Bold-20" x="518.847656"/>
       <use xlink:href="#DejaVuSans-Bold-54" x="553.662109"/>
       <use xlink:href="#DejaVuSans-Bold-65" x="608.625"/>
       <use xlink:href="#DejaVuSans-Bold-6d" x="676.447266"/>
       <use xlink:href="#DejaVuSans-Bold-70" x="780.646484"/>
       <use xlink:href="#DejaVuSans-Bold-65" x="852.228516"/>
       <use xlink:href="#DejaVuSans-Bold-72" x="920.050781"/>
       <use xlink:href="#DejaVuSans-Bold-61" x="969.367188"/>
       <use xlink:href="#DejaVuSans-Bold-74" x="1036.847656"/>
       <use xlink:href="#DejaVuSans-Bold-75" x="1084.650391"/>
       <use xlink:href="#DejaVuSans-Bold-72" x="1155.841797"/>
       <use xlink:href="#DejaVuSans-Bold-65" x="1205.158203"/>
      </g>
     </g>
    </g>
    <g id="ytick_11">
     <g id="text_28">
      <!-- Maximum Temperature -->
      <g style="fill: #262626" transform="translate(7.2 443.220323) scale(0.11 -0.11)">
       <defs>
        <path id="DejaVuSans-Bold-78" d="M 1422 1791 
L 159 3500 
L 1344 3500 
L 2059 2463 
L 2784 3500 
L 3969 3500 
L 2706 1797 
L 4031 0 
L 2847 0 
L 2059 1106 
L 1281 0 
L 97 0 
L 1422 1791 
z
" transform="scale(0.015625)"/>
       </defs>
       <use xlink:href="#DejaVuSans-Bold-4d"/>
       <use xlink:href="#DejaVuSans-Bold-61" x="99.511719"/>
       <use xlink:href="#DejaVuSans-Bold-78" x="166.992188"/>
       <use xlink:href="#DejaVuSans-Bold-69" x="231.494141"/>
       <use xlink:href="#DejaVuSans-Bold-6d" x="265.771484"/>
       <use xlink:href="#DejaVuSans-Bold-75" x="369.970703"/>
       <use xlink:href="#DejaVuSans-Bold-6d" x="441.162109"/>
       <use xlink:href="#DejaVuSans-Bold-20" x="545.361328"/>
       <use xlink:href="#DejaVuSans-Bold-54" x="580.175781"/>
       <use xlink:href="#DejaVuSans-Bold-65" x="635.138672"/>
       <use xlink:href="#DejaVuSans-Bold-6d" x="702.960938"/>
       <use xlink:href="#DejaVuSans-Bold-70" x="807.160156"/>
       <use xlink:href="#DejaVuSans-Bold-65" x="878.742188"/>
       <use xlink:href="#DejaVuSans-Bold-72" x="946.564453"/>
       <use xlink:href="#DejaVuSans-Bold-61" x="995.880859"/>
       <use xlink:href="#DejaVuSans-Bold-74" x="1063.361328"/>
       <use xlink:href="#DejaVuSans-Bold-75" x="1111.164062"/>
       <use xlink:href="#DejaVuSans-Bold-72" x="1182.355469"/>
       <use xlink:href="#DejaVuSans-Bold-65" x="1231.671875"/>
      </g>
     </g>
    </g>
    <g id="ytick_12">
     <g id="text_29">
      <!-- Wind Direction -->
      <g style="fill: #262626" transform="translate(57.983906 419.379969) scale(0.11 -0.11)">
       <defs>
        <path id="DejaVuSans-Bold-57" d="M 191 4666 
L 1344 4666 
L 2150 1275 
L 2950 4666 
L 4109 4666 
L 4909 1275 
L 5716 4666 
L 6859 4666 
L 5759 0 
L 4372 0 
L 3525 3547 
L 2688 0 
L 1300 0 
L 191 4666 
z
" transform="scale(0.015625)"/>
        <path id="DejaVuSans-Bold-64" d="M 2919 2988 
L 2919 4863 
L 4044 4863 
L 4044 0 
L 2919 0 
L 2919 506 
Q 2688 197 2409 53 
Q 2131 -91 1766 -91 
Q 1119 -91 703 423 
Q 288 938 288 1747 
Q 288 2556 703 3070 
Q 1119 3584 1766 3584 
Q 2128 3584 2408 3439 
Q 2688 3294 2919 2988 
z
M 2181 722 
Q 2541 722 2730 984 
Q 2919 1247 2919 1747 
Q 2919 2247 2730 2509 
Q 2541 2772 2181 2772 
Q 1825 2772 1636 2509 
Q 1447 2247 1447 1747 
Q 1447 1247 1636 984 
Q 1825 722 2181 722 
z
" transform="scale(0.015625)"/>
        <path id="DejaVuSans-Bold-44" d="M 1791 3756 
L 1791 909 
L 2222 909 
Q 2959 909 3348 1275 
Q 3738 1641 3738 2338 
Q 3738 3031 3350 3393 
Q 2963 3756 2222 3756 
L 1791 3756 
z
M 588 4666 
L 1856 4666 
Q 2919 4666 3439 4514 
Q 3959 4363 4331 4000 
Q 4659 3684 4818 3271 
Q 4978 2859 4978 2338 
Q 4978 1809 4818 1395 
Q 4659 981 4331 666 
Q 3956 303 3431 151 
Q 2906 0 1856 0 
L 588 0 
L 588 4666 
z
" transform="scale(0.015625)"/>
       </defs>
       <use xlink:href="#DejaVuSans-Bold-57"/>
       <use xlink:href="#DejaVuSans-Bold-69" x="110.302734"/>
       <use xlink:href="#DejaVuSans-Bold-6e" x="144.580078"/>
       <use xlink:href="#DejaVuSans-Bold-64" x="215.771484"/>
       <use xlink:href="#DejaVuSans-Bold-20" x="287.353516"/>
       <use xlink:href="#DejaVuSans-Bold-44" x="322.167969"/>
       <use xlink:href="#DejaVuSans-Bold-69" x="405.175781"/>
       <use xlink:href="#DejaVuSans-Bold-72" x="439.453125"/>
       <use xlink:href="#DejaVuSans-Bold-65" x="488.769531"/>
       <use xlink:href="#DejaVuSans-Bold-63" x="556.591797"/>
       <use xlink:href="#DejaVuSans-Bold-74" x="615.869141"/>
       <use xlink:href="#DejaVuSans-Bold-69" x="663.671875"/>
       <use xlink:href="#DejaVuSans-Bold-6f" x="697.949219"/>
       <use xlink:href="#DejaVuSans-Bold-6e" x="766.650391"/>
      </g>
     </g>
    </g>
    <g id="ytick_13">
     <g id="text_30">
      <!-- Precipitation -->
      <g style="fill: #262626" transform="translate(70.164687 395.539614) scale(0.11 -0.11)">
       <defs>
        <path id="DejaVuSans-Bold-50" d="M 588 4666 
L 2584 4666 
Q 3475 4666 3951 4270 
Q 4428 3875 4428 3144 
Q 4428 2409 3951 2014 
Q 3475 1619 2584 1619 
L 1791 1619 
L 1791 0 
L 588 0 
L 588 4666 
z
M 1791 3794 
L 1791 2491 
L 2456 2491 
Q 2806 2491 2997 2661 
Q 3188 2831 3188 3144 
Q 3188 3456 2997 3625 
Q 2806 3794 2456 3794 
L 1791 3794 
z
" transform="scale(0.015625)"/>
       </defs>
       <use xlink:href="#DejaVuSans-Bold-50"/>
       <use xlink:href="#DejaVuSans-Bold-72" x="73.291016"/>
       <use xlink:href="#DejaVuSans-Bold-65" x="122.607422"/>
       <use xlink:href="#DejaVuSans-Bold-63" x="190.429688"/>
       <use xlink:href="#DejaVuSans-Bold-69" x="249.707031"/>
       <use xlink:href="#DejaVuSans-Bold-70" x="283.984375"/>
       <use xlink:href="#DejaVuSans-Bold-69" x="355.566406"/>
       <use xlink:href="#DejaVuSans-Bold-74" x="389.84375"/>
       <use xlink:href="#DejaVuSans-Bold-61" x="437.646484"/>
       <use xlink:href="#DejaVuSans-Bold-74" x="505.126953"/>
       <use xlink:href="#DejaVuSans-Bold-69" x="552.929688"/>
       <use xlink:href="#DejaVuSans-Bold-6f" x="587.207031"/>
       <use xlink:href="#DejaVuSans-Bold-6e" x="655.908203"/>
      </g>
     </g>
    </g>
    <g id="ytick_14">
     <g id="text_31">
      <!-- Pressure -->
      <g style="fill: #262626" transform="translate(95.389062 371.699259) scale(0.11 -0.11)">
       <use xlink:href="#DejaVuSans-Bold-50"/>
       <use xlink:href="#DejaVuSans-Bold-72" x="73.291016"/>
       <use xlink:href="#DejaVuSans-Bold-65" x="122.607422"/>
       <use xlink:href="#DejaVuSans-Bold-73" x="190.429688"/>
       <use xlink:href="#DejaVuSans-Bold-73" x="249.951172"/>
       <use xlink:href="#DejaVuSans-Bold-75" x="309.472656"/>
       <use xlink:href="#DejaVuSans-Bold-72" x="380.664062"/>
       <use xlink:href="#DejaVuSans-Bold-65" x="429.980469"/>
      </g>
     </g>
    </g>
    <g id="ytick_15">
     <g id="text_32">
      <!-- Temperature -->
      <g style="fill: #262626" transform="translate(71.020625 347.858904) scale(0.11 -0.11)">
       <use xlink:href="#DejaVuSans-Bold-54"/>
       <use xlink:href="#DejaVuSans-Bold-65" x="54.962891"/>
       <use xlink:href="#DejaVuSans-Bold-6d" x="122.785156"/>
       <use xlink:href="#DejaVuSans-Bold-70" x="226.984375"/>
       <use xlink:href="#DejaVuSans-Bold-65" x="298.566406"/>
       <use xlink:href="#DejaVuSans-Bold-72" x="366.388672"/>
       <use xlink:href="#DejaVuSans-Bold-61" x="415.705078"/>
       <use xlink:href="#DejaVuSans-Bold-74" x="483.185547"/>
       <use xlink:href="#DejaVuSans-Bold-75" x="530.988281"/>
       <use xlink:href="#DejaVuSans-Bold-72" x="602.179688"/>
       <use xlink:href="#DejaVuSans-Bold-65" x="651.496094"/>
      </g>
     </g>
    </g>
   </g>
   <g id="PathCollection_1">
    <defs>
     <path id="maebc615708" d="M 0 5 
C 1.326016 5 2.597899 4.473168 3.535534 3.535534 
C 4.473168 2.597899 5 1.326016 5 0 
C 5 -1.326016 4.473168 -2.597899 3.535534 -3.535534 
C 2.597899 -4.473168 1.326016 -5 0 -5 
C -1.326016 -5 -2.597899 -4.473168 -3.535534 -3.535534 
C -4.473168 -2.597899 -5 -1.326016 -5 0 
C -5 1.326016 -4.473168 2.597899 -3.535534 3.535534 
C -2.597899 4.473168 -1.326016 5 0 5 
z
" style="stroke: #d3d3d3"/>
    </defs>
    <g clip-path="url(#p2083c5a279)">
     <use xlink:href="#maebc615708" x="196.591177" y="462.881538" style="fill: #d3d3d3; stroke: #d3d3d3"/>
     <use xlink:href="#maebc615708" x="196.591177" y="439.041183" style="fill: #d3d3d3; stroke: #d3d3d3"/>
     <use xlink:href="#maebc615708" x="196.591177" y="415.200828" style="fill: #d3d3d3; stroke: #d3d3d3"/>
     <use xlink:href="#maebc615708" x="196.591177" y="367.520118" style="fill: #d3d3d3; stroke: #d3d3d3"/>
     <use xlink:href="#maebc615708" x="196.591177" y="343.679764" style="fill: #d3d3d3; stroke: #d3d3d3"/>
    </g>
   </g>
   <g id="PathCollection_2">
    <g clip-path="url(#p2083c5a279)">
     <use xlink:href="#maebc615708" x="238.284826" y="462.881538" style="fill: #d3d3d3; stroke: #d3d3d3"/>
     <use xlink:href="#maebc615708" x="238.284826" y="439.041183" style="fill: #d3d3d3; stroke: #d3d3d3"/>
     <use xlink:href="#maebc615708" x="238.284826" y="415.200828" style="fill: #d3d3d3; stroke: #d3d3d3"/>
     <use xlink:href="#maebc615708" x="238.284826" y="391.360473" style="fill: #d3d3d3; stroke: #d3d3d3"/>
     <use xlink:href="#maebc615708" x="238.284826" y="343.679764" style="fill: #d3d3d3; stroke: #d3d3d3"/>
    </g>
   </g>
   <g id="PathCollection_3">
    <g clip-path="url(#p2083c5a279)">
     <use xlink:href="#maebc615708" x="279.978475" y="462.881538" style="fill: #d3d3d3; stroke: #d3d3d3"/>
     <use xlink:href="#maebc615708" x="279.978475" y="439.041183" style="fill: #d3d3d3; stroke: #d3d3d3"/>
     <use xlink:href="#maebc615708" x="279.978475" y="415.200828" style="fill: #d3d3d3; stroke: #d3d3d3"/>
     <use xlink:href="#maebc615708" x="279.978475" y="391.360473" style="fill: #d3d3d3; stroke: #d3d3d3"/>
     <use xlink:href="#maebc615708" x="279.978475" y="367.520118" style="fill: #d3d3d3; stroke: #d3d3d3"/>
    </g>
   </g>
   <g id="PathCollection_4">
    <g clip-path="url(#p2083c5a279)">
     <use xlink:href="#maebc615708" x="321.672123" y="462.881538" style="fill: #d3d3d3; stroke: #d3d3d3"/>
     <use xlink:href="#maebc615708" x="321.672123" y="439.041183" style="fill: #d3d3d3; stroke: #d3d3d3"/>
     <use xlink:href="#maebc615708" x="321.672123" y="415.200828" style="fill: #d3d3d3; stroke: #d3d3d3"/>
     <use xlink:href="#maebc615708" x="321.672123" y="391.360473" style="fill: #d3d3d3; stroke: #d3d3d3"/>
    </g>
   </g>
   <g id="PathCollection_5">
    <g clip-path="url(#p2083c5a279)">
     <use xlink:href="#maebc615708" x="363.365772" y="415.200828" style="fill: #d3d3d3; stroke: #d3d3d3"/>
     <use xlink:href="#maebc615708" x="363.365772" y="391.360473" style="fill: #d3d3d3; stroke: #d3d3d3"/>
     <use xlink:href="#maebc615708" x="363.365772" y="367.520118" style="fill: #d3d3d3; stroke: #d3d3d3"/>
     <use xlink:href="#maebc615708" x="363.365772" y="343.679764" style="fill: #d3d3d3; stroke: #d3d3d3"/>
    </g>
   </g>
   <g id="PathCollection_6">
    <g clip-path="url(#p2083c5a279)">
     <use xlink:href="#maebc615708" x="405.059421" y="462.881538" style="fill: #d3d3d3; stroke: #d3d3d3"/>
     <use xlink:href="#maebc615708" x="405.059421" y="439.041183" style="fill: #d3d3d3; stroke: #d3d3d3"/>
     <use xlink:href="#maebc615708" x="405.059421" y="415.200828" style="fill: #d3d3d3; stroke: #d3d3d3"/>
     <use xlink:href="#maebc615708" x="405.059421" y="367.520118" style="fill: #d3d3d3; stroke: #d3d3d3"/>
    </g>
   </g>
   <g id="PathCollection_7">
    <g clip-path="url(#p2083c5a279)">
     <use xlink:href="#maebc615708" x="446.75307" y="462.881538" style="fill: #d3d3d3; stroke: #d3d3d3"/>
     <use xlink:href="#maebc615708" x="446.75307" y="439.041183" style="fill: #d3d3d3; stroke: #d3d3d3"/>
     <use xlink:href="#maebc615708" x="446.75307" y="391.360473" style="fill: #d3d3d3; stroke: #d3d3d3"/>
    </g>
   </g>
   <g id="PathCollection_8">
    <g clip-path="url(#p2083c5a279)">
     <use xlink:href="#maebc615708" x="488.446719" y="415.200828" style="fill: #d3d3d3; stroke: #d3d3d3"/>
     <use xlink:href="#maebc615708" x="488.446719" y="391.360473" style="fill: #d3d3d3; stroke: #d3d3d3"/>
     <use xlink:href="#maebc615708" x="488.446719" y="367.520118" style="fill: #d3d3d3; stroke: #d3d3d3"/>
    </g>
   </g>
   <g id="PathCollection_9">
    <g clip-path="url(#p2083c5a279)">
     <use xlink:href="#maebc615708" x="530.140368" y="462.881538" style="fill: #d3d3d3; stroke: #d3d3d3"/>
     <use xlink:href="#maebc615708" x="530.140368" y="439.041183" style="fill: #d3d3d3; stroke: #d3d3d3"/>
    </g>
   </g>
   <g id="PathCollection_10">
    <g clip-path="url(#p2083c5a279)">
     <use xlink:href="#maebc615708" x="571.834016" y="462.881538" style="fill: #d3d3d3; stroke: #d3d3d3"/>
     <use xlink:href="#maebc615708" x="571.834016" y="439.041183" style="fill: #d3d3d3; stroke: #d3d3d3"/>
     <use xlink:href="#maebc615708" x="571.834016" y="415.200828" style="fill: #d3d3d3; stroke: #d3d3d3"/>
     <use xlink:href="#maebc615708" x="571.834016" y="343.679764" style="fill: #d3d3d3; stroke: #d3d3d3"/>
    </g>
   </g>
   <g id="PathCollection_11">
    <g clip-path="url(#p2083c5a279)">
     <use xlink:href="#maebc615708" x="613.527665" y="462.881538" style="fill: #d3d3d3; stroke: #d3d3d3"/>
     <use xlink:href="#maebc615708" x="613.527665" y="439.041183" style="fill: #d3d3d3; stroke: #d3d3d3"/>
     <use xlink:href="#maebc615708" x="613.527665" y="415.200828" style="fill: #d3d3d3; stroke: #d3d3d3"/>
    </g>
   </g>
   <g id="PathCollection_12">
    <g clip-path="url(#p2083c5a279)">
     <use xlink:href="#maebc615708" x="655.221314" y="415.200828" style="fill: #d3d3d3; stroke: #d3d3d3"/>
     <use xlink:href="#maebc615708" x="655.221314" y="391.360473" style="fill: #d3d3d3; stroke: #d3d3d3"/>
    </g>
   </g>
   <g id="PathCollection_13">
    <g clip-path="url(#p2083c5a279)">
     <use xlink:href="#maebc615708" x="696.914963" y="415.200828" style="fill: #d3d3d3; stroke: #d3d3d3"/>
    </g>
   </g>
   <g id="PathCollection_14">
    <g clip-path="url(#p2083c5a279)">
     <use xlink:href="#maebc615708" x="738.608612" y="415.200828" style="fill: #d3d3d3; stroke: #d3d3d3"/>
     <use xlink:href="#maebc615708" x="738.608612" y="391.360473" style="fill: #d3d3d3; stroke: #d3d3d3"/>
     <use xlink:href="#maebc615708" x="738.608612" y="343.679764" style="fill: #d3d3d3; stroke: #d3d3d3"/>
    </g>
   </g>
   <g id="PathCollection_15">
    <g clip-path="url(#p2083c5a279)">
     <use xlink:href="#maebc615708" x="780.30226" y="415.200828" style="fill: #d3d3d3; stroke: #d3d3d3"/>
     <use xlink:href="#maebc615708" x="780.30226" y="343.679764" style="fill: #d3d3d3; stroke: #d3d3d3"/>
    </g>
   </g>
   <g id="line2d_10">
    <path d="M 321.672123 367.520118 
L 321.672123 343.679764 
" clip-path="url(#p2083c5a279)" style="fill: none; stroke: #333333; stroke-width: 2.5; stroke-linecap: round"/>
   </g>
   <g id="line2d_11">
    <path d="M 363.365772 462.881538 
L 363.365772 439.041183 
" clip-path="url(#p2083c5a279)" style="fill: none; stroke: #333333; stroke-width: 2.5; stroke-linecap: round"/>
   </g>
   <g id="line2d_12">
    <path d="M 405.059421 391.360473 
L 405.059421 343.679764 
" clip-path="url(#p2083c5a279)" style="fill: none; stroke: #333333; stroke-width: 2.5; stroke-linecap: round"/>
   </g>
   <g id="line2d_13">
    <path d="M 446.75307 415.200828 
L 446.75307 343.679764 
" clip-path="url(#p2083c5a279)" style="fill: none; stroke: #333333; stroke-width: 2.5; stroke-linecap: round"/>
   </g>
   <g id="line2d_14">
    <path d="M 488.446719 462.881538 
L 488.446719 343.679764 
" clip-path="url(#p2083c5a279)" style="fill: none; stroke: #333333; stroke-width: 2.5; stroke-linecap: round"/>
   </g>
   <g id="line2d_15">
    <path d="M 530.140368 415.200828 
L 530.140368 343.679764 
" clip-path="url(#p2083c5a279)" style="fill: none; stroke: #333333; stroke-width: 2.5; stroke-linecap: round"/>
   </g>
   <g id="line2d_16">
    <path d="M 571.834016 391.360473 
L 571.834016 367.520118 
" clip-path="url(#p2083c5a279)" style="fill: none; stroke: #333333; stroke-width: 2.5; stroke-linecap: round"/>
   </g>
   <g id="line2d_17">
    <path d="M 613.527665 391.360473 
L 613.527665 343.679764 
" clip-path="url(#p2083c5a279)" style="fill: none; stroke: #333333; stroke-width: 2.5; stroke-linecap: round"/>
   </g>
   <g id="line2d_18">
    <path d="M 655.221314 462.881538 
L 655.221314 343.679764 
" clip-path="url(#p2083c5a279)" style="fill: none; stroke: #333333; stroke-width: 2.5; stroke-linecap: round"/>
   </g>
   <g id="line2d_19">
    <path d="M 696.914963 462.881538 
L 696.914963 343.679764 
" clip-path="url(#p2083c5a279)" style="fill: none; stroke: #333333; stroke-width: 2.5; stroke-linecap: round"/>
   </g>
   <g id="line2d_20">
    <path d="M 738.608612 462.881538 
L 738.608612 367.520118 
" clip-path="url(#p2083c5a279)" style="fill: none; stroke: #333333; stroke-width: 2.5; stroke-linecap: round"/>
   </g>
   <g id="line2d_21">
    <path d="M 780.30226 462.881538 
L 780.30226 367.520118 
" clip-path="url(#p2083c5a279)" style="fill: none; stroke: #333333; stroke-width: 2.5; stroke-linecap: round"/>
   </g>
   <g id="PathCollection_16">
    <defs>
     <path id="mf175fc0ac4" d="M 0 6.123724 
C 1.624031 6.123724 3.181764 5.47849 4.330127 4.330127 
C 5.47849 3.181764 6.123724 1.624031 6.123724 0 
C 6.123724 -1.624031 5.47849 -3.181764 4.330127 -4.330127 
C 3.181764 -5.47849 1.624031 -6.123724 0 -6.123724 
C -1.624031 -6.123724 -3.181764 -5.47849 -4.330127 -4.330127 
C -5.47849 -3.181764 -6.123724 -1.624031 -6.123724 0 
C -6.123724 1.624031 -5.47849 3.181764 -4.330127 4.330127 
C -3.181764 5.47849 -1.624031 6.123724 0 6.123724 
z
" style="stroke: #333333"/>
    </defs>
    <g clip-path="url(#p2083c5a279)">
     <use xlink:href="#mf175fc0ac4" x="196.591177" y="391.360473" style="fill: #333333; stroke: #333333"/>
    </g>
   </g>
   <g id="PathCollection_17">
    <g clip-path="url(#p2083c5a279)">
     <use xlink:href="#mf175fc0ac4" x="238.284826" y="367.520118" style="fill: #333333; stroke: #333333"/>
    </g>
   </g>
   <g id="PathCollection_18">
    <g clip-path="url(#p2083c5a279)">
     <use xlink:href="#mf175fc0ac4" x="279.978475" y="343.679764" style="fill: #333333; stroke: #333333"/>
    </g>
   </g>
   <g id="PathCollection_19">
    <g clip-path="url(#p2083c5a279)">
     <use xlink:href="#mf175fc0ac4" x="321.672123" y="367.520118" style="fill: #333333; stroke: #333333"/>
     <use xlink:href="#mf175fc0ac4" x="321.672123" y="343.679764" style="fill: #333333; stroke: #333333"/>
    </g>
   </g>
   <g id="PathCollection_20">
    <g clip-path="url(#p2083c5a279)">
     <use xlink:href="#mf175fc0ac4" x="363.365772" y="462.881538" style="fill: #333333; stroke: #333333"/>
     <use xlink:href="#mf175fc0ac4" x="363.365772" y="439.041183" style="fill: #333333; stroke: #333333"/>
    </g>
   </g>
   <g id="PathCollection_21">
    <g clip-path="url(#p2083c5a279)">
     <use xlink:href="#mf175fc0ac4" x="405.059421" y="391.360473" style="fill: #333333; stroke: #333333"/>
     <use xlink:href="#mf175fc0ac4" x="405.059421" y="343.679764" style="fill: #333333; stroke: #333333"/>
    </g>
   </g>
   <g id="PathCollection_22">
    <g clip-path="url(#p2083c5a279)">
     <use xlink:href="#mf175fc0ac4" x="446.75307" y="415.200828" style="fill: #333333; stroke: #333333"/>
     <use xlink:href="#mf175fc0ac4" x="446.75307" y="367.520118" style="fill: #333333; stroke: #333333"/>
     <use xlink:href="#mf175fc0ac4" x="446.75307" y="343.679764" style="fill: #333333; stroke: #333333"/>
    </g>
   </g>
   <g id="PathCollection_23">
    <g clip-path="url(#p2083c5a279)">
     <use xlink:href="#mf175fc0ac4" x="488.446719" y="462.881538" style="fill: #333333; stroke: #333333"/>
     <use xlink:href="#mf175fc0ac4" x="488.446719" y="439.041183" style="fill: #333333; stroke: #333333"/>
     <use xlink:href="#mf175fc0ac4" x="488.446719" y="343.679764" style="fill: #333333; stroke: #333333"/>
    </g>
   </g>
   <g id="PathCollection_24">
    <g clip-path="url(#p2083c5a279)">
     <use xlink:href="#mf175fc0ac4" x="530.140368" y="415.200828" style="fill: #333333; stroke: #333333"/>
     <use xlink:href="#mf175fc0ac4" x="530.140368" y="367.520118" style="fill: #333333; stroke: #333333"/>
     <use xlink:href="#mf175fc0ac4" x="530.140368" y="391.360473" style="fill: #333333; stroke: #333333"/>
     <use xlink:href="#mf175fc0ac4" x="530.140368" y="343.679764" style="fill: #333333; stroke: #333333"/>
    </g>
   </g>
   <g id="PathCollection_25">
    <g clip-path="url(#p2083c5a279)">
     <use xlink:href="#mf175fc0ac4" x="571.834016" y="367.520118" style="fill: #333333; stroke: #333333"/>
     <use xlink:href="#mf175fc0ac4" x="571.834016" y="391.360473" style="fill: #333333; stroke: #333333"/>
    </g>
   </g>
   <g id="PathCollection_26">
    <g clip-path="url(#p2083c5a279)">
     <use xlink:href="#mf175fc0ac4" x="613.527665" y="367.520118" style="fill: #333333; stroke: #333333"/>
     <use xlink:href="#mf175fc0ac4" x="613.527665" y="391.360473" style="fill: #333333; stroke: #333333"/>
     <use xlink:href="#mf175fc0ac4" x="613.527665" y="343.679764" style="fill: #333333; stroke: #333333"/>
    </g>
   </g>
   <g id="PathCollection_27">
    <g clip-path="url(#p2083c5a279)">
     <use xlink:href="#mf175fc0ac4" x="655.221314" y="462.881538" style="fill: #333333; stroke: #333333"/>
     <use xlink:href="#mf175fc0ac4" x="655.221314" y="439.041183" style="fill: #333333; stroke: #333333"/>
     <use xlink:href="#mf175fc0ac4" x="655.221314" y="367.520118" style="fill: #333333; stroke: #333333"/>
     <use xlink:href="#mf175fc0ac4" x="655.221314" y="343.679764" style="fill: #333333; stroke: #333333"/>
    </g>
   </g>
   <g id="PathCollection_28">
    <g clip-path="url(#p2083c5a279)">
     <use xlink:href="#mf175fc0ac4" x="696.914963" y="462.881538" style="fill: #333333; stroke: #333333"/>
     <use xlink:href="#mf175fc0ac4" x="696.914963" y="439.041183" style="fill: #333333; stroke: #333333"/>
     <use xlink:href="#mf175fc0ac4" x="696.914963" y="367.520118" style="fill: #333333; stroke: #333333"/>
     <use xlink:href="#mf175fc0ac4" x="696.914963" y="391.360473" style="fill: #333333; stroke: #333333"/>
     <use xlink:href="#mf175fc0ac4" x="696.914963" y="343.679764" style="fill: #333333; stroke: #333333"/>
    </g>
   </g>
   <g id="PathCollection_29">
    <g clip-path="url(#p2083c5a279)">
     <use xlink:href="#mf175fc0ac4" x="738.608612" y="462.881538" style="fill: #333333; stroke: #333333"/>
     <use xlink:href="#mf175fc0ac4" x="738.608612" y="439.041183" style="fill: #333333; stroke: #333333"/>
     <use xlink:href="#mf175fc0ac4" x="738.608612" y="367.520118" style="fill: #333333; stroke: #333333"/>
    </g>
   </g>
   <g id="PathCollection_30">
    <g clip-path="url(#p2083c5a279)">
     <use xlink:href="#mf175fc0ac4" x="780.30226" y="462.881538" style="fill: #333333; stroke: #333333"/>
     <use xlink:href="#mf175fc0ac4" x="780.30226" y="439.041183" style="fill: #333333; stroke: #333333"/>
     <use xlink:href="#mf175fc0ac4" x="780.30226" y="367.520118" style="fill: #333333; stroke: #333333"/>
     <use xlink:href="#mf175fc0ac4" x="780.30226" y="391.360473" style="fill: #333333; stroke: #333333"/>
    </g>
   </g>
  </g>
 </g>
 <defs>
  <clipPath id="p17c960c0c3">
   <rect x="153.646719" y="37.837812" width="669.6" height="288.468293"/>
  </clipPath>
  <clipPath id="p2083c5a279">
   <rect x="153.646719" y="337.123666" width="669.6" height="144.234146"/>
  </clipPath>
 </defs>
</svg>
