<?xml version="1.0" encoding="utf-8" standalone="no"?>
<!DOCTYPE svg PUBLIC "-//W3C//DTD SVG 1.1//EN"
  "http://www.w3.org/Graphics/SVG/1.1/DTD/svg11.dtd">
<svg xmlns:xlink="http://www.w3.org/1999/xlink" width="708.332443pt" height="420.9775pt" viewBox="0 0 708.332443 420.9775" xmlns="http://www.w3.org/2000/svg" version="1.1">
 <metadata>
  <rdf:RDF xmlns:dc="http://purl.org/dc/elements/1.1/" xmlns:cc="http://creativecommons.org/ns#" xmlns:rdf="http://www.w3.org/1999/02/22-rdf-syntax-ns#">
   <cc:Work>
    <dc:type rdf:resource="http://purl.org/dc/dcmitype/StillImage"/>
    <dc:date>2026-03-11T11:32:52.665036</dc:date>
    <dc:format>image/svg+xml</dc:format>
    <dc:creator>
     <cc:Agent>
      <dc:title>Matplotlib v3.8.4, https://matplotlib.org/</dc:title>
     </cc:Agent>
    </dc:creator>
   </cc:Work>
  </rdf:RDF>
 </metadata>
 <defs>
  <style type="text/css">*{stroke-linejoin: round; stroke-linecap: butt}</style>
 </defs>
 <g id="figure_1">
  <g id="patch_1">
   <path d="M 0 420.9775 
L 708.332443 420.9775 
L 708.332443 0 
L 0 0 
z
" style="fill: #ffffff"/>
  </g>
  <g id="axes_1">
   <g id="patch_2">
    <path d="M 51.67375 378.017812 
L 689.676788 378.017812 
L 689.676788 23.837812 
L 51.67375 23.837812 
z
" style="fill: #ffffff"/>
   </g>
   <g id="matplotlib.axis_1">
    <g id="xtick_1">
     <g id="line2d_1">
      <path d="M 51.67375 378.017812 
L 51.67375 23.837812 
" clip-path="url(#p268dfc33de)" style="fill: none; stroke: #cccccc; stroke-opacity: 0.15; stroke-linecap: round"/>
     </g>
     <g id="line2d_2">
      <defs>
       <path id="m1246963fdf" d="M 0 0 
L 0 6 
" style="stroke: #262626; stroke-width: 1.25"/>
      </defs>
      <g>
       <use xlink:href="#m1246963fdf" x="51.67375" y="378.017812" style="fill: #262626; stroke: #262626; stroke-width: 1.25"/>
      </g>
     </g>
     <g id="text_1">
      <text style="fill: #262626; font: 11px 'Arial', 'DejaVu Sans', 'Liberation Sans', 'Bitstream Vera Sans', sans-serif; text-anchor: middle" x="51.67375" y="395.876094" transform="rotate(-0 51.67375 395.876094)">1650</text>
     </g>
    </g>
    <g id="xtick_2">
     <g id="line2d_3">
      <path d="M 178.765989 378.017812 
L 178.765989 23.837812 
" clip-path="url(#p268dfc33de)" style="fill: none; stroke: #cccccc; stroke-opacity: 0.15; stroke-linecap: round"/>
     </g>
     <g id="line2d_4">
      <g>
       <use xlink:href="#m1246963fdf" x="178.765989" y="378.017812" style="fill: #262626; stroke: #262626; stroke-width: 1.25"/>
      </g>
     </g>
     <g id="text_2">
      <text style="fill: #262626; font: 11px 'Arial', 'DejaVu Sans', 'Liberation Sans', 'Bitstream Vera Sans', sans-serif; text-anchor: middle" x="178.765989" y="395.876094" transform="rotate(-0 178.765989 395.876094)">1700</text>
     </g>
    </g>
    <g id="xtick_3">
     <g id="line2d_5">
      <path d="M 305.858227 378.017812 
L 305.858227 23.837812 
" clip-path="url(#p268dfc33de)" style="fill: none; stroke: #cccccc; stroke-opacity: 0.15; stroke-linecap: round"/>
     </g>
     <g id="line2d_6">
      <g>
       <use xlink:href="#m1246963fdf" x="305.858227" y="378.017812" style="fill: #262626; stroke: #262626; stroke-width: 1.25"/>
      </g>
     </g>
     <g id="text_3">
      <text style="fill: #262626; font: 11px 'Arial', 'DejaVu Sans', 'Liberation Sans', 'Bitstream Vera Sans', sans-serif; text-anchor: middle" x="305.858227" y="395.876094" transform="rotate(-0 305.858227 395.876094)">1750</text>
     </g>
    </g>
    <g id="xtick_4">
     <g id="line2d_7">
      <path d="M 432.950466 378.017812 
L 432.950466 23.837812 
" clip-path="url(#p268dfc33de)" style="fill: none; stroke: #cccccc; stroke-opacity: 0.15; stroke-linecap: round"/>
     </g>
     <g id="line2d_8">
      <g>
       <use xlink:href="#m1246963fdf" x="432.950466" y="378.017812" style="fill: #262626; stroke: #262626; stroke-width: 1.25"/>
      </g>
     </g>
     <g id="text_4">
      <text style="fill: #262626; font: 11px 'Arial', 'DejaVu Sans', 'Liberation Sans', 'Bitstream Vera Sans', sans-serif; text-anchor: middle" x="432.950466" y="395.876094" transform="rotate(-0 432.950466 395.876094)">1800</text>
     </g>
    </g>
    <g id="xtick_5">
     <g id="line2d_9">
      <path d="M 560.042704 378.017812 
L 560.042704 23.837812 
" clip-path="url(#p268dfc33de)" style="fill: none; stroke: #cccccc; stroke-opacity: 0.15; stroke-linecap: round"/>
     </g>
     <g id="line2d_10">
      <g>
       <use xlink:href="#m1246963fdf" x="560.042704" y="378.017812" style="fill: #262626; stroke: #262626; stroke-width: 1.25"/>
      </g>
     </g>
     <g id="text_5">
      <text style="fill: #262626; font: 11px 'Arial', 'DejaVu Sans', 'Liberation Sans', 'Bitstream Vera Sans', sans-serif; text-anchor: middle" x="560.042704" y="395.876094" transform="rotate(-0 560.042704 395.876094)">1850</text>
     </g>
    </g>
    <g id="xtick_6">
     <g id="line2d_11">
      <path d="M 687.134943 378.017812 
L 687.134943 23.837812 
" clip-path="url(#p268dfc33de)" style="fill: none; stroke: #cccccc; stroke-opacity: 0.15; stroke-linecap: round"/>
     </g>
     <g id="line2d_12">
      <g>
       <use xlink:href="#m1246963fdf" x="687.134943" y="378.017812" style="fill: #262626; stroke: #262626; stroke-width: 1.25"/>
      </g>
     </g>
     <g id="text_6">
      <text style="fill: #262626; font: 11px 'Arial', 'DejaVu Sans', 'Liberation Sans', 'Bitstream Vera Sans', sans-serif; text-anchor: middle" x="687.134943" y="395.876094" transform="rotate(-0 687.134943 395.876094)">1900</text>
     </g>
    </g>
    <g id="text_7">
     <text style="fill: #262626; font: 12px 'Arial', 'DejaVu Sans', 'Liberation Sans', 'Bitstream Vera Sans', sans-serif; text-anchor: middle" x="370.675269" y="411.281875" transform="rotate(-0 370.675269 411.281875)">Year</text>
    </g>
   </g>
   <g id="matplotlib.axis_2">
    <g id="ytick_1">
     <g id="line2d_13">
      <path d="M 51.67375 361.918722 
L 689.676788 361.918722 
" clip-path="url(#p268dfc33de)" style="fill: none; stroke: #cccccc; stroke-opacity: 0.15; stroke-linecap: round"/>
     </g>
     <g id="line2d_14">
      <defs>
       <path id="m96159734a9" d="M 0 0 
L -6 0 
" style="stroke: #262626; stroke-width: 1.25"/>
      </defs>
      <g>
       <use xlink:href="#m96159734a9" x="51.67375" y="361.918722" style="fill: #262626; stroke: #262626; stroke-width: 1.25"/>
      </g>
     </g>
     <g id="text_8">
      <!-- $\mathdefault{10^{0}}$ -->
      <g style="fill: #262626" transform="translate(22.81375 366.097862)">
       <text>
        <tspan style="font: 11px 'DejaVu Sans'" x="0 6.998535" y="-0.06875000000000142">10</tspan>
        <tspan style="font: 7.7px 'DejaVu Sans'" x="14.102344" y="-4.279687500000001">0</tspan>
       </text>
      </g>
     </g>
    </g>
    <g id="ytick_2">
     <g id="line2d_15">
      <path d="M 51.67375 219.899564 
L 689.676788 219.899564 
" clip-path="url(#p268dfc33de)" style="fill: none; stroke: #cccccc; stroke-opacity: 0.15; stroke-linecap: round"/>
     </g>
     <g id="line2d_16">
      <g>
       <use xlink:href="#m96159734a9" x="51.67375" y="219.899564" style="fill: #262626; stroke: #262626; stroke-width: 1.25"/>
      </g>
     </g>
     <g id="text_9">
      <!-- $\mathdefault{10^{1}}$ -->
      <g style="fill: #262626" transform="translate(22.81375 224.078705)">
       <text>
        <tspan style="font: 11px 'DejaVu Sans'" x="0 6.998535" y="-0.17812500000000142">10</tspan>
        <tspan style="font: 7.7px 'DejaVu Sans'" x="14.102344" y="-4.389062500000001">1</tspan>
       </text>
      </g>
     </g>
    </g>
    <g id="ytick_3">
     <g id="line2d_17">
      <path d="M 51.67375 77.880407 
L 689.676788 77.880407 
" clip-path="url(#p268dfc33de)" style="fill: none; stroke: #cccccc; stroke-opacity: 0.15; stroke-linecap: round"/>
     </g>
     <g id="line2d_18">
      <g>
       <use xlink:href="#m96159734a9" x="51.67375" y="77.880407" style="fill: #262626; stroke: #262626; stroke-width: 1.25"/>
      </g>
     </g>
     <g id="text_10">
      <!-- $\mathdefault{10^{2}}$ -->
      <g style="fill: #262626" transform="translate(22.81375 82.059548)">
       <text>
        <tspan style="font: 11px 'DejaVu Sans'" x="0 6.998535" y="-0.06875000000000142">10</tspan>
        <tspan style="font: 7.7px 'DejaVu Sans'" x="14.102344" y="-4.279687500000001">2</tspan>
       </text>
      </g>
     </g>
    </g>
    <g id="ytick_4">
     <g id="line2d_19">
      <path d="M 51.67375 375.6818 
L 689.676788 375.6818 
" clip-path="url(#p268dfc33de)" style="fill: none; stroke-dasharray: 1,1.65; stroke-dashoffset: 0; stroke: #cccccc; stroke-opacity: 0.05"/>
     </g>
     <g id="line2d_20">
      <defs>
       <path id="mbe7b7b419e" d="M 0 0 
L -4 0 
" style="stroke: #262626"/>
      </defs>
      <g>
       <use xlink:href="#mbe7b7b419e" x="51.67375" y="375.6818" style="fill: #262626; stroke: #262626"/>
      </g>
     </g>
    </g>
    <g id="ytick_5">
     <g id="line2d_21">
      <path d="M 51.67375 368.417162 
L 689.676788 368.417162 
" clip-path="url(#p268dfc33de)" style="fill: none; stroke-dasharray: 1,1.65; stroke-dashoffset: 0; stroke: #cccccc; stroke-opacity: 0.05"/>
     </g>
     <g id="line2d_22">
      <g>
       <use xlink:href="#mbe7b7b419e" x="51.67375" y="368.417162" style="fill: #262626; stroke: #262626"/>
      </g>
     </g>
    </g>
    <g id="ytick_6">
     <g id="line2d_23">
      <path d="M 51.67375 319.166695 
L 689.676788 319.166695 
" clip-path="url(#p268dfc33de)" style="fill: none; stroke-dasharray: 1,1.65; stroke-dashoffset: 0; stroke: #cccccc; stroke-opacity: 0.05"/>
     </g>
     <g id="line2d_24">
      <g>
       <use xlink:href="#mbe7b7b419e" x="51.67375" y="319.166695" style="fill: #262626; stroke: #262626"/>
      </g>
     </g>
    </g>
    <g id="ytick_7">
     <g id="line2d_25">
      <path d="M 51.67375 294.158363 
L 689.676788 294.158363 
" clip-path="url(#p268dfc33de)" style="fill: none; stroke-dasharray: 1,1.65; stroke-dashoffset: 0; stroke: #cccccc; stroke-opacity: 0.05"/>
     </g>
     <g id="line2d_26">
      <g>
       <use xlink:href="#mbe7b7b419e" x="51.67375" y="294.158363" style="fill: #262626; stroke: #262626"/>
      </g>
     </g>
    </g>
    <g id="ytick_8">
     <g id="line2d_27">
      <path d="M 51.67375 276.414669 
L 689.676788 276.414669 
" clip-path="url(#p268dfc33de)" style="fill: none; stroke-dasharray: 1,1.65; stroke-dashoffset: 0; stroke: #cccccc; stroke-opacity: 0.05"/>
     </g>
     <g id="line2d_28">
      <g>
       <use xlink:href="#mbe7b7b419e" x="51.67375" y="276.414669" style="fill: #262626; stroke: #262626"/>
      </g>
     </g>
    </g>
    <g id="ytick_9">
     <g id="line2d_29">
      <path d="M 51.67375 262.651591 
L 689.676788 262.651591 
" clip-path="url(#p268dfc33de)" style="fill: none; stroke-dasharray: 1,1.65; stroke-dashoffset: 0; stroke: #cccccc; stroke-opacity: 0.05"/>
     </g>
     <g id="line2d_30">
      <g>
       <use xlink:href="#mbe7b7b419e" x="51.67375" y="262.651591" style="fill: #262626; stroke: #262626"/>
      </g>
     </g>
    </g>
    <g id="ytick_10">
     <g id="line2d_31">
      <path d="M 51.67375 251.406337 
L 689.676788 251.406337 
" clip-path="url(#p268dfc33de)" style="fill: none; stroke-dasharray: 1,1.65; stroke-dashoffset: 0; stroke: #cccccc; stroke-opacity: 0.05"/>
     </g>
     <g id="line2d_32">
      <g>
       <use xlink:href="#mbe7b7b419e" x="51.67375" y="251.406337" style="fill: #262626; stroke: #262626"/>
      </g>
     </g>
    </g>
    <g id="ytick_11">
     <g id="line2d_33">
      <path d="M 51.67375 241.89861 
L 689.676788 241.89861 
" clip-path="url(#p268dfc33de)" style="fill: none; stroke-dasharray: 1,1.65; stroke-dashoffset: 0; stroke: #cccccc; stroke-opacity: 0.05"/>
     </g>
     <g id="line2d_34">
      <g>
       <use xlink:href="#mbe7b7b419e" x="51.67375" y="241.89861" style="fill: #262626; stroke: #262626"/>
      </g>
     </g>
    </g>
    <g id="ytick_12">
     <g id="line2d_35">
      <path d="M 51.67375 233.662643 
L 689.676788 233.662643 
" clip-path="url(#p268dfc33de)" style="fill: none; stroke-dasharray: 1,1.65; stroke-dashoffset: 0; stroke: #cccccc; stroke-opacity: 0.05"/>
     </g>
     <g id="line2d_36">
      <g>
       <use xlink:href="#mbe7b7b419e" x="51.67375" y="233.662643" style="fill: #262626; stroke: #262626"/>
      </g>
     </g>
    </g>
    <g id="ytick_13">
     <g id="line2d_37">
      <path d="M 51.67375 226.398005 
L 689.676788 226.398005 
" clip-path="url(#p268dfc33de)" style="fill: none; stroke-dasharray: 1,1.65; stroke-dashoffset: 0; stroke: #cccccc; stroke-opacity: 0.05"/>
     </g>
     <g id="line2d_38">
      <g>
       <use xlink:href="#mbe7b7b419e" x="51.67375" y="226.398005" style="fill: #262626; stroke: #262626"/>
      </g>
     </g>
    </g>
    <g id="ytick_14">
     <g id="line2d_39">
      <path d="M 51.67375 177.147538 
L 689.676788 177.147538 
" clip-path="url(#p268dfc33de)" style="fill: none; stroke-dasharray: 1,1.65; stroke-dashoffset: 0; stroke: #cccccc; stroke-opacity: 0.05"/>
     </g>
     <g id="line2d_40">
      <g>
       <use xlink:href="#mbe7b7b419e" x="51.67375" y="177.147538" style="fill: #262626; stroke: #262626"/>
      </g>
     </g>
    </g>
    <g id="ytick_15">
     <g id="line2d_41">
      <path d="M 51.67375 152.139206 
L 689.676788 152.139206 
" clip-path="url(#p268dfc33de)" style="fill: none; stroke-dasharray: 1,1.65; stroke-dashoffset: 0; stroke: #cccccc; stroke-opacity: 0.05"/>
     </g>
     <g id="line2d_42">
      <g>
       <use xlink:href="#mbe7b7b419e" x="51.67375" y="152.139206" style="fill: #262626; stroke: #262626"/>
      </g>
     </g>
    </g>
    <g id="ytick_16">
     <g id="line2d_43">
      <path d="M 51.67375 134.395512 
L 689.676788 134.395512 
" clip-path="url(#p268dfc33de)" style="fill: none; stroke-dasharray: 1,1.65; stroke-dashoffset: 0; stroke: #cccccc; stroke-opacity: 0.05"/>
     </g>
     <g id="line2d_44">
      <g>
       <use xlink:href="#mbe7b7b419e" x="51.67375" y="134.395512" style="fill: #262626; stroke: #262626"/>
      </g>
     </g>
    </g>
    <g id="ytick_17">
     <g id="line2d_45">
      <path d="M 51.67375 120.632433 
L 689.676788 120.632433 
" clip-path="url(#p268dfc33de)" style="fill: none; stroke-dasharray: 1,1.65; stroke-dashoffset: 0; stroke: #cccccc; stroke-opacity: 0.05"/>
     </g>
     <g id="line2d_46">
      <g>
       <use xlink:href="#mbe7b7b419e" x="51.67375" y="120.632433" style="fill: #262626; stroke: #262626"/>
      </g>
     </g>
    </g>
    <g id="ytick_18">
     <g id="line2d_47">
      <path d="M 51.67375 109.38718 
L 689.676788 109.38718 
" clip-path="url(#p268dfc33de)" style="fill: none; stroke-dasharray: 1,1.65; stroke-dashoffset: 0; stroke: #cccccc; stroke-opacity: 0.05"/>
     </g>
     <g id="line2d_48">
      <g>
       <use xlink:href="#mbe7b7b419e" x="51.67375" y="109.38718" style="fill: #262626; stroke: #262626"/>
      </g>
     </g>
    </g>
    <g id="ytick_19">
     <g id="line2d_49">
      <path d="M 51.67375 99.879453 
L 689.676788 99.879453 
" clip-path="url(#p268dfc33de)" style="fill: none; stroke-dasharray: 1,1.65; stroke-dashoffset: 0; stroke: #cccccc; stroke-opacity: 0.05"/>
     </g>
     <g id="line2d_50">
      <g>
       <use xlink:href="#mbe7b7b419e" x="51.67375" y="99.879453" style="fill: #262626; stroke: #262626"/>
      </g>
     </g>
    </g>
    <g id="ytick_20">
     <g id="line2d_51">
      <path d="M 51.67375 91.643485 
L 689.676788 91.643485 
" clip-path="url(#p268dfc33de)" style="fill: none; stroke-dasharray: 1,1.65; stroke-dashoffset: 0; stroke: #cccccc; stroke-opacity: 0.05"/>
     </g>
     <g id="line2d_52">
      <g>
       <use xlink:href="#mbe7b7b419e" x="51.67375" y="91.643485" style="fill: #262626; stroke: #262626"/>
      </g>
     </g>
    </g>
    <g id="ytick_21">
     <g id="line2d_53">
      <path d="M 51.67375 84.378847 
L 689.676788 84.378847 
" clip-path="url(#p268dfc33de)" style="fill: none; stroke-dasharray: 1,1.65; stroke-dashoffset: 0; stroke: #cccccc; stroke-opacity: 0.05"/>
     </g>
     <g id="line2d_54">
      <g>
       <use xlink:href="#mbe7b7b419e" x="51.67375" y="84.378847" style="fill: #262626; stroke: #262626"/>
      </g>
     </g>
    </g>
    <g id="ytick_22">
     <g id="line2d_55">
      <path d="M 51.67375 35.128381 
L 689.676788 35.128381 
" clip-path="url(#p268dfc33de)" style="fill: none; stroke-dasharray: 1,1.65; stroke-dashoffset: 0; stroke: #cccccc; stroke-opacity: 0.05"/>
     </g>
     <g id="line2d_56">
      <g>
       <use xlink:href="#mbe7b7b419e" x="51.67375" y="35.128381" style="fill: #262626; stroke: #262626"/>
      </g>
     </g>
    </g>
    <g id="text_11">
     <text style="fill: #262626; font: 12px 'Arial', 'DejaVu Sans', 'Liberation Sans', 'Bitstream Vera Sans', sans-serif; text-anchor: middle" x="16.318125" y="200.927812" transform="rotate(-90 16.318125 200.927812)">Number of Records (Log Scale)</text>
    </g>
   </g>
   <g id="line2d_57">
    <path d="M 72.008508 361.918722 
L 89.801422 361.918722 
L 92.343266 319.166695 
L 112.678025 319.166695 
L 115.219869 294.158363 
L 143.180162 294.158363 
L 145.722007 319.166695 
L 153.347541 319.166695 
L 155.889386 294.158363 
L 163.51492 294.158363 
L 166.056765 319.166695 
L 168.598609 319.166695 
L 171.140454 294.158363 
L 173.682299 294.158363 
L 176.224144 319.166695 
L 178.765989 294.158363 
L 181.307833 319.166695 
L 183.849678 294.158363 
L 186.391523 319.166695 
L 191.475212 319.166695 
L 194.017057 294.158363 
L 199.100747 294.158363 
L 201.642592 183.645978 
L 204.184436 262.651591 
L 211.809971 262.651591 
L 214.351815 276.414669 
L 219.435505 276.414669 
L 221.97735 262.651591 
L 224.519194 251.406337 
L 227.061039 251.406337 
L 229.602884 233.662643 
L 232.144729 233.662643 
L 234.686574 226.398005 
L 239.770263 226.398005 
L 242.312108 214.02101 
L 244.853953 208.654311 
L 247.395797 214.02101 
L 249.937642 199.146584 
L 252.479487 199.146584 
L 255.021332 203.717425 
L 257.563176 226.398005 
L 260.105021 219.899564 
L 270.2724 219.899564 
L 272.814245 214.02101 
L 275.35609 208.654311 
L 280.439779 208.654311 
L 282.981624 199.146584 
L 285.523469 203.717425 
L 288.065314 199.146584 
L 290.607159 203.717425 
L 295.690848 203.717425 
L 298.232693 208.654311 
L 300.774538 208.654311 
L 303.316382 214.02101 
L 305.858227 214.02101 
L 308.400072 203.717425 
L 310.941917 203.717425 
L 313.483761 194.891232 
L 316.025606 194.891232 
L 318.567451 187.171403 
L 321.109296 183.645978 
L 326.192985 183.645978 
L 328.73483 180.311213 
L 331.276675 168.527282 
L 333.81852 160.965399 
L 338.902209 156.394558 
L 341.444054 156.394558 
L 343.985899 160.965399 
L 346.527743 156.394558 
L 351.611433 152.139206 
L 354.153278 150.116791 
L 356.695123 154.23019 
L 359.236967 154.23019 
L 361.778812 152.139206 
L 364.320657 154.23019 
L 366.862502 158.637646 
L 371.946191 154.23019 
L 374.488036 146.260652 
L 379.571726 142.631479 
L 382.11357 142.631479 
L 384.655415 119.411044 
L 387.19726 107.364764 
L 389.739105 104.450295 
L 392.280949 103.508625 
L 394.822794 103.508625 
L 397.364639 104.450295 
L 399.906484 107.364764 
L 402.448328 108.367683 
L 404.990173 113.642531 
L 407.532018 114.753879 
L 410.073863 117.038516 
L 412.615708 121.878499 
L 415.157552 144.419376 
L 417.699397 142.631479 
L 422.783087 142.631479 
L 425.324931 140.893952 
L 427.866776 142.631479 
L 430.408621 142.631479 
L 432.950466 137.559187 
L 435.49231 139.204034 
L 438.034155 139.204034 
L 440.576 135.957067 
L 443.117845 137.559187 
L 445.65969 135.957067 
L 448.201534 135.957067 
L 450.743379 132.872517 
L 453.285224 131.386225 
L 458.368913 134.395512 
L 460.910758 134.395512 
L 463.452603 129.934908 
L 465.994448 127.130874 
L 468.536293 127.130874 
L 473.619982 121.878499 
L 476.161827 124.448793 
L 481.245516 127.130874 
L 483.787361 124.448793 
L 491.412895 124.448793 
L 493.95474 121.878499 
L 496.496585 121.878499 
L 499.03843 115.88562 
L 501.580275 113.642531 
L 504.122119 117.038516 
L 509.205809 114.753879 
L 511.747654 115.88562 
L 514.289498 120.632433 
L 516.831343 127.130874 
L 524.456877 123.150258 
L 526.998722 120.632433 
L 532.082412 118.213373 
L 534.624257 119.411044 
L 537.166101 121.878499 
L 539.707946 123.150258 
L 542.249791 119.411044 
L 544.791636 117.038516 
L 549.875325 119.411044 
L 552.41717 123.150258 
L 554.959015 124.448793 
L 557.50086 123.150258 
L 560.042704 119.411044 
L 562.584549 115.88562 
L 565.126394 114.753879 
L 567.668239 118.213373 
L 570.210083 119.411044 
L 572.751928 118.213373 
L 575.293773 119.411044 
L 577.835618 118.213373 
L 580.377462 111.478164 
L 582.919307 110.423811 
L 585.461152 103.508625 
L 588.002997 83.697314 
L 590.544842 79.759074 
L 593.086686 81.696767 
L 595.628531 90.877288 
L 600.712221 95.624101 
L 603.254065 96.452008 
L 605.79591 90.120491 
L 608.337755 93.205041 
L 610.8796 90.120491 
L 613.421445 90.877288 
L 615.963289 83.023229 
L 618.505134 79.126472 
L 621.046979 77.880407 
L 623.588824 77.266689 
L 626.130668 119.411044 
L 628.672513 115.88562 
L 631.214358 113.642531 
L 633.756203 109.38718 
L 636.298047 108.367683 
L 638.839892 109.38718 
L 641.381737 109.38718 
L 643.923582 106.377893 
L 646.465427 107.364764 
L 649.007271 106.377893 
L 651.549116 101.66735 
L 654.090961 100.766923 
L 656.632806 100.766923 
L 659.17465 99.879453 
L 661.716495 99.879453 
L 664.25834 97.291179 
L 666.800185 97.291179 
L 669.342029 96.452008 
L 671.883874 96.452008 
L 674.425719 94.80716 
L 676.967564 94.000899 
L 679.509409 94.80716 
L 684.593098 94.80716 
L 687.134943 95.624101 
L 689.676788 95.624101 
L 689.676788 95.624101 
" clip-path="url(#p268dfc33de)" style="fill: none; stroke: #d62728; stroke-opacity: 0.9; stroke-width: 2; stroke-linecap: round"/>
   </g>
   <g id="line2d_58">
    <path d="M 92.343266 361.918722 
L 99.968801 361.918722 
L 102.510645 319.166695 
L 135.554627 319.166695 
L 138.096472 294.158363 
L 140.638317 319.166695 
L 143.180162 319.166695 
L 145.722007 361.918722 
L 153.347541 361.918722 
L 155.889386 294.158363 
L 163.51492 294.158363 
L 166.056765 319.166695 
L 168.598609 319.166695 
L 171.140454 276.414669 
L 173.682299 294.158363 
L 176.224144 319.166695 
L 178.765989 294.158363 
L 181.307833 319.166695 
L 183.849678 276.414669 
L 186.391523 319.166695 
L 188.933368 319.166695 
L 191.475212 294.158363 
L 196.558902 294.158363 
L 199.100747 251.406337 
L 201.642592 233.662643 
L 204.184436 251.406337 
L 219.435505 251.406337 
L 221.97735 233.662643 
L 227.061039 233.662643 
L 229.602884 219.899564 
L 232.144729 214.02101 
L 234.686574 208.654311 
L 239.770263 208.654311 
L 242.312108 194.891232 
L 244.853953 190.910616 
L 247.395797 194.891232 
L 249.937642 190.910616 
L 252.479487 190.910616 
L 255.021332 194.891232 
L 257.563176 203.717425 
L 262.646866 203.717425 
L 265.188711 208.654311 
L 267.730556 203.717425 
L 272.814245 203.717425 
L 275.35609 194.891232 
L 282.981624 194.891232 
L 285.523469 199.146584 
L 288.065314 194.891232 
L 290.607159 199.146584 
L 300.774538 199.146584 
L 303.316382 194.891232 
L 305.858227 194.891232 
L 308.400072 190.910616 
L 310.941917 194.891232 
L 313.483761 190.910616 
L 316.025606 190.910616 
L 318.567451 180.311213 
L 321.109296 180.311213 
L 323.651141 183.645978 
L 328.73483 183.645978 
L 331.276675 177.147538 
L 333.81852 171.268984 
L 336.360364 168.527282 
L 338.902209 160.965399 
L 341.444054 160.965399 
L 343.985899 163.38446 
L 346.527743 163.38446 
L 349.069588 160.965399 
L 351.611433 156.394558 
L 354.153278 154.23019 
L 356.695123 156.394558 
L 361.778812 156.394558 
L 364.320657 160.965399 
L 369.404346 165.902284 
L 371.946191 163.38446 
L 374.488036 158.637646 
L 377.029881 150.116791 
L 379.571726 148.15859 
L 382.11357 148.15859 
L 384.655415 123.150258 
L 387.19726 109.38718 
L 389.739105 106.377893 
L 392.280949 106.377893 
L 394.822794 107.364764 
L 397.364639 109.38718 
L 399.906484 112.550854 
L 402.448328 113.642531 
L 404.990173 119.411044 
L 407.532018 119.411044 
L 410.073863 123.150258 
L 412.615708 127.130874 
L 415.157552 150.116791 
L 417.699397 148.15859 
L 420.241242 150.116791 
L 425.324931 146.260652 
L 427.866776 150.116791 
L 430.408621 150.116791 
L 432.950466 148.15859 
L 438.034155 148.15859 
L 440.576 146.260652 
L 443.117845 148.15859 
L 445.65969 144.419376 
L 448.201534 144.419376 
L 450.743379 140.893952 
L 453.285224 140.893952 
L 455.827069 142.631479 
L 458.368913 142.631479 
L 460.910758 140.893952 
L 463.452603 137.559187 
L 465.994448 135.957067 
L 468.536293 135.957067 
L 471.078137 132.872517 
L 473.619982 123.150258 
L 476.161827 127.130874 
L 478.703672 129.934908 
L 481.245516 131.386225 
L 483.787361 125.775256 
L 486.329206 128.516958 
L 488.871051 128.516958 
L 491.412895 127.130874 
L 496.496585 127.130874 
L 499.03843 119.411044 
L 501.580275 118.213373 
L 504.122119 120.632433 
L 506.663964 118.213373 
L 509.205809 117.038516 
L 511.747654 121.878499 
L 514.289498 127.130874 
L 516.831343 134.395512 
L 519.373188 132.872517 
L 521.915033 132.872517 
L 524.456877 128.516958 
L 526.998722 125.775256 
L 529.540567 124.448793 
L 532.082412 124.448793 
L 537.166101 121.878499 
L 539.707946 123.150258 
L 542.249791 120.632433 
L 544.791636 120.632433 
L 547.33348 121.878499 
L 549.875325 121.878499 
L 552.41717 125.775256 
L 554.959015 128.516958 
L 557.50086 128.516958 
L 560.042704 102.581117 
L 562.584549 100.766923 
L 565.126394 96.452008 
L 567.668239 98.141926 
L 570.210083 98.141926 
L 572.751928 99.879453 
L 575.293773 99.004571 
L 577.835618 97.291179 
L 580.377462 96.452008 
L 582.919307 97.291179 
L 585.461152 91.643485 
L 588.002997 70.342251 
L 590.544842 66.635153 
L 593.086686 67.671785 
L 595.628531 73.133594 
L 598.170376 74.871121 
L 600.712221 74.286489 
L 603.254065 74.286489 
L 605.79591 65.615657 
L 608.337755 62.654538 
L 610.8796 60.291101 
L 613.421445 59.829091 
L 615.963289 58.014897 
L 618.505134 54.963059 
L 621.046979 50.84966 
L 623.588824 50.453014 
L 626.130668 72.565127 
L 628.672513 73.133594 
L 633.756203 69.798828 
L 636.298047 67.671785 
L 641.381737 84.378847 
L 643.923582 84.378847 
L 646.465427 85.764931 
L 651.549116 84.378847 
L 654.090961 87.182882 
L 656.632806 87.182882 
L 659.17465 86.469832 
L 661.716495 87.904272 
L 666.800185 87.904272 
L 671.883874 89.372868 
L 674.425719 89.372868 
L 676.967564 88.634199 
L 679.509409 89.372868 
L 682.051253 88.634199 
L 689.676788 88.634199 
L 689.676788 88.634199 
" clip-path="url(#p268dfc33de)" style="fill: none; stroke: #9467bd; stroke-opacity: 0.9; stroke-width: 2; stroke-linecap: round"/>
   </g>
   <g id="line2d_59">
    <path d="M 92.343266 361.918722 
L 105.05249 361.918722 
L 107.594335 319.166695 
L 115.219869 319.166695 
L 117.761714 361.918722 
L 178.765989 361.918722 
L 183.849678 319.166695 
L 191.475212 361.918722 
L 196.558902 361.918722 
L 199.100747 319.166695 
L 201.642592 361.918722 
L 219.435505 361.918722 
L 224.519194 276.414669 
L 227.061039 276.414669 
L 229.602884 262.651591 
L 232.144729 251.406337 
L 239.770263 251.406337 
L 242.312108 233.662643 
L 244.853953 226.398005 
L 247.395797 233.662643 
L 249.937642 226.398005 
L 252.479487 241.89861 
L 255.021332 251.406337 
L 257.563176 276.414669 
L 260.105021 262.651591 
L 272.814245 262.651591 
L 275.35609 251.406337 
L 280.439779 251.406337 
L 282.981624 233.662643 
L 285.523469 241.89861 
L 288.065314 241.89861 
L 290.607159 251.406337 
L 295.690848 251.406337 
L 298.232693 262.651591 
L 300.774538 262.651591 
L 303.316382 276.414669 
L 318.567451 276.414669 
L 321.109296 294.158363 
L 326.192985 294.158363 
L 328.73483 319.166695 
L 331.276675 294.158363 
L 333.81852 294.158363 
L 336.360364 262.651591 
L 338.902209 251.406337 
L 341.444054 251.406337 
L 343.985899 262.651591 
L 346.527743 262.651591 
L 349.069588 251.406337 
L 351.611433 241.89861 
L 354.153278 251.406337 
L 356.695123 241.89861 
L 359.236967 233.662643 
L 364.320657 233.662643 
L 366.862502 241.89861 
L 369.404346 233.662643 
L 374.488036 233.662643 
L 377.029881 226.398005 
L 382.11357 226.398005 
L 384.655415 165.902284 
L 387.19726 146.260652 
L 389.739105 144.419376 
L 392.280949 140.893952 
L 394.822794 150.116791 
L 397.364639 150.116791 
L 399.906484 154.23019 
L 402.448328 160.965399 
L 404.990173 177.147538 
L 407.532018 174.138252 
L 410.073863 177.147538 
L 412.615708 187.171403 
L 415.157552 251.406337 
L 417.699397 262.651591 
L 420.241242 262.651591 
L 422.783087 251.406337 
L 425.324931 251.406337 
L 427.866776 262.651591 
L 430.408621 251.406337 
L 432.950466 241.89861 
L 435.49231 262.651591 
L 438.034155 241.89861 
L 440.576 226.398005 
L 443.117845 233.662643 
L 450.743379 233.662643 
L 453.285224 241.89861 
L 455.827069 251.406337 
L 460.910758 251.406337 
L 463.452603 241.89861 
L 468.536293 241.89861 
L 471.078137 233.662643 
L 473.619982 219.899564 
L 481.245516 219.899564 
L 483.787361 208.654311 
L 486.329206 214.02101 
L 493.95474 214.02101 
L 496.496585 219.899564 
L 499.03843 226.398005 
L 501.580275 219.899564 
L 504.122119 226.398005 
L 506.663964 226.398005 
L 509.205809 219.899564 
L 511.747654 233.662643 
L 514.289498 233.662643 
L 516.831343 241.89861 
L 519.373188 251.406337 
L 521.915033 262.651591 
L 524.456877 251.406337 
L 526.998722 251.406337 
L 529.540567 241.89861 
L 532.082412 251.406337 
L 534.624257 251.406337 
L 537.166101 262.651591 
L 539.707946 276.414669 
L 547.33348 276.414669 
L 549.875325 294.158363 
L 552.41717 319.166695 
L 554.959015 262.651591 
L 560.042704 262.651591 
L 562.584549 241.89861 
L 565.126394 233.662643 
L 567.668239 241.89861 
L 570.210083 233.662643 
L 585.461152 233.662643 
L 588.002997 241.89861 
L 590.544842 251.406337 
L 603.254065 251.406337 
L 605.79591 262.651591 
L 613.421445 262.651591 
L 615.963289 251.406337 
L 631.214358 251.406337 
L 633.756203 241.89861 
L 636.298047 219.899564 
L 638.839892 219.899564 
L 641.381737 203.717425 
L 643.923582 203.717425 
L 646.465427 219.899564 
L 659.17465 219.899564 
L 661.716495 233.662643 
L 669.342029 233.662643 
L 671.883874 241.89861 
L 689.676788 241.89861 
L 689.676788 241.89861 
" clip-path="url(#p268dfc33de)" style="fill: none; stroke: #1f77b4; stroke-opacity: 0.9; stroke-width: 2; stroke-linecap: round"/>
   </g>
   <g id="line2d_60">
    <path d="M 89.801422 361.918722 
L 168.598609 361.918722 
L 171.140454 319.166695 
L 173.682299 361.918722 
L 196.558902 361.918722 
L 199.100747 294.158363 
L 201.642592 294.158363 
L 204.184436 319.166695 
L 211.809971 319.166695 
L 214.351815 361.918722 
L 216.89366 319.166695 
L 219.435505 319.166695 
L 221.97735 294.158363 
L 232.144729 294.158363 
L 234.686574 319.166695 
L 247.395797 319.166695 
L 249.937642 276.414669 
L 252.479487 276.414669 
L 255.021332 294.158363 
L 257.563176 319.166695 
L 265.188711 319.166695 
L 267.730556 294.158363 
L 272.814245 294.158363 
L 275.35609 276.414669 
L 280.439779 276.414669 
L 282.981624 251.406337 
L 285.523469 251.406337 
L 288.065314 262.651591 
L 295.690848 262.651591 
L 298.232693 276.414669 
L 300.774538 276.414669 
L 303.316382 294.158363 
L 326.192985 294.158363 
L 328.73483 319.166695 
L 331.276675 319.166695 
L 333.81852 294.158363 
L 346.527743 294.158363 
L 349.069588 319.166695 
L 371.946191 319.166695 
L 374.488036 294.158363 
L 377.029881 262.651591 
L 382.11357 262.651591 
L 384.655415 203.717425 
L 387.19726 190.910616 
L 389.739105 180.311213 
L 392.280949 177.147538 
L 394.822794 180.311213 
L 397.364639 177.147538 
L 399.906484 208.654311 
L 404.990173 208.654311 
L 407.532018 219.899564 
L 410.073863 226.398005 
L 412.615708 233.662643 
L 415.157552 294.158363 
L 422.783087 294.158363 
L 425.324931 276.414669 
L 430.408621 276.414669 
L 432.950466 262.651591 
L 435.49231 262.651591 
L 438.034155 251.406337 
L 440.576 251.406337 
L 443.117845 241.89861 
L 463.452603 241.89861 
L 465.994448 233.662643 
L 473.619982 233.662643 
L 476.161827 226.398005 
L 478.703672 226.398005 
L 481.245516 219.899564 
L 483.787361 214.02101 
L 488.871051 214.02101 
L 491.412895 219.899564 
L 499.03843 219.899564 
L 501.580275 214.02101 
L 504.122119 214.02101 
L 506.663964 208.654311 
L 514.289498 208.654311 
L 516.831343 203.717425 
L 521.915033 203.717425 
L 524.456877 194.891232 
L 526.998722 194.891232 
L 529.540567 190.910616 
L 532.082412 194.891232 
L 534.624257 190.910616 
L 549.875325 190.910616 
L 552.41717 187.171403 
L 554.959015 190.910616 
L 557.50086 187.171403 
L 560.042704 180.311213 
L 562.584549 177.147538 
L 565.126394 168.527282 
L 567.668239 174.138252 
L 575.293773 174.138252 
L 577.835618 171.268984 
L 580.377462 165.902284 
L 582.919307 165.902284 
L 585.461152 160.965399 
L 588.002997 139.204034 
L 590.544842 113.642531 
L 593.086686 110.423811 
L 595.628531 115.88562 
L 598.170376 119.411044 
L 600.712221 120.632433 
L 603.254065 117.038516 
L 605.79591 112.550854 
L 608.337755 111.478164 
L 610.8796 107.364764 
L 613.421445 106.377893 
L 615.963289 96.452008 
L 618.505134 95.624101 
L 621.046979 90.120491 
L 623.588824 87.182882 
L 626.130668 117.038516 
L 628.672513 113.642531 
L 631.214358 108.367683 
L 633.756203 97.291179 
L 636.298047 91.643485 
L 638.839892 67.151291 
L 641.381737 61.698268 
L 646.465427 55.389899 
L 649.007271 52.872075 
L 651.549116 48.891459 
L 654.090961 46.250402 
L 656.632806 43.364348 
L 659.17465 42.315969 
L 661.716495 42.315969 
L 664.25834 41.970433 
L 684.593098 41.970433 
L 687.134943 41.626821 
L 689.676788 39.936903 
L 689.676788 39.936903 
" clip-path="url(#p268dfc33de)" style="fill: none; stroke: #2ca02c; stroke-opacity: 0.9; stroke-width: 2; stroke-linecap: round"/>
   </g>
   <g id="line2d_61">
    <path d="M 115.219869 361.918722 
L 336.360364 361.918722 
L 338.902209 319.166695 
L 346.527743 319.166695 
L 349.069588 294.158363 
L 364.320657 294.158363 
L 366.862502 276.414669 
L 394.822794 276.414669 
L 397.364639 262.651591 
L 438.034155 262.651591 
L 440.576 251.406337 
L 448.201534 251.406337 
L 450.743379 262.651591 
L 496.496585 262.651591 
L 499.03843 241.89861 
L 501.580275 241.89861 
L 504.122119 233.662643 
L 509.205809 233.662643 
L 511.747654 226.398005 
L 516.831343 226.398005 
L 519.373188 219.899564 
L 521.915033 219.899564 
L 524.456877 203.717425 
L 526.998722 208.654311 
L 532.082412 208.654311 
L 534.624257 203.717425 
L 537.166101 199.146584 
L 539.707946 199.146584 
L 542.249791 194.891232 
L 544.791636 194.891232 
L 547.33348 190.910616 
L 554.959015 190.910616 
L 557.50086 187.171403 
L 560.042704 152.139206 
L 562.584549 142.631479 
L 565.126394 152.139206 
L 567.668239 171.268984 
L 570.210083 171.268984 
L 572.751928 177.147538 
L 575.293773 177.147538 
L 577.835618 174.138252 
L 580.377462 180.311213 
L 582.919307 183.645978 
L 585.461152 180.311213 
L 588.002997 174.138252 
L 590.544842 174.138252 
L 593.086686 171.268984 
L 595.628531 180.311213 
L 598.170376 194.891232 
L 610.8796 194.891232 
L 613.421445 190.910616 
L 615.963289 117.038516 
L 618.505134 115.88562 
L 621.046979 115.88562 
L 623.588824 117.038516 
L 626.130668 183.645978 
L 633.756203 183.645978 
L 638.839892 177.147538 
L 641.381737 168.527282 
L 643.923582 165.902284 
L 646.465427 168.527282 
L 649.007271 165.902284 
L 661.716495 165.902284 
L 664.25834 168.527282 
L 666.800185 163.38446 
L 669.342029 165.902284 
L 674.425719 165.902284 
L 676.967564 163.38446 
L 679.509409 165.902284 
L 684.593098 165.902284 
L 687.134943 168.527282 
L 689.676788 168.527282 
L 689.676788 168.527282 
" clip-path="url(#p268dfc33de)" style="fill: none; stroke: #ff7f0e; stroke-opacity: 0.9; stroke-width: 2; stroke-linecap: round"/>
   </g>
   <g id="line2d_62">
    <path d="M 115.219869 361.918722 
L 336.360364 361.918722 
L 338.902209 319.166695 
L 346.527743 319.166695 
L 349.069588 294.158363 
L 364.320657 294.158363 
L 366.862502 276.414669 
L 394.822794 276.414669 
L 397.364639 262.651591 
L 438.034155 262.651591 
L 440.576 251.406337 
L 448.201534 251.406337 
L 450.743379 262.651591 
L 493.95474 262.651591 
L 496.496585 251.406337 
L 499.03843 241.89861 
L 501.580275 233.662643 
L 504.122119 226.398005 
L 506.663964 233.662643 
L 509.205809 233.662643 
L 511.747654 226.398005 
L 514.289498 226.398005 
L 516.831343 219.899564 
L 519.373188 214.02101 
L 521.915033 214.02101 
L 524.456877 199.146584 
L 526.998722 203.717425 
L 532.082412 203.717425 
L 534.624257 199.146584 
L 537.166101 194.891232 
L 539.707946 194.891232 
L 542.249791 190.910616 
L 544.791636 187.171403 
L 552.41717 187.171403 
L 554.959015 190.910616 
L 557.50086 183.645978 
L 560.042704 150.116791 
L 562.584549 140.893952 
L 565.126394 146.260652 
L 567.668239 168.527282 
L 570.210083 168.527282 
L 572.751928 174.138252 
L 575.293773 174.138252 
L 577.835618 171.268984 
L 580.377462 177.147538 
L 582.919307 180.311213 
L 585.461152 177.147538 
L 588.002997 171.268984 
L 590.544842 171.268984 
L 593.086686 168.527282 
L 595.628531 180.311213 
L 598.170376 190.910616 
L 613.421445 190.910616 
L 615.963289 117.038516 
L 618.505134 115.88562 
L 621.046979 115.88562 
L 623.588824 117.038516 
L 626.130668 183.645978 
L 633.756203 183.645978 
L 638.839892 177.147538 
L 641.381737 168.527282 
L 643.923582 165.902284 
L 646.465427 168.527282 
L 649.007271 165.902284 
L 661.716495 165.902284 
L 664.25834 168.527282 
L 666.800185 163.38446 
L 669.342029 165.902284 
L 674.425719 165.902284 
L 676.967564 163.38446 
L 679.509409 165.902284 
L 684.593098 165.902284 
L 687.134943 168.527282 
L 689.676788 168.527282 
L 689.676788 168.527282 
" clip-path="url(#p268dfc33de)" style="fill: none; stroke: #ffbb78; stroke-opacity: 0.9; stroke-width: 2; stroke-linecap: round"/>
   </g>
   <g id="line2d_63">
    <path d="M 402.448328 361.918722 
L 404.990173 361.918722 
L 450.743379 361.918722 
L 453.285224 361.918722 
L 455.827069 361.918722 
L 458.368913 361.918722 
L 460.910758 361.918722 
L 463.452603 361.918722 
L 465.994448 361.918722 
L 468.536293 361.918722 
L 471.078137 361.918722 
L 473.619982 319.166695 
L 476.161827 319.166695 
L 478.703672 319.166695 
L 481.245516 294.158363 
L 483.787361 294.158363 
L 486.329206 294.158363 
L 488.871051 294.158363 
L 491.412895 294.158363 
L 493.95474 294.158363 
L 496.496585 276.414669 
L 499.03843 294.158363 
L 501.580275 294.158363 
L 504.122119 294.158363 
L 506.663964 294.158363 
L 509.205809 276.414669 
L 511.747654 276.414669 
L 514.289498 294.158363 
L 516.831343 319.166695 
L 519.373188 319.166695 
L 521.915033 319.166695 
L 524.456877 319.166695 
L 526.998722 361.918722 
L 529.540567 361.918722 
L 532.082412 361.918722 
L 534.624257 361.918722 
L 537.166101 361.918722 
L 539.707946 361.918722 
L 542.249791 361.918722 
L 544.791636 361.918722 
L 547.33348 361.918722 
L 549.875325 361.918722 
L 552.41717 361.918722 
L 554.959015 361.918722 
L 557.50086 361.918722 
L 560.042704 276.414669 
L 562.584549 276.414669 
L 565.126394 251.406337 
L 567.668239 251.406337 
L 570.210083 241.89861 
L 572.751928 241.89861 
L 575.293773 241.89861 
L 577.835618 262.651591 
L 580.377462 262.651591 
L 582.919307 262.651591 
L 585.461152 262.651591 
L 588.002997 262.651591 
L 590.544842 262.651591 
L 593.086686 262.651591 
L 595.628531 262.651591 
L 598.170376 262.651591 
L 600.712221 251.406337 
L 603.254065 262.651591 
L 605.79591 251.406337 
L 608.337755 262.651591 
L 610.8796 262.651591 
L 613.421445 262.651591 
L 615.963289 262.651591 
L 618.505134 262.651591 
L 621.046979 262.651591 
L 623.588824 262.651591 
L 626.130668 262.651591 
L 628.672513 262.651591 
L 631.214358 262.651591 
L 633.756203 262.651591 
L 636.298047 262.651591 
L 638.839892 262.651591 
L 641.381737 262.651591 
L 643.923582 251.406337 
L 646.465427 251.406337 
L 649.007271 251.406337 
L 651.549116 251.406337 
L 654.090961 251.406337 
L 656.632806 251.406337 
L 659.17465 251.406337 
L 661.716495 251.406337 
L 664.25834 251.406337 
L 666.800185 251.406337 
L 669.342029 251.406337 
L 671.883874 251.406337 
L 674.425719 251.406337 
L 676.967564 241.89861 
L 679.509409 241.89861 
L 682.051253 241.89861 
L 684.593098 241.89861 
L 687.134943 241.89861 
L 689.676788 241.89861 
" clip-path="url(#p268dfc33de)" style="fill: none; stroke: #17becf; stroke-opacity: 0.9; stroke-width: 2; stroke-linecap: round"/>
   </g>
   <g id="patch_3">
    <path d="M 51.67375 378.017812 
L 51.67375 23.837812 
" style="fill: none; stroke: #262626; stroke-width: 1.25; stroke-linejoin: miter; stroke-linecap: square"/>
   </g>
   <g id="patch_4">
    <path d="M 51.67375 378.017812 
L 689.676788 378.017812 
" style="fill: none; stroke: #262626; stroke-width: 1.25; stroke-linejoin: miter; stroke-linecap: square"/>
   </g>
   <g id="text_12">
    <text style="fill: #262626; font: 700 14px 'Arial', 'DejaVu Sans', 'Liberation Sans', 'Bitstream Vera Sans', sans-serif; text-anchor: start" x="51.67375" y="17.837812" transform="rotate(-0 51.67375 17.837812)">Evolution of Available Records</text>
   </g>
   <g id="legend_1">
    <g id="line2d_64">
     <path d="M 61.57375 38.246094 
L 72.57375 38.246094 
L 83.57375 38.246094 
" style="fill: none; stroke: #d62728; stroke-opacity: 0.9; stroke-width: 2; stroke-linecap: round"/>
    </g>
    <g id="text_13">
     <text style="fill: #262626; font: 11px 'Arial', 'DejaVu Sans', 'Liberation Sans', 'Bitstream Vera Sans', sans-serif; text-anchor: start" x="92.37375" y="42.096094" transform="rotate(-0 92.37375 42.096094)">Temperature</text>
    </g>
    <g id="line2d_65">
     <path d="M 61.57375 54.392031 
L 72.57375 54.392031 
L 83.57375 54.392031 
" style="fill: none; stroke: #9467bd; stroke-opacity: 0.9; stroke-width: 2; stroke-linecap: round"/>
    </g>
    <g id="text_14">
     <text style="fill: #262626; font: 11px 'Arial', 'DejaVu Sans', 'Liberation Sans', 'Bitstream Vera Sans', sans-serif; text-anchor: start" x="92.37375" y="58.242031" transform="rotate(-0 92.37375 58.242031)">Pressure</text>
    </g>
    <g id="line2d_66">
     <path d="M 61.57375 70.537969 
L 72.57375 70.537969 
L 83.57375 70.537969 
" style="fill: none; stroke: #1f77b4; stroke-opacity: 0.9; stroke-width: 2; stroke-linecap: round"/>
    </g>
    <g id="text_15">
     <text style="fill: #262626; font: 11px 'Arial', 'DejaVu Sans', 'Liberation Sans', 'Bitstream Vera Sans', sans-serif; text-anchor: start" x="92.37375" y="74.387969" transform="rotate(-0 92.37375 74.387969)">Wind Direction</text>
    </g>
    <g id="line2d_67">
     <path d="M 61.57375 86.683906 
L 72.57375 86.683906 
L 83.57375 86.683906 
" style="fill: none; stroke: #2ca02c; stroke-opacity: 0.9; stroke-width: 2; stroke-linecap: round"/>
    </g>
    <g id="text_16">
     <text style="fill: #262626; font: 11px 'Arial', 'DejaVu Sans', 'Liberation Sans', 'Bitstream Vera Sans', sans-serif; text-anchor: start" x="92.37375" y="90.533906" transform="rotate(-0 92.37375 90.533906)">Precipitation</text>
    </g>
    <g id="line2d_68">
     <path d="M 61.57375 102.829844 
L 72.57375 102.829844 
L 83.57375 102.829844 
" style="fill: none; stroke: #ff7f0e; stroke-opacity: 0.9; stroke-width: 2; stroke-linecap: round"/>
    </g>
    <g id="text_17">
     <text style="fill: #262626; font: 11px 'Arial', 'DejaVu Sans', 'Liberation Sans', 'Bitstream Vera Sans', sans-serif; text-anchor: start" x="92.37375" y="106.679844" transform="rotate(-0 92.37375 106.679844)">Maximum Temperature</text>
    </g>
    <g id="line2d_69">
     <path d="M 61.57375 118.975781 
L 72.57375 118.975781 
L 83.57375 118.975781 
" style="fill: none; stroke: #ffbb78; stroke-opacity: 0.9; stroke-width: 2; stroke-linecap: round"/>
    </g>
    <g id="text_18">
     <text style="fill: #262626; font: 11px 'Arial', 'DejaVu Sans', 'Liberation Sans', 'Bitstream Vera Sans', sans-serif; text-anchor: start" x="92.37375" y="122.825781" transform="rotate(-0 92.37375 122.825781)">Minimum Temperature</text>
    </g>
    <g id="line2d_70">
     <path d="M 61.57375 135.121719 
L 72.57375 135.121719 
L 83.57375 135.121719 
" style="fill: none; stroke: #17becf; stroke-opacity: 0.9; stroke-width: 2; stroke-linecap: round"/>
    </g>
    <g id="text_19">
     <text style="fill: #262626; font: 11px 'Arial', 'DejaVu Sans', 'Liberation Sans', 'Bitstream Vera Sans', sans-serif; text-anchor: start" x="92.37375" y="138.971719" transform="rotate(-0 92.37375 138.971719)">Relative Humidity</text>
    </g>
   </g>
  </g>
 </g>
 <defs>
  <clipPath id="p268dfc33de">
   <rect x="51.67375" y="23.837812" width="638.003038" height="354.18"/>
  </clipPath>
 </defs>
</svg>
