<?xml version="1.0" encoding="utf-8" standalone="no"?>
<!DOCTYPE svg PUBLIC "-//W3C//DTD SVG 1.1//EN"
  "http://www.w3.org/Graphics/SVG/1.1/DTD/svg11.dtd">
<svg xmlns:xlink="http://www.w3.org/1999/xlink" width="708.332443pt" height="420.9775pt" viewBox="0 0 708.332443 420.9775" xmlns="http://www.w3.org/2000/svg" version="1.1">
 <metadata>
  <rdf:RDF xmlns:dc="http://purl.org/dc/elements/1.1/" xmlns:cc="http://creativecommons.org/ns#" xmlns:rdf="http://www.w3.org/1999/02/22-rdf-syntax-ns#">
   <cc:Work>
    <dc:type rdf:resource="http://purl.org/dc/dcmitype/StillImage"/>
    <dc:date>2026-03-16T17:47:52.789342</dc:date>
    <dc:format>image/svg+xml</dc:format>
    <dc:creator>
     <cc:Agent>
      <dc:title>Matplotlib v3.8.4, https://matplotlib.org/</dc:title>
     </cc:Agent>
    </dc:creator>
   </cc:Work>
  </rdf:RDF>
 </metadata>
 <defs>
  <style type="text/css">*{stroke-linejoin: round; stroke-linecap: butt}</style>
 </defs>
 <g id="figure_1">
  <g id="patch_1">
   <path d="M 0 420.9775 
L 708.332443 420.9775 
L 708.332443 0 
L 0 0 
z
" style="fill: #ffffff"/>
  </g>
  <g id="axes_1">
   <g id="patch_2">
    <path d="M 51.67375 378.017812 
L 689.676788 378.017812 
L 689.676788 23.837812 
L 51.67375 23.837812 
z
" style="fill: #ffffff"/>
   </g>
   <g id="matplotlib.axis_1">
    <g id="xtick_1">
     <g id="line2d_1">
      <path d="M 51.67375 378.017812 
L 51.67375 23.837812 
" clip-path="url(#p055f62710a)" style="fill: none; stroke: #cccccc; stroke-opacity: 0.15; stroke-linecap: round"/>
     </g>
     <g id="line2d_2">
      <defs>
       <path id="m971f19cf45" d="M 0 0 
L 0 6 
" style="stroke: #262626; stroke-width: 1.25"/>
      </defs>
      <g>
       <use xlink:href="#m971f19cf45" x="51.67375" y="378.017812" style="fill: #262626; stroke: #262626; stroke-width: 1.25"/>
      </g>
     </g>
     <g id="text_1">
      <!-- 1650 -->
      <g style="fill: #262626" transform="translate(37.67625 395.876094) scale(0.11 -0.11)">
       <defs>
        <path id="DejaVuSans-31" d="M 794 531 
L 1825 531 
L 1825 4091 
L 703 3866 
L 703 4441 
L 1819 4666 
L 2450 4666 
L 2450 531 
L 3481 531 
L 3481 0 
L 794 0 
L 794 531 
z
" transform="scale(0.015625)"/>
        <path id="DejaVuSans-36" d="M 2113 2584 
Q 1688 2584 1439 2293 
Q 1191 2003 1191 1497 
Q 1191 994 1439 701 
Q 1688 409 2113 409 
Q 2538 409 2786 701 
Q 3034 994 3034 1497 
Q 3034 2003 2786 2293 
Q 2538 2584 2113 2584 
z
M 3366 4563 
L 3366 3988 
Q 3128 4100 2886 4159 
Q 2644 4219 2406 4219 
Q 1781 4219 1451 3797 
Q 1122 3375 1075 2522 
Q 1259 2794 1537 2939 
Q 1816 3084 2150 3084 
Q 2853 3084 3261 2657 
Q 3669 2231 3669 1497 
Q 3669 778 3244 343 
Q 2819 -91 2113 -91 
Q 1303 -91 875 529 
Q 447 1150 447 2328 
Q 447 3434 972 4092 
Q 1497 4750 2381 4750 
Q 2619 4750 2861 4703 
Q 3103 4656 3366 4563 
z
" transform="scale(0.015625)"/>
        <path id="DejaVuSans-35" d="M 691 4666 
L 3169 4666 
L 3169 4134 
L 1269 4134 
L 1269 2991 
Q 1406 3038 1543 3061 
Q 1681 3084 1819 3084 
Q 2600 3084 3056 2656 
Q 3513 2228 3513 1497 
Q 3513 744 3044 326 
Q 2575 -91 1722 -91 
Q 1428 -91 1123 -41 
Q 819 9 494 109 
L 494 744 
Q 775 591 1075 516 
Q 1375 441 1709 441 
Q 2250 441 2565 725 
Q 2881 1009 2881 1497 
Q 2881 1984 2565 2268 
Q 2250 2553 1709 2553 
Q 1456 2553 1204 2497 
Q 953 2441 691 2322 
L 691 4666 
z
" transform="scale(0.015625)"/>
        <path id="DejaVuSans-30" d="M 2034 4250 
Q 1547 4250 1301 3770 
Q 1056 3291 1056 2328 
Q 1056 1369 1301 889 
Q 1547 409 2034 409 
Q 2525 409 2770 889 
Q 3016 1369 3016 2328 
Q 3016 3291 2770 3770 
Q 2525 4250 2034 4250 
z
M 2034 4750 
Q 2819 4750 3233 4129 
Q 3647 3509 3647 2328 
Q 3647 1150 3233 529 
Q 2819 -91 2034 -91 
Q 1250 -91 836 529 
Q 422 1150 422 2328 
Q 422 3509 836 4129 
Q 1250 4750 2034 4750 
z
" transform="scale(0.015625)"/>
       </defs>
       <use xlink:href="#DejaVuSans-31"/>
       <use xlink:href="#DejaVuSans-36" x="63.623047"/>
       <use xlink:href="#DejaVuSans-35" x="127.246094"/>
       <use xlink:href="#DejaVuSans-30" x="190.869141"/>
      </g>
     </g>
    </g>
    <g id="xtick_2">
     <g id="line2d_3">
      <path d="M 178.765989 378.017812 
L 178.765989 23.837812 
" clip-path="url(#p055f62710a)" style="fill: none; stroke: #cccccc; stroke-opacity: 0.15; stroke-linecap: round"/>
     </g>
     <g id="line2d_4">
      <g>
       <use xlink:href="#m971f19cf45" x="178.765989" y="378.017812" style="fill: #262626; stroke: #262626; stroke-width: 1.25"/>
      </g>
     </g>
     <g id="text_2">
      <!-- 1700 -->
      <g style="fill: #262626" transform="translate(164.768489 395.876094) scale(0.11 -0.11)">
       <defs>
        <path id="DejaVuSans-37" d="M 525 4666 
L 3525 4666 
L 3525 4397 
L 1831 0 
L 1172 0 
L 2766 4134 
L 525 4134 
L 525 4666 
z
" transform="scale(0.015625)"/>
       </defs>
       <use xlink:href="#DejaVuSans-31"/>
       <use xlink:href="#DejaVuSans-37" x="63.623047"/>
       <use xlink:href="#DejaVuSans-30" x="127.246094"/>
       <use xlink:href="#DejaVuSans-30" x="190.869141"/>
      </g>
     </g>
    </g>
    <g id="xtick_3">
     <g id="line2d_5">
      <path d="M 305.858227 378.017812 
L 305.858227 23.837812 
" clip-path="url(#p055f62710a)" style="fill: none; stroke: #cccccc; stroke-opacity: 0.15; stroke-linecap: round"/>
     </g>
     <g id="line2d_6">
      <g>
       <use xlink:href="#m971f19cf45" x="305.858227" y="378.017812" style="fill: #262626; stroke: #262626; stroke-width: 1.25"/>
      </g>
     </g>
     <g id="text_3">
      <!-- 1750 -->
      <g style="fill: #262626" transform="translate(291.860727 395.876094) scale(0.11 -0.11)">
       <use xlink:href="#DejaVuSans-31"/>
       <use xlink:href="#DejaVuSans-37" x="63.623047"/>
       <use xlink:href="#DejaVuSans-35" x="127.246094"/>
       <use xlink:href="#DejaVuSans-30" x="190.869141"/>
      </g>
     </g>
    </g>
    <g id="xtick_4">
     <g id="line2d_7">
      <path d="M 432.950466 378.017812 
L 432.950466 23.837812 
" clip-path="url(#p055f62710a)" style="fill: none; stroke: #cccccc; stroke-opacity: 0.15; stroke-linecap: round"/>
     </g>
     <g id="line2d_8">
      <g>
       <use xlink:href="#m971f19cf45" x="432.950466" y="378.017812" style="fill: #262626; stroke: #262626; stroke-width: 1.25"/>
      </g>
     </g>
     <g id="text_4">
      <!-- 1800 -->
      <g style="fill: #262626" transform="translate(418.952966 395.876094) scale(0.11 -0.11)">
       <defs>
        <path id="DejaVuSans-38" d="M 2034 2216 
Q 1584 2216 1326 1975 
Q 1069 1734 1069 1313 
Q 1069 891 1326 650 
Q 1584 409 2034 409 
Q 2484 409 2743 651 
Q 3003 894 3003 1313 
Q 3003 1734 2745 1975 
Q 2488 2216 2034 2216 
z
M 1403 2484 
Q 997 2584 770 2862 
Q 544 3141 544 3541 
Q 544 4100 942 4425 
Q 1341 4750 2034 4750 
Q 2731 4750 3128 4425 
Q 3525 4100 3525 3541 
Q 3525 3141 3298 2862 
Q 3072 2584 2669 2484 
Q 3125 2378 3379 2068 
Q 3634 1759 3634 1313 
Q 3634 634 3220 271 
Q 2806 -91 2034 -91 
Q 1263 -91 848 271 
Q 434 634 434 1313 
Q 434 1759 690 2068 
Q 947 2378 1403 2484 
z
M 1172 3481 
Q 1172 3119 1398 2916 
Q 1625 2713 2034 2713 
Q 2441 2713 2670 2916 
Q 2900 3119 2900 3481 
Q 2900 3844 2670 4047 
Q 2441 4250 2034 4250 
Q 1625 4250 1398 4047 
Q 1172 3844 1172 3481 
z
" transform="scale(0.015625)"/>
       </defs>
       <use xlink:href="#DejaVuSans-31"/>
       <use xlink:href="#DejaVuSans-38" x="63.623047"/>
       <use xlink:href="#DejaVuSans-30" x="127.246094"/>
       <use xlink:href="#DejaVuSans-30" x="190.869141"/>
      </g>
     </g>
    </g>
    <g id="xtick_5">
     <g id="line2d_9">
      <path d="M 560.042704 378.017812 
L 560.042704 23.837812 
" clip-path="url(#p055f62710a)" style="fill: none; stroke: #cccccc; stroke-opacity: 0.15; stroke-linecap: round"/>
     </g>
     <g id="line2d_10">
      <g>
       <use xlink:href="#m971f19cf45" x="560.042704" y="378.017812" style="fill: #262626; stroke: #262626; stroke-width: 1.25"/>
      </g>
     </g>
     <g id="text_5">
      <!-- 1850 -->
      <g style="fill: #262626" transform="translate(546.045204 395.876094) scale(0.11 -0.11)">
       <use xlink:href="#DejaVuSans-31"/>
       <use xlink:href="#DejaVuSans-38" x="63.623047"/>
       <use xlink:href="#DejaVuSans-35" x="127.246094"/>
       <use xlink:href="#DejaVuSans-30" x="190.869141"/>
      </g>
     </g>
    </g>
    <g id="xtick_6">
     <g id="line2d_11">
      <path d="M 687.134943 378.017812 
L 687.134943 23.837812 
" clip-path="url(#p055f62710a)" style="fill: none; stroke: #cccccc; stroke-opacity: 0.15; stroke-linecap: round"/>
     </g>
     <g id="line2d_12">
      <g>
       <use xlink:href="#m971f19cf45" x="687.134943" y="378.017812" style="fill: #262626; stroke: #262626; stroke-width: 1.25"/>
      </g>
     </g>
     <g id="text_6">
      <!-- 1900 -->
      <g style="fill: #262626" transform="translate(673.137443 395.876094) scale(0.11 -0.11)">
       <defs>
        <path id="DejaVuSans-39" d="M 703 97 
L 703 672 
Q 941 559 1184 500 
Q 1428 441 1663 441 
Q 2288 441 2617 861 
Q 2947 1281 2994 2138 
Q 2813 1869 2534 1725 
Q 2256 1581 1919 1581 
Q 1219 1581 811 2004 
Q 403 2428 403 3163 
Q 403 3881 828 4315 
Q 1253 4750 1959 4750 
Q 2769 4750 3195 4129 
Q 3622 3509 3622 2328 
Q 3622 1225 3098 567 
Q 2575 -91 1691 -91 
Q 1453 -91 1209 -44 
Q 966 3 703 97 
z
M 1959 2075 
Q 2384 2075 2632 2365 
Q 2881 2656 2881 3163 
Q 2881 3666 2632 3958 
Q 2384 4250 1959 4250 
Q 1534 4250 1286 3958 
Q 1038 3666 1038 3163 
Q 1038 2656 1286 2365 
Q 1534 2075 1959 2075 
z
" transform="scale(0.015625)"/>
       </defs>
       <use xlink:href="#DejaVuSans-31"/>
       <use xlink:href="#DejaVuSans-39" x="63.623047"/>
       <use xlink:href="#DejaVuSans-30" x="127.246094"/>
       <use xlink:href="#DejaVuSans-30" x="190.869141"/>
      </g>
     </g>
    </g>
    <g id="text_7">
     <!-- Year -->
     <g style="fill: #262626" transform="translate(357.970269 411.281875) scale(0.12 -0.12)">
      <defs>
       <path id="DejaVuSans-59" d="M -13 4666 
L 666 4666 
L 1959 2747 
L 3244 4666 
L 3922 4666 
L 2272 2222 
L 2272 0 
L 1638 0 
L 1638 2222 
L -13 4666 
z
" transform="scale(0.015625)"/>
       <path id="DejaVuSans-65" d="M 3597 1894 
L 3597 1613 
L 953 1613 
Q 991 1019 1311 708 
Q 1631 397 2203 397 
Q 2534 397 2845 478 
Q 3156 559 3463 722 
L 3463 178 
Q 3153 47 2828 -22 
Q 2503 -91 2169 -91 
Q 1331 -91 842 396 
Q 353 884 353 1716 
Q 353 2575 817 3079 
Q 1281 3584 2069 3584 
Q 2775 3584 3186 3129 
Q 3597 2675 3597 1894 
z
M 3022 2063 
Q 3016 2534 2758 2815 
Q 2500 3097 2075 3097 
Q 1594 3097 1305 2825 
Q 1016 2553 972 2059 
L 3022 2063 
z
" transform="scale(0.015625)"/>
       <path id="DejaVuSans-61" d="M 2194 1759 
Q 1497 1759 1228 1600 
Q 959 1441 959 1056 
Q 959 750 1161 570 
Q 1363 391 1709 391 
Q 2188 391 2477 730 
Q 2766 1069 2766 1631 
L 2766 1759 
L 2194 1759 
z
M 3341 1997 
L 3341 0 
L 2766 0 
L 2766 531 
Q 2569 213 2275 61 
Q 1981 -91 1556 -91 
Q 1019 -91 701 211 
Q 384 513 384 1019 
Q 384 1609 779 1909 
Q 1175 2209 1959 2209 
L 2766 2209 
L 2766 2266 
Q 2766 2663 2505 2880 
Q 2244 3097 1772 3097 
Q 1472 3097 1187 3025 
Q 903 2953 641 2809 
L 641 3341 
Q 956 3463 1253 3523 
Q 1550 3584 1831 3584 
Q 2591 3584 2966 3190 
Q 3341 2797 3341 1997 
z
" transform="scale(0.015625)"/>
       <path id="DejaVuSans-72" d="M 2631 2963 
Q 2534 3019 2420 3045 
Q 2306 3072 2169 3072 
Q 1681 3072 1420 2755 
Q 1159 2438 1159 1844 
L 1159 0 
L 581 0 
L 581 3500 
L 1159 3500 
L 1159 2956 
Q 1341 3275 1631 3429 
Q 1922 3584 2338 3584 
Q 2397 3584 2469 3576 
Q 2541 3569 2628 3553 
L 2631 2963 
z
" transform="scale(0.015625)"/>
      </defs>
      <use xlink:href="#DejaVuSans-59"/>
      <use xlink:href="#DejaVuSans-65" x="47.833984"/>
      <use xlink:href="#DejaVuSans-61" x="109.357422"/>
      <use xlink:href="#DejaVuSans-72" x="170.636719"/>
     </g>
    </g>
   </g>
   <g id="matplotlib.axis_2">
    <g id="ytick_1">
     <g id="line2d_13">
      <path d="M 51.67375 361.918722 
L 689.676788 361.918722 
" clip-path="url(#p055f62710a)" style="fill: none; stroke: #cccccc; stroke-opacity: 0.15; stroke-linecap: round"/>
     </g>
     <g id="line2d_14">
      <defs>
       <path id="m9122a56571" d="M 0 0 
L -6 0 
" style="stroke: #262626; stroke-width: 1.25"/>
      </defs>
      <g>
       <use xlink:href="#m9122a56571" x="51.67375" y="361.918722" style="fill: #262626; stroke: #262626; stroke-width: 1.25"/>
      </g>
     </g>
     <g id="text_8">
      <!-- $\mathdefault{10^{0}}$ -->
      <g style="fill: #262626" transform="translate(22.81375 366.097862) scale(0.11 -0.11)">
       <use xlink:href="#DejaVuSans-31" transform="translate(0 0.765625)"/>
       <use xlink:href="#DejaVuSans-30" transform="translate(63.623047 0.765625)"/>
       <use xlink:href="#DejaVuSans-30" transform="translate(128.203125 39.046875) scale(0.7)"/>
      </g>
     </g>
    </g>
    <g id="ytick_2">
     <g id="line2d_15">
      <path d="M 51.67375 219.899564 
L 689.676788 219.899564 
" clip-path="url(#p055f62710a)" style="fill: none; stroke: #cccccc; stroke-opacity: 0.15; stroke-linecap: round"/>
     </g>
     <g id="line2d_16">
      <g>
       <use xlink:href="#m9122a56571" x="51.67375" y="219.899564" style="fill: #262626; stroke: #262626; stroke-width: 1.25"/>
      </g>
     </g>
     <g id="text_9">
      <!-- $\mathdefault{10^{1}}$ -->
      <g style="fill: #262626" transform="translate(22.81375 224.078705) scale(0.11 -0.11)">
       <use xlink:href="#DejaVuSans-31" transform="translate(0 0.684375)"/>
       <use xlink:href="#DejaVuSans-30" transform="translate(63.623047 0.684375)"/>
       <use xlink:href="#DejaVuSans-31" transform="translate(128.203125 38.965625) scale(0.7)"/>
      </g>
     </g>
    </g>
    <g id="ytick_3">
     <g id="line2d_17">
      <path d="M 51.67375 77.880407 
L 689.676788 77.880407 
" clip-path="url(#p055f62710a)" style="fill: none; stroke: #cccccc; stroke-opacity: 0.15; stroke-linecap: round"/>
     </g>
     <g id="line2d_18">
      <g>
       <use xlink:href="#m9122a56571" x="51.67375" y="77.880407" style="fill: #262626; stroke: #262626; stroke-width: 1.25"/>
      </g>
     </g>
     <g id="text_10">
      <!-- $\mathdefault{10^{2}}$ -->
      <g style="fill: #262626" transform="translate(22.81375 82.059548) scale(0.11 -0.11)">
       <defs>
        <path id="DejaVuSans-32" d="M 1228 531 
L 3431 531 
L 3431 0 
L 469 0 
L 469 531 
Q 828 903 1448 1529 
Q 2069 2156 2228 2338 
Q 2531 2678 2651 2914 
Q 2772 3150 2772 3378 
Q 2772 3750 2511 3984 
Q 2250 4219 1831 4219 
Q 1534 4219 1204 4116 
Q 875 4013 500 3803 
L 500 4441 
Q 881 4594 1212 4672 
Q 1544 4750 1819 4750 
Q 2544 4750 2975 4387 
Q 3406 4025 3406 3419 
Q 3406 3131 3298 2873 
Q 3191 2616 2906 2266 
Q 2828 2175 2409 1742 
Q 1991 1309 1228 531 
z
" transform="scale(0.015625)"/>
       </defs>
       <use xlink:href="#DejaVuSans-31" transform="translate(0 0.765625)"/>
       <use xlink:href="#DejaVuSans-30" transform="translate(63.623047 0.765625)"/>
       <use xlink:href="#DejaVuSans-32" transform="translate(128.203125 39.046875) scale(0.7)"/>
      </g>
     </g>
    </g>
    <g id="ytick_4">
     <g id="line2d_19">
      <path d="M 51.67375 375.6818 
L 689.676788 375.6818 
" clip-path="url(#p055f62710a)" style="fill: none; stroke-dasharray: 1,1.65; stroke-dashoffset: 0; stroke: #cccccc; stroke-opacity: 0.05"/>
     </g>
     <g id="line2d_20">
      <defs>
       <path id="m5c6945db10" d="M 0 0 
L -4 0 
" style="stroke: #262626"/>
      </defs>
      <g>
       <use xlink:href="#m5c6945db10" x="51.67375" y="375.6818" style="fill: #262626; stroke: #262626"/>
      </g>
     </g>
    </g>
    <g id="ytick_5">
     <g id="line2d_21">
      <path d="M 51.67375 368.417162 
L 689.676788 368.417162 
" clip-path="url(#p055f62710a)" style="fill: none; stroke-dasharray: 1,1.65; stroke-dashoffset: 0; stroke: #cccccc; stroke-opacity: 0.05"/>
     </g>
     <g id="line2d_22">
      <g>
       <use xlink:href="#m5c6945db10" x="51.67375" y="368.417162" style="fill: #262626; stroke: #262626"/>
      </g>
     </g>
    </g>
    <g id="ytick_6">
     <g id="line2d_23">
      <path d="M 51.67375 319.166695 
L 689.676788 319.166695 
" clip-path="url(#p055f62710a)" style="fill: none; stroke-dasharray: 1,1.65; stroke-dashoffset: 0; stroke: #cccccc; stroke-opacity: 0.05"/>
     </g>
     <g id="line2d_24">
      <g>
       <use xlink:href="#m5c6945db10" x="51.67375" y="319.166695" style="fill: #262626; stroke: #262626"/>
      </g>
     </g>
    </g>
    <g id="ytick_7">
     <g id="line2d_25">
      <path d="M 51.67375 294.158363 
L 689.676788 294.158363 
" clip-path="url(#p055f62710a)" style="fill: none; stroke-dasharray: 1,1.65; stroke-dashoffset: 0; stroke: #cccccc; stroke-opacity: 0.05"/>
     </g>
     <g id="line2d_26">
      <g>
       <use xlink:href="#m5c6945db10" x="51.67375" y="294.158363" style="fill: #262626; stroke: #262626"/>
      </g>
     </g>
    </g>
    <g id="ytick_8">
     <g id="line2d_27">
      <path d="M 51.67375 276.414669 
L 689.676788 276.414669 
" clip-path="url(#p055f62710a)" style="fill: none; stroke-dasharray: 1,1.65; stroke-dashoffset: 0; stroke: #cccccc; stroke-opacity: 0.05"/>
     </g>
     <g id="line2d_28">
      <g>
       <use xlink:href="#m5c6945db10" x="51.67375" y="276.414669" style="fill: #262626; stroke: #262626"/>
      </g>
     </g>
    </g>
    <g id="ytick_9">
     <g id="line2d_29">
      <path d="M 51.67375 262.651591 
L 689.676788 262.651591 
" clip-path="url(#p055f62710a)" style="fill: none; stroke-dasharray: 1,1.65; stroke-dashoffset: 0; stroke: #cccccc; stroke-opacity: 0.05"/>
     </g>
     <g id="line2d_30">
      <g>
       <use xlink:href="#m5c6945db10" x="51.67375" y="262.651591" style="fill: #262626; stroke: #262626"/>
      </g>
     </g>
    </g>
    <g id="ytick_10">
     <g id="line2d_31">
      <path d="M 51.67375 251.406337 
L 689.676788 251.406337 
" clip-path="url(#p055f62710a)" style="fill: none; stroke-dasharray: 1,1.65; stroke-dashoffset: 0; stroke: #cccccc; stroke-opacity: 0.05"/>
     </g>
     <g id="line2d_32">
      <g>
       <use xlink:href="#m5c6945db10" x="51.67375" y="251.406337" style="fill: #262626; stroke: #262626"/>
      </g>
     </g>
    </g>
    <g id="ytick_11">
     <g id="line2d_33">
      <path d="M 51.67375 241.89861 
L 689.676788 241.89861 
" clip-path="url(#p055f62710a)" style="fill: none; stroke-dasharray: 1,1.65; stroke-dashoffset: 0; stroke: #cccccc; stroke-opacity: 0.05"/>
     </g>
     <g id="line2d_34">
      <g>
       <use xlink:href="#m5c6945db10" x="51.67375" y="241.89861" style="fill: #262626; stroke: #262626"/>
      </g>
     </g>
    </g>
    <g id="ytick_12">
     <g id="line2d_35">
      <path d="M 51.67375 233.662643 
L 689.676788 233.662643 
" clip-path="url(#p055f62710a)" style="fill: none; stroke-dasharray: 1,1.65; stroke-dashoffset: 0; stroke: #cccccc; stroke-opacity: 0.05"/>
     </g>
     <g id="line2d_36">
      <g>
       <use xlink:href="#m5c6945db10" x="51.67375" y="233.662643" style="fill: #262626; stroke: #262626"/>
      </g>
     </g>
    </g>
    <g id="ytick_13">
     <g id="line2d_37">
      <path d="M 51.67375 226.398005 
L 689.676788 226.398005 
" clip-path="url(#p055f62710a)" style="fill: none; stroke-dasharray: 1,1.65; stroke-dashoffset: 0; stroke: #cccccc; stroke-opacity: 0.05"/>
     </g>
     <g id="line2d_38">
      <g>
       <use xlink:href="#m5c6945db10" x="51.67375" y="226.398005" style="fill: #262626; stroke: #262626"/>
      </g>
     </g>
    </g>
    <g id="ytick_14">
     <g id="line2d_39">
      <path d="M 51.67375 177.147538 
L 689.676788 177.147538 
" clip-path="url(#p055f62710a)" style="fill: none; stroke-dasharray: 1,1.65; stroke-dashoffset: 0; stroke: #cccccc; stroke-opacity: 0.05"/>
     </g>
     <g id="line2d_40">
      <g>
       <use xlink:href="#m5c6945db10" x="51.67375" y="177.147538" style="fill: #262626; stroke: #262626"/>
      </g>
     </g>
    </g>
    <g id="ytick_15">
     <g id="line2d_41">
      <path d="M 51.67375 152.139206 
L 689.676788 152.139206 
" clip-path="url(#p055f62710a)" style="fill: none; stroke-dasharray: 1,1.65; stroke-dashoffset: 0; stroke: #cccccc; stroke-opacity: 0.05"/>
     </g>
     <g id="line2d_42">
      <g>
       <use xlink:href="#m5c6945db10" x="51.67375" y="152.139206" style="fill: #262626; stroke: #262626"/>
      </g>
     </g>
    </g>
    <g id="ytick_16">
     <g id="line2d_43">
      <path d="M 51.67375 134.395512 
L 689.676788 134.395512 
" clip-path="url(#p055f62710a)" style="fill: none; stroke-dasharray: 1,1.65; stroke-dashoffset: 0; stroke: #cccccc; stroke-opacity: 0.05"/>
     </g>
     <g id="line2d_44">
      <g>
       <use xlink:href="#m5c6945db10" x="51.67375" y="134.395512" style="fill: #262626; stroke: #262626"/>
      </g>
     </g>
    </g>
    <g id="ytick_17">
     <g id="line2d_45">
      <path d="M 51.67375 120.632433 
L 689.676788 120.632433 
" clip-path="url(#p055f62710a)" style="fill: none; stroke-dasharray: 1,1.65; stroke-dashoffset: 0; stroke: #cccccc; stroke-opacity: 0.05"/>
     </g>
     <g id="line2d_46">
      <g>
       <use xlink:href="#m5c6945db10" x="51.67375" y="120.632433" style="fill: #262626; stroke: #262626"/>
      </g>
     </g>
    </g>
    <g id="ytick_18">
     <g id="line2d_47">
      <path d="M 51.67375 109.38718 
L 689.676788 109.38718 
" clip-path="url(#p055f62710a)" style="fill: none; stroke-dasharray: 1,1.65; stroke-dashoffset: 0; stroke: #cccccc; stroke-opacity: 0.05"/>
     </g>
     <g id="line2d_48">
      <g>
       <use xlink:href="#m5c6945db10" x="51.67375" y="109.38718" style="fill: #262626; stroke: #262626"/>
      </g>
     </g>
    </g>
    <g id="ytick_19">
     <g id="line2d_49">
      <path d="M 51.67375 99.879453 
L 689.676788 99.879453 
" clip-path="url(#p055f62710a)" style="fill: none; stroke-dasharray: 1,1.65; stroke-dashoffset: 0; stroke: #cccccc; stroke-opacity: 0.05"/>
     </g>
     <g id="line2d_50">
      <g>
       <use xlink:href="#m5c6945db10" x="51.67375" y="99.879453" style="fill: #262626; stroke: #262626"/>
      </g>
     </g>
    </g>
    <g id="ytick_20">
     <g id="line2d_51">
      <path d="M 51.67375 91.643485 
L 689.676788 91.643485 
" clip-path="url(#p055f62710a)" style="fill: none; stroke-dasharray: 1,1.65; stroke-dashoffset: 0; stroke: #cccccc; stroke-opacity: 0.05"/>
     </g>
     <g id="line2d_52">
      <g>
       <use xlink:href="#m5c6945db10" x="51.67375" y="91.643485" style="fill: #262626; stroke: #262626"/>
      </g>
     </g>
    </g>
    <g id="ytick_21">
     <g id="line2d_53">
      <path d="M 51.67375 84.378847 
L 689.676788 84.378847 
" clip-path="url(#p055f62710a)" style="fill: none; stroke-dasharray: 1,1.65; stroke-dashoffset: 0; stroke: #cccccc; stroke-opacity: 0.05"/>
     </g>
     <g id="line2d_54">
      <g>
       <use xlink:href="#m5c6945db10" x="51.67375" y="84.378847" style="fill: #262626; stroke: #262626"/>
      </g>
     </g>
    </g>
    <g id="ytick_22">
     <g id="line2d_55">
      <path d="M 51.67375 35.128381 
L 689.676788 35.128381 
" clip-path="url(#p055f62710a)" style="fill: none; stroke-dasharray: 1,1.65; stroke-dashoffset: 0; stroke: #cccccc; stroke-opacity: 0.05"/>
     </g>
     <g id="line2d_56">
      <g>
       <use xlink:href="#m5c6945db10" x="51.67375" y="35.128381" style="fill: #262626; stroke: #262626"/>
      </g>
     </g>
    </g>
    <g id="text_11">
     <!-- Number of Records (Log Scale) -->
     <g style="fill: #262626" transform="translate(16.318125 293.843437) rotate(-90) scale(0.12 -0.12)">
      <defs>
       <path id="DejaVuSans-4e" d="M 628 4666 
L 1478 4666 
L 3547 763 
L 3547 4666 
L 4159 4666 
L 4159 0 
L 3309 0 
L 1241 3903 
L 1241 0 
L 628 0 
L 628 4666 
z
" transform="scale(0.015625)"/>
       <path id="DejaVuSans-75" d="M 544 1381 
L 544 3500 
L 1119 3500 
L 1119 1403 
Q 1119 906 1312 657 
Q 1506 409 1894 409 
Q 2359 409 2629 706 
Q 2900 1003 2900 1516 
L 2900 3500 
L 3475 3500 
L 3475 0 
L 2900 0 
L 2900 538 
Q 2691 219 2414 64 
Q 2138 -91 1772 -91 
Q 1169 -91 856 284 
Q 544 659 544 1381 
z
M 1991 3584 
L 1991 3584 
z
" transform="scale(0.015625)"/>
       <path id="DejaVuSans-6d" d="M 3328 2828 
Q 3544 3216 3844 3400 
Q 4144 3584 4550 3584 
Q 5097 3584 5394 3201 
Q 5691 2819 5691 2113 
L 5691 0 
L 5113 0 
L 5113 2094 
Q 5113 2597 4934 2840 
Q 4756 3084 4391 3084 
Q 3944 3084 3684 2787 
Q 3425 2491 3425 1978 
L 3425 0 
L 2847 0 
L 2847 2094 
Q 2847 2600 2669 2842 
Q 2491 3084 2119 3084 
Q 1678 3084 1418 2786 
Q 1159 2488 1159 1978 
L 1159 0 
L 581 0 
L 581 3500 
L 1159 3500 
L 1159 2956 
Q 1356 3278 1631 3431 
Q 1906 3584 2284 3584 
Q 2666 3584 2933 3390 
Q 3200 3197 3328 2828 
z
" transform="scale(0.015625)"/>
       <path id="DejaVuSans-62" d="M 3116 1747 
Q 3116 2381 2855 2742 
Q 2594 3103 2138 3103 
Q 1681 3103 1420 2742 
Q 1159 2381 1159 1747 
Q 1159 1113 1420 752 
Q 1681 391 2138 391 
Q 2594 391 2855 752 
Q 3116 1113 3116 1747 
z
M 1159 2969 
Q 1341 3281 1617 3432 
Q 1894 3584 2278 3584 
Q 2916 3584 3314 3078 
Q 3713 2572 3713 1747 
Q 3713 922 3314 415 
Q 2916 -91 2278 -91 
Q 1894 -91 1617 61 
Q 1341 213 1159 525 
L 1159 0 
L 581 0 
L 581 4863 
L 1159 4863 
L 1159 2969 
z
" transform="scale(0.015625)"/>
       <path id="DejaVuSans-20" transform="scale(0.015625)"/>
       <path id="DejaVuSans-6f" d="M 1959 3097 
Q 1497 3097 1228 2736 
Q 959 2375 959 1747 
Q 959 1119 1226 758 
Q 1494 397 1959 397 
Q 2419 397 2687 759 
Q 2956 1122 2956 1747 
Q 2956 2369 2687 2733 
Q 2419 3097 1959 3097 
z
M 1959 3584 
Q 2709 3584 3137 3096 
Q 3566 2609 3566 1747 
Q 3566 888 3137 398 
Q 2709 -91 1959 -91 
Q 1206 -91 779 398 
Q 353 888 353 1747 
Q 353 2609 779 3096 
Q 1206 3584 1959 3584 
z
" transform="scale(0.015625)"/>
       <path id="DejaVuSans-66" d="M 2375 4863 
L 2375 4384 
L 1825 4384 
Q 1516 4384 1395 4259 
Q 1275 4134 1275 3809 
L 1275 3500 
L 2222 3500 
L 2222 3053 
L 1275 3053 
L 1275 0 
L 697 0 
L 697 3053 
L 147 3053 
L 147 3500 
L 697 3500 
L 697 3744 
Q 697 4328 969 4595 
Q 1241 4863 1831 4863 
L 2375 4863 
z
" transform="scale(0.015625)"/>
       <path id="DejaVuSans-52" d="M 2841 2188 
Q 3044 2119 3236 1894 
Q 3428 1669 3622 1275 
L 4263 0 
L 3584 0 
L 2988 1197 
Q 2756 1666 2539 1819 
Q 2322 1972 1947 1972 
L 1259 1972 
L 1259 0 
L 628 0 
L 628 4666 
L 2053 4666 
Q 2853 4666 3247 4331 
Q 3641 3997 3641 3322 
Q 3641 2881 3436 2590 
Q 3231 2300 2841 2188 
z
M 1259 4147 
L 1259 2491 
L 2053 2491 
Q 2509 2491 2742 2702 
Q 2975 2913 2975 3322 
Q 2975 3731 2742 3939 
Q 2509 4147 2053 4147 
L 1259 4147 
z
" transform="scale(0.015625)"/>
       <path id="DejaVuSans-63" d="M 3122 3366 
L 3122 2828 
Q 2878 2963 2633 3030 
Q 2388 3097 2138 3097 
Q 1578 3097 1268 2742 
Q 959 2388 959 1747 
Q 959 1106 1268 751 
Q 1578 397 2138 397 
Q 2388 397 2633 464 
Q 2878 531 3122 666 
L 3122 134 
Q 2881 22 2623 -34 
Q 2366 -91 2075 -91 
Q 1284 -91 818 406 
Q 353 903 353 1747 
Q 353 2603 823 3093 
Q 1294 3584 2113 3584 
Q 2378 3584 2631 3529 
Q 2884 3475 3122 3366 
z
" transform="scale(0.015625)"/>
       <path id="DejaVuSans-64" d="M 2906 2969 
L 2906 4863 
L 3481 4863 
L 3481 0 
L 2906 0 
L 2906 525 
Q 2725 213 2448 61 
Q 2172 -91 1784 -91 
Q 1150 -91 751 415 
Q 353 922 353 1747 
Q 353 2572 751 3078 
Q 1150 3584 1784 3584 
Q 2172 3584 2448 3432 
Q 2725 3281 2906 2969 
z
M 947 1747 
Q 947 1113 1208 752 
Q 1469 391 1925 391 
Q 2381 391 2643 752 
Q 2906 1113 2906 1747 
Q 2906 2381 2643 2742 
Q 2381 3103 1925 3103 
Q 1469 3103 1208 2742 
Q 947 2381 947 1747 
z
" transform="scale(0.015625)"/>
       <path id="DejaVuSans-73" d="M 2834 3397 
L 2834 2853 
Q 2591 2978 2328 3040 
Q 2066 3103 1784 3103 
Q 1356 3103 1142 2972 
Q 928 2841 928 2578 
Q 928 2378 1081 2264 
Q 1234 2150 1697 2047 
L 1894 2003 
Q 2506 1872 2764 1633 
Q 3022 1394 3022 966 
Q 3022 478 2636 193 
Q 2250 -91 1575 -91 
Q 1294 -91 989 -36 
Q 684 19 347 128 
L 347 722 
Q 666 556 975 473 
Q 1284 391 1588 391 
Q 1994 391 2212 530 
Q 2431 669 2431 922 
Q 2431 1156 2273 1281 
Q 2116 1406 1581 1522 
L 1381 1569 
Q 847 1681 609 1914 
Q 372 2147 372 2553 
Q 372 3047 722 3315 
Q 1072 3584 1716 3584 
Q 2034 3584 2315 3537 
Q 2597 3491 2834 3397 
z
" transform="scale(0.015625)"/>
       <path id="DejaVuSans-28" d="M 1984 4856 
Q 1566 4138 1362 3434 
Q 1159 2731 1159 2009 
Q 1159 1288 1364 580 
Q 1569 -128 1984 -844 
L 1484 -844 
Q 1016 -109 783 600 
Q 550 1309 550 2009 
Q 550 2706 781 3412 
Q 1013 4119 1484 4856 
L 1984 4856 
z
" transform="scale(0.015625)"/>
       <path id="DejaVuSans-4c" d="M 628 4666 
L 1259 4666 
L 1259 531 
L 3531 531 
L 3531 0 
L 628 0 
L 628 4666 
z
" transform="scale(0.015625)"/>
       <path id="DejaVuSans-67" d="M 2906 1791 
Q 2906 2416 2648 2759 
Q 2391 3103 1925 3103 
Q 1463 3103 1205 2759 
Q 947 2416 947 1791 
Q 947 1169 1205 825 
Q 1463 481 1925 481 
Q 2391 481 2648 825 
Q 2906 1169 2906 1791 
z
M 3481 434 
Q 3481 -459 3084 -895 
Q 2688 -1331 1869 -1331 
Q 1566 -1331 1297 -1286 
Q 1028 -1241 775 -1147 
L 775 -588 
Q 1028 -725 1275 -790 
Q 1522 -856 1778 -856 
Q 2344 -856 2625 -561 
Q 2906 -266 2906 331 
L 2906 616 
Q 2728 306 2450 153 
Q 2172 0 1784 0 
Q 1141 0 747 490 
Q 353 981 353 1791 
Q 353 2603 747 3093 
Q 1141 3584 1784 3584 
Q 2172 3584 2450 3431 
Q 2728 3278 2906 2969 
L 2906 3500 
L 3481 3500 
L 3481 434 
z
" transform="scale(0.015625)"/>
       <path id="DejaVuSans-53" d="M 3425 4513 
L 3425 3897 
Q 3066 4069 2747 4153 
Q 2428 4238 2131 4238 
Q 1616 4238 1336 4038 
Q 1056 3838 1056 3469 
Q 1056 3159 1242 3001 
Q 1428 2844 1947 2747 
L 2328 2669 
Q 3034 2534 3370 2195 
Q 3706 1856 3706 1288 
Q 3706 609 3251 259 
Q 2797 -91 1919 -91 
Q 1588 -91 1214 -16 
Q 841 59 441 206 
L 441 856 
Q 825 641 1194 531 
Q 1563 422 1919 422 
Q 2459 422 2753 634 
Q 3047 847 3047 1241 
Q 3047 1584 2836 1778 
Q 2625 1972 2144 2069 
L 1759 2144 
Q 1053 2284 737 2584 
Q 422 2884 422 3419 
Q 422 4038 858 4394 
Q 1294 4750 2059 4750 
Q 2388 4750 2728 4690 
Q 3069 4631 3425 4513 
z
" transform="scale(0.015625)"/>
       <path id="DejaVuSans-6c" d="M 603 4863 
L 1178 4863 
L 1178 0 
L 603 0 
L 603 4863 
z
" transform="scale(0.015625)"/>
       <path id="DejaVuSans-29" d="M 513 4856 
L 1013 4856 
Q 1481 4119 1714 3412 
Q 1947 2706 1947 2009 
Q 1947 1309 1714 600 
Q 1481 -109 1013 -844 
L 513 -844 
Q 928 -128 1133 580 
Q 1338 1288 1338 2009 
Q 1338 2731 1133 3434 
Q 928 4138 513 4856 
z
" transform="scale(0.015625)"/>
      </defs>
      <use xlink:href="#DejaVuSans-4e"/>
      <use xlink:href="#DejaVuSans-75" x="74.804688"/>
      <use xlink:href="#DejaVuSans-6d" x="138.183594"/>
      <use xlink:href="#DejaVuSans-62" x="235.595703"/>
      <use xlink:href="#DejaVuSans-65" x="299.072266"/>
      <use xlink:href="#DejaVuSans-72" x="360.595703"/>
      <use xlink:href="#DejaVuSans-20" x="401.708984"/>
      <use xlink:href="#DejaVuSans-6f" x="433.496094"/>
      <use xlink:href="#DejaVuSans-66" x="494.677734"/>
      <use xlink:href="#DejaVuSans-20" x="529.882812"/>
      <use xlink:href="#DejaVuSans-52" x="561.669922"/>
      <use xlink:href="#DejaVuSans-65" x="626.652344"/>
      <use xlink:href="#DejaVuSans-63" x="688.175781"/>
      <use xlink:href="#DejaVuSans-6f" x="743.15625"/>
      <use xlink:href="#DejaVuSans-72" x="804.337891"/>
      <use xlink:href="#DejaVuSans-64" x="843.701172"/>
      <use xlink:href="#DejaVuSans-73" x="907.177734"/>
      <use xlink:href="#DejaVuSans-20" x="959.277344"/>
      <use xlink:href="#DejaVuSans-28" x="991.064453"/>
      <use xlink:href="#DejaVuSans-4c" x="1030.078125"/>
      <use xlink:href="#DejaVuSans-6f" x="1084.041016"/>
      <use xlink:href="#DejaVuSans-67" x="1145.222656"/>
      <use xlink:href="#DejaVuSans-20" x="1208.699219"/>
      <use xlink:href="#DejaVuSans-53" x="1240.486328"/>
      <use xlink:href="#DejaVuSans-63" x="1303.962891"/>
      <use xlink:href="#DejaVuSans-61" x="1358.943359"/>
      <use xlink:href="#DejaVuSans-6c" x="1420.222656"/>
      <use xlink:href="#DejaVuSans-65" x="1448.005859"/>
      <use xlink:href="#DejaVuSans-29" x="1509.529297"/>
     </g>
    </g>
   </g>
   <g id="line2d_57">
    <path d="M 72.008508 361.918722 
L 89.801422 361.918722 
L 92.343266 319.166695 
L 112.678025 319.166695 
L 115.219869 294.158363 
L 143.180162 294.158363 
L 145.722007 319.166695 
L 153.347541 319.166695 
L 155.889386 294.158363 
L 163.51492 294.158363 
L 166.056765 319.166695 
L 168.598609 319.166695 
L 171.140454 294.158363 
L 173.682299 294.158363 
L 176.224144 319.166695 
L 178.765989 294.158363 
L 181.307833 319.166695 
L 183.849678 294.158363 
L 186.391523 319.166695 
L 191.475212 319.166695 
L 194.017057 294.158363 
L 199.100747 294.158363 
L 201.642592 183.645978 
L 204.184436 262.651591 
L 211.809971 262.651591 
L 214.351815 276.414669 
L 219.435505 276.414669 
L 221.97735 262.651591 
L 224.519194 251.406337 
L 227.061039 251.406337 
L 229.602884 233.662643 
L 232.144729 233.662643 
L 234.686574 226.398005 
L 239.770263 226.398005 
L 242.312108 214.02101 
L 244.853953 208.654311 
L 247.395797 214.02101 
L 249.937642 199.146584 
L 252.479487 199.146584 
L 255.021332 203.717425 
L 257.563176 226.398005 
L 260.105021 219.899564 
L 270.2724 219.899564 
L 272.814245 214.02101 
L 275.35609 208.654311 
L 280.439779 208.654311 
L 282.981624 199.146584 
L 285.523469 203.717425 
L 288.065314 199.146584 
L 290.607159 203.717425 
L 295.690848 203.717425 
L 298.232693 208.654311 
L 300.774538 208.654311 
L 303.316382 214.02101 
L 305.858227 214.02101 
L 308.400072 203.717425 
L 310.941917 203.717425 
L 313.483761 194.891232 
L 316.025606 194.891232 
L 318.567451 187.171403 
L 321.109296 183.645978 
L 326.192985 183.645978 
L 328.73483 180.311213 
L 331.276675 168.527282 
L 333.81852 160.965399 
L 338.902209 156.394558 
L 341.444054 156.394558 
L 343.985899 160.965399 
L 346.527743 156.394558 
L 351.611433 152.139206 
L 354.153278 150.116791 
L 356.695123 154.23019 
L 359.236967 154.23019 
L 361.778812 152.139206 
L 364.320657 154.23019 
L 366.862502 158.637646 
L 371.946191 154.23019 
L 374.488036 146.260652 
L 379.571726 142.631479 
L 382.11357 142.631479 
L 384.655415 119.411044 
L 387.19726 107.364764 
L 389.739105 104.450295 
L 392.280949 103.508625 
L 394.822794 103.508625 
L 397.364639 104.450295 
L 399.906484 107.364764 
L 402.448328 108.367683 
L 404.990173 113.642531 
L 407.532018 114.753879 
L 410.073863 117.038516 
L 412.615708 121.878499 
L 415.157552 144.419376 
L 417.699397 142.631479 
L 422.783087 142.631479 
L 425.324931 140.893952 
L 427.866776 142.631479 
L 430.408621 142.631479 
L 432.950466 137.559187 
L 435.49231 139.204034 
L 438.034155 139.204034 
L 440.576 135.957067 
L 443.117845 137.559187 
L 445.65969 135.957067 
L 448.201534 135.957067 
L 450.743379 132.872517 
L 453.285224 131.386225 
L 458.368913 134.395512 
L 460.910758 134.395512 
L 463.452603 129.934908 
L 465.994448 127.130874 
L 468.536293 127.130874 
L 473.619982 121.878499 
L 476.161827 124.448793 
L 481.245516 127.130874 
L 483.787361 124.448793 
L 488.871051 124.448793 
L 491.412895 125.775256 
L 493.95474 123.150258 
L 496.496585 121.878499 
L 499.03843 115.88562 
L 501.580275 113.642531 
L 504.122119 117.038516 
L 506.663964 115.88562 
L 509.205809 115.88562 
L 511.747654 117.038516 
L 514.289498 121.878499 
L 516.831343 127.130874 
L 524.456877 123.150258 
L 526.998722 120.632433 
L 532.082412 118.213373 
L 534.624257 119.411044 
L 537.166101 121.878499 
L 539.707946 123.150258 
L 542.249791 119.411044 
L 544.791636 117.038516 
L 549.875325 119.411044 
L 552.41717 123.150258 
L 554.959015 124.448793 
L 557.50086 123.150258 
L 560.042704 119.411044 
L 562.584549 115.88562 
L 565.126394 114.753879 
L 567.668239 118.213373 
L 570.210083 119.411044 
L 572.751928 118.213373 
L 575.293773 119.411044 
L 577.835618 118.213373 
L 580.377462 111.478164 
L 582.919307 110.423811 
L 585.461152 103.508625 
L 588.002997 83.697314 
L 590.544842 79.759074 
L 593.086686 81.696767 
L 595.628531 90.877288 
L 600.712221 95.624101 
L 603.254065 96.452008 
L 605.79591 90.120491 
L 608.337755 93.205041 
L 610.8796 90.120491 
L 613.421445 90.877288 
L 615.963289 83.023229 
L 618.505134 79.126472 
L 621.046979 77.880407 
L 623.588824 77.266689 
L 626.130668 119.411044 
L 628.672513 115.88562 
L 631.214358 113.642531 
L 633.756203 109.38718 
L 636.298047 108.367683 
L 638.839892 109.38718 
L 641.381737 109.38718 
L 643.923582 106.377893 
L 646.465427 107.364764 
L 649.007271 106.377893 
L 651.549116 101.66735 
L 654.090961 100.766923 
L 656.632806 100.766923 
L 659.17465 99.879453 
L 661.716495 99.879453 
L 664.25834 97.291179 
L 666.800185 97.291179 
L 669.342029 96.452008 
L 671.883874 96.452008 
L 674.425719 94.80716 
L 676.967564 94.000899 
L 679.509409 94.80716 
L 684.593098 94.80716 
L 687.134943 95.624101 
L 689.676788 95.624101 
L 689.676788 95.624101 
" clip-path="url(#p055f62710a)" style="fill: none; stroke: #d62728; stroke-opacity: 0.9; stroke-width: 2; stroke-linecap: round"/>
   </g>
   <g id="line2d_58">
    <path d="M 92.343266 361.918722 
L 99.968801 361.918722 
L 102.510645 319.166695 
L 135.554627 319.166695 
L 138.096472 294.158363 
L 140.638317 319.166695 
L 143.180162 319.166695 
L 145.722007 361.918722 
L 153.347541 361.918722 
L 155.889386 294.158363 
L 163.51492 294.158363 
L 166.056765 319.166695 
L 168.598609 319.166695 
L 171.140454 276.414669 
L 173.682299 294.158363 
L 176.224144 319.166695 
L 178.765989 294.158363 
L 181.307833 319.166695 
L 183.849678 276.414669 
L 186.391523 319.166695 
L 188.933368 319.166695 
L 191.475212 294.158363 
L 196.558902 294.158363 
L 199.100747 262.651591 
L 201.642592 241.89861 
L 204.184436 262.651591 
L 219.435505 262.651591 
L 221.97735 241.89861 
L 224.519194 233.662643 
L 227.061039 241.89861 
L 229.602884 226.398005 
L 232.144729 219.899564 
L 234.686574 214.02101 
L 239.770263 214.02101 
L 242.312108 199.146584 
L 244.853953 194.891232 
L 247.395797 199.146584 
L 249.937642 194.891232 
L 252.479487 194.891232 
L 255.021332 199.146584 
L 257.563176 208.654311 
L 260.105021 203.717425 
L 262.646866 203.717425 
L 265.188711 208.654311 
L 267.730556 203.717425 
L 272.814245 203.717425 
L 275.35609 194.891232 
L 282.981624 194.891232 
L 285.523469 199.146584 
L 288.065314 194.891232 
L 290.607159 199.146584 
L 300.774538 199.146584 
L 303.316382 194.891232 
L 305.858227 194.891232 
L 308.400072 190.910616 
L 310.941917 194.891232 
L 313.483761 190.910616 
L 316.025606 190.910616 
L 318.567451 180.311213 
L 321.109296 180.311213 
L 323.651141 183.645978 
L 328.73483 183.645978 
L 331.276675 177.147538 
L 333.81852 171.268984 
L 336.360364 168.527282 
L 338.902209 160.965399 
L 341.444054 160.965399 
L 343.985899 163.38446 
L 346.527743 163.38446 
L 349.069588 160.965399 
L 351.611433 156.394558 
L 354.153278 154.23019 
L 356.695123 156.394558 
L 361.778812 156.394558 
L 364.320657 160.965399 
L 369.404346 165.902284 
L 371.946191 163.38446 
L 374.488036 158.637646 
L 377.029881 150.116791 
L 379.571726 148.15859 
L 382.11357 148.15859 
L 384.655415 123.150258 
L 387.19726 109.38718 
L 389.739105 106.377893 
L 392.280949 106.377893 
L 394.822794 107.364764 
L 397.364639 109.38718 
L 399.906484 112.550854 
L 402.448328 113.642531 
L 404.990173 119.411044 
L 407.532018 119.411044 
L 410.073863 123.150258 
L 412.615708 127.130874 
L 415.157552 150.116791 
L 417.699397 148.15859 
L 420.241242 150.116791 
L 425.324931 146.260652 
L 427.866776 150.116791 
L 430.408621 150.116791 
L 432.950466 148.15859 
L 438.034155 148.15859 
L 440.576 146.260652 
L 443.117845 148.15859 
L 445.65969 144.419376 
L 448.201534 144.419376 
L 450.743379 140.893952 
L 453.285224 140.893952 
L 455.827069 142.631479 
L 458.368913 142.631479 
L 460.910758 140.893952 
L 463.452603 137.559187 
L 465.994448 135.957067 
L 468.536293 135.957067 
L 471.078137 132.872517 
L 473.619982 123.150258 
L 476.161827 127.130874 
L 478.703672 129.934908 
L 481.245516 131.386225 
L 483.787361 125.775256 
L 486.329206 128.516958 
L 493.95474 128.516958 
L 496.496585 127.130874 
L 499.03843 119.411044 
L 501.580275 118.213373 
L 504.122119 120.632433 
L 506.663964 118.213373 
L 509.205809 118.213373 
L 511.747654 123.150258 
L 514.289498 128.516958 
L 516.831343 134.395512 
L 519.373188 132.872517 
L 521.915033 132.872517 
L 524.456877 128.516958 
L 526.998722 125.775256 
L 529.540567 124.448793 
L 532.082412 124.448793 
L 537.166101 121.878499 
L 539.707946 123.150258 
L 542.249791 120.632433 
L 544.791636 120.632433 
L 547.33348 121.878499 
L 549.875325 121.878499 
L 552.41717 125.775256 
L 554.959015 128.516958 
L 557.50086 128.516958 
L 560.042704 102.581117 
L 562.584549 100.766923 
L 565.126394 96.452008 
L 567.668239 98.141926 
L 570.210083 98.141926 
L 572.751928 99.879453 
L 575.293773 99.004571 
L 577.835618 97.291179 
L 580.377462 96.452008 
L 582.919307 97.291179 
L 585.461152 91.643485 
L 588.002997 70.342251 
L 590.544842 66.635153 
L 593.086686 67.671785 
L 595.628531 73.133594 
L 598.170376 74.871121 
L 600.712221 74.286489 
L 603.254065 74.286489 
L 605.79591 65.615657 
L 608.337755 62.654538 
L 610.8796 60.291101 
L 613.421445 59.829091 
L 615.963289 58.014897 
L 618.505134 54.963059 
L 621.046979 50.84966 
L 623.588824 50.453014 
L 626.130668 72.565127 
L 628.672513 73.133594 
L 633.756203 69.798828 
L 636.298047 67.671785 
L 641.381737 84.378847 
L 643.923582 84.378847 
L 646.465427 85.764931 
L 651.549116 84.378847 
L 654.090961 87.182882 
L 656.632806 87.182882 
L 659.17465 86.469832 
L 661.716495 87.904272 
L 666.800185 87.904272 
L 671.883874 89.372868 
L 674.425719 89.372868 
L 676.967564 88.634199 
L 679.509409 89.372868 
L 682.051253 88.634199 
L 689.676788 88.634199 
L 689.676788 88.634199 
" clip-path="url(#p055f62710a)" style="fill: none; stroke: #9467bd; stroke-opacity: 0.9; stroke-width: 2; stroke-linecap: round"/>
   </g>
   <g id="line2d_59">
    <path d="M 92.343266 361.918722 
L 105.05249 361.918722 
L 107.594335 319.166695 
L 115.219869 319.166695 
L 117.761714 361.918722 
L 178.765989 361.918722 
L 183.849678 319.166695 
L 191.475212 361.918722 
L 196.558902 361.918722 
L 199.100747 319.166695 
L 201.642592 361.918722 
L 219.435505 361.918722 
L 224.519194 276.414669 
L 227.061039 276.414669 
L 229.602884 262.651591 
L 232.144729 251.406337 
L 239.770263 251.406337 
L 242.312108 233.662643 
L 244.853953 226.398005 
L 247.395797 233.662643 
L 249.937642 226.398005 
L 252.479487 241.89861 
L 255.021332 251.406337 
L 257.563176 276.414669 
L 260.105021 262.651591 
L 272.814245 262.651591 
L 275.35609 251.406337 
L 280.439779 251.406337 
L 282.981624 233.662643 
L 285.523469 241.89861 
L 288.065314 241.89861 
L 290.607159 251.406337 
L 295.690848 251.406337 
L 298.232693 262.651591 
L 300.774538 262.651591 
L 303.316382 276.414669 
L 318.567451 276.414669 
L 321.109296 294.158363 
L 326.192985 294.158363 
L 328.73483 319.166695 
L 331.276675 294.158363 
L 333.81852 294.158363 
L 336.360364 262.651591 
L 338.902209 251.406337 
L 341.444054 251.406337 
L 343.985899 262.651591 
L 346.527743 262.651591 
L 349.069588 251.406337 
L 351.611433 241.89861 
L 354.153278 251.406337 
L 356.695123 241.89861 
L 359.236967 233.662643 
L 364.320657 233.662643 
L 366.862502 241.89861 
L 369.404346 233.662643 
L 374.488036 233.662643 
L 377.029881 226.398005 
L 382.11357 226.398005 
L 384.655415 165.902284 
L 387.19726 146.260652 
L 389.739105 144.419376 
L 392.280949 140.893952 
L 394.822794 150.116791 
L 397.364639 150.116791 
L 399.906484 154.23019 
L 402.448328 160.965399 
L 404.990173 177.147538 
L 407.532018 174.138252 
L 410.073863 177.147538 
L 412.615708 187.171403 
L 415.157552 251.406337 
L 417.699397 262.651591 
L 420.241242 262.651591 
L 422.783087 251.406337 
L 425.324931 251.406337 
L 427.866776 262.651591 
L 430.408621 251.406337 
L 432.950466 241.89861 
L 435.49231 262.651591 
L 438.034155 241.89861 
L 440.576 226.398005 
L 443.117845 233.662643 
L 450.743379 233.662643 
L 453.285224 241.89861 
L 455.827069 251.406337 
L 460.910758 251.406337 
L 463.452603 241.89861 
L 468.536293 241.89861 
L 471.078137 233.662643 
L 473.619982 219.899564 
L 481.245516 219.899564 
L 483.787361 208.654311 
L 486.329206 214.02101 
L 493.95474 214.02101 
L 496.496585 219.899564 
L 499.03843 226.398005 
L 501.580275 219.899564 
L 504.122119 226.398005 
L 506.663964 226.398005 
L 509.205809 219.899564 
L 511.747654 233.662643 
L 514.289498 233.662643 
L 516.831343 241.89861 
L 519.373188 251.406337 
L 521.915033 262.651591 
L 524.456877 251.406337 
L 526.998722 251.406337 
L 529.540567 241.89861 
L 532.082412 251.406337 
L 534.624257 251.406337 
L 537.166101 262.651591 
L 539.707946 276.414669 
L 547.33348 276.414669 
L 549.875325 294.158363 
L 552.41717 319.166695 
L 554.959015 262.651591 
L 560.042704 262.651591 
L 562.584549 241.89861 
L 565.126394 233.662643 
L 567.668239 241.89861 
L 570.210083 233.662643 
L 585.461152 233.662643 
L 588.002997 241.89861 
L 590.544842 251.406337 
L 603.254065 251.406337 
L 605.79591 262.651591 
L 613.421445 262.651591 
L 615.963289 251.406337 
L 631.214358 251.406337 
L 633.756203 241.89861 
L 636.298047 219.899564 
L 638.839892 219.899564 
L 641.381737 203.717425 
L 643.923582 203.717425 
L 646.465427 219.899564 
L 659.17465 219.899564 
L 661.716495 233.662643 
L 669.342029 233.662643 
L 671.883874 241.89861 
L 689.676788 241.89861 
L 689.676788 241.89861 
" clip-path="url(#p055f62710a)" style="fill: none; stroke: #2ca02c; stroke-opacity: 0.9; stroke-width: 2; stroke-linecap: round"/>
   </g>
   <g id="line2d_60">
    <path d="M 89.801422 361.918722 
L 168.598609 361.918722 
L 171.140454 319.166695 
L 173.682299 361.918722 
L 196.558902 361.918722 
L 199.100747 294.158363 
L 201.642592 294.158363 
L 204.184436 319.166695 
L 211.809971 319.166695 
L 214.351815 361.918722 
L 216.89366 319.166695 
L 219.435505 319.166695 
L 221.97735 294.158363 
L 232.144729 294.158363 
L 234.686574 319.166695 
L 247.395797 319.166695 
L 249.937642 276.414669 
L 252.479487 276.414669 
L 255.021332 294.158363 
L 257.563176 319.166695 
L 265.188711 319.166695 
L 267.730556 294.158363 
L 272.814245 294.158363 
L 275.35609 276.414669 
L 280.439779 276.414669 
L 282.981624 251.406337 
L 285.523469 251.406337 
L 288.065314 262.651591 
L 295.690848 262.651591 
L 298.232693 276.414669 
L 300.774538 276.414669 
L 303.316382 294.158363 
L 326.192985 294.158363 
L 328.73483 319.166695 
L 331.276675 319.166695 
L 333.81852 294.158363 
L 346.527743 294.158363 
L 349.069588 319.166695 
L 371.946191 319.166695 
L 374.488036 294.158363 
L 377.029881 262.651591 
L 382.11357 262.651591 
L 384.655415 203.717425 
L 387.19726 190.910616 
L 389.739105 180.311213 
L 392.280949 177.147538 
L 394.822794 180.311213 
L 397.364639 177.147538 
L 399.906484 208.654311 
L 404.990173 208.654311 
L 407.532018 219.899564 
L 410.073863 226.398005 
L 412.615708 233.662643 
L 415.157552 294.158363 
L 422.783087 294.158363 
L 425.324931 276.414669 
L 430.408621 276.414669 
L 432.950466 262.651591 
L 435.49231 262.651591 
L 438.034155 251.406337 
L 440.576 251.406337 
L 443.117845 241.89861 
L 463.452603 241.89861 
L 465.994448 233.662643 
L 473.619982 233.662643 
L 476.161827 226.398005 
L 478.703672 226.398005 
L 481.245516 219.899564 
L 483.787361 214.02101 
L 488.871051 214.02101 
L 491.412895 219.899564 
L 499.03843 219.899564 
L 501.580275 214.02101 
L 504.122119 214.02101 
L 506.663964 208.654311 
L 514.289498 208.654311 
L 516.831343 203.717425 
L 521.915033 203.717425 
L 524.456877 194.891232 
L 526.998722 194.891232 
L 529.540567 190.910616 
L 532.082412 194.891232 
L 534.624257 190.910616 
L 549.875325 190.910616 
L 552.41717 187.171403 
L 554.959015 190.910616 
L 557.50086 187.171403 
L 560.042704 180.311213 
L 562.584549 177.147538 
L 565.126394 168.527282 
L 567.668239 174.138252 
L 575.293773 174.138252 
L 577.835618 171.268984 
L 580.377462 165.902284 
L 582.919307 165.902284 
L 585.461152 160.965399 
L 588.002997 139.204034 
L 590.544842 113.642531 
L 593.086686 110.423811 
L 595.628531 115.88562 
L 598.170376 119.411044 
L 600.712221 120.632433 
L 603.254065 117.038516 
L 605.79591 112.550854 
L 608.337755 111.478164 
L 610.8796 107.364764 
L 613.421445 106.377893 
L 615.963289 96.452008 
L 618.505134 95.624101 
L 621.046979 90.120491 
L 623.588824 87.182882 
L 626.130668 117.038516 
L 628.672513 113.642531 
L 631.214358 108.367683 
L 633.756203 97.291179 
L 636.298047 91.643485 
L 638.839892 67.151291 
L 641.381737 61.698268 
L 646.465427 55.389899 
L 649.007271 52.872075 
L 651.549116 48.891459 
L 654.090961 46.250402 
L 656.632806 43.364348 
L 659.17465 42.315969 
L 661.716495 42.315969 
L 664.25834 41.970433 
L 684.593098 41.970433 
L 687.134943 41.626821 
L 689.676788 39.936903 
L 689.676788 39.936903 
" clip-path="url(#p055f62710a)" style="fill: none; stroke: #1f77b4; stroke-opacity: 0.9; stroke-width: 2; stroke-linecap: round"/>
   </g>
   <g id="line2d_61">
    <path d="M 115.219869 361.918722 
L 336.360364 361.918722 
L 338.902209 319.166695 
L 346.527743 319.166695 
L 349.069588 294.158363 
L 364.320657 294.158363 
L 366.862502 276.414669 
L 394.822794 276.414669 
L 397.364639 262.651591 
L 438.034155 262.651591 
L 440.576 251.406337 
L 448.201534 251.406337 
L 450.743379 262.651591 
L 496.496585 262.651591 
L 499.03843 241.89861 
L 501.580275 241.89861 
L 504.122119 233.662643 
L 509.205809 233.662643 
L 511.747654 226.398005 
L 516.831343 226.398005 
L 519.373188 219.899564 
L 521.915033 219.899564 
L 524.456877 203.717425 
L 526.998722 208.654311 
L 532.082412 208.654311 
L 534.624257 203.717425 
L 537.166101 199.146584 
L 539.707946 199.146584 
L 542.249791 194.891232 
L 544.791636 194.891232 
L 547.33348 190.910616 
L 554.959015 190.910616 
L 557.50086 187.171403 
L 560.042704 152.139206 
L 562.584549 142.631479 
L 565.126394 154.23019 
L 567.668239 171.268984 
L 570.210083 171.268984 
L 572.751928 177.147538 
L 575.293773 177.147538 
L 577.835618 174.138252 
L 580.377462 180.311213 
L 582.919307 183.645978 
L 585.461152 180.311213 
L 588.002997 174.138252 
L 590.544842 174.138252 
L 593.086686 171.268984 
L 595.628531 180.311213 
L 598.170376 194.891232 
L 610.8796 194.891232 
L 613.421445 190.910616 
L 615.963289 117.038516 
L 618.505134 115.88562 
L 621.046979 115.88562 
L 623.588824 117.038516 
L 626.130668 183.645978 
L 633.756203 183.645978 
L 638.839892 177.147538 
L 641.381737 168.527282 
L 643.923582 165.902284 
L 646.465427 168.527282 
L 649.007271 165.902284 
L 661.716495 165.902284 
L 664.25834 168.527282 
L 666.800185 163.38446 
L 669.342029 165.902284 
L 674.425719 165.902284 
L 676.967564 163.38446 
L 679.509409 165.902284 
L 684.593098 165.902284 
L 687.134943 168.527282 
L 689.676788 168.527282 
L 689.676788 168.527282 
" clip-path="url(#p055f62710a)" style="fill: none; stroke: #ff7f0e; stroke-opacity: 0.9; stroke-width: 2; stroke-linecap: round"/>
   </g>
   <g id="line2d_62">
    <path d="M 115.219869 361.918722 
L 336.360364 361.918722 
L 338.902209 319.166695 
L 346.527743 319.166695 
L 349.069588 294.158363 
L 364.320657 294.158363 
L 366.862502 276.414669 
L 394.822794 276.414669 
L 397.364639 262.651591 
L 438.034155 262.651591 
L 440.576 251.406337 
L 448.201534 251.406337 
L 450.743379 262.651591 
L 493.95474 262.651591 
L 496.496585 251.406337 
L 499.03843 241.89861 
L 501.580275 233.662643 
L 504.122119 226.398005 
L 506.663964 233.662643 
L 509.205809 233.662643 
L 511.747654 226.398005 
L 514.289498 226.398005 
L 516.831343 219.899564 
L 519.373188 214.02101 
L 521.915033 214.02101 
L 524.456877 199.146584 
L 526.998722 203.717425 
L 532.082412 203.717425 
L 534.624257 199.146584 
L 537.166101 194.891232 
L 539.707946 194.891232 
L 542.249791 190.910616 
L 544.791636 187.171403 
L 552.41717 187.171403 
L 554.959015 190.910616 
L 557.50086 183.645978 
L 560.042704 150.116791 
L 562.584549 140.893952 
L 565.126394 146.260652 
L 567.668239 168.527282 
L 570.210083 168.527282 
L 572.751928 174.138252 
L 575.293773 174.138252 
L 577.835618 171.268984 
L 580.377462 177.147538 
L 582.919307 180.311213 
L 585.461152 177.147538 
L 588.002997 171.268984 
L 590.544842 171.268984 
L 593.086686 168.527282 
L 595.628531 180.311213 
L 598.170376 190.910616 
L 613.421445 190.910616 
L 615.963289 117.038516 
L 618.505134 115.88562 
L 621.046979 115.88562 
L 623.588824 117.038516 
L 626.130668 183.645978 
L 633.756203 183.645978 
L 638.839892 177.147538 
L 641.381737 168.527282 
L 643.923582 165.902284 
L 646.465427 168.527282 
L 649.007271 165.902284 
L 661.716495 165.902284 
L 664.25834 168.527282 
L 666.800185 163.38446 
L 669.342029 165.902284 
L 674.425719 165.902284 
L 676.967564 163.38446 
L 679.509409 165.902284 
L 684.593098 165.902284 
L 687.134943 168.527282 
L 689.676788 168.527282 
L 689.676788 168.527282 
" clip-path="url(#p055f62710a)" style="fill: none; stroke: #ffbb78; stroke-opacity: 0.9; stroke-width: 2; stroke-linecap: round"/>
   </g>
   <g id="patch_3">
    <path d="M 51.67375 378.017812 
L 51.67375 23.837812 
" style="fill: none; stroke: #262626; stroke-width: 1.25; stroke-linejoin: miter; stroke-linecap: square"/>
   </g>
   <g id="patch_4">
    <path d="M 51.67375 378.017812 
L 689.676788 378.017812 
" style="fill: none; stroke: #262626; stroke-width: 1.25; stroke-linejoin: miter; stroke-linecap: square"/>
   </g>
   <g id="text_12">
    <!-- Evolution of Available Records -->
    <g style="fill: #262626" transform="translate(51.67375 17.837812) scale(0.14 -0.14)">
     <defs>
      <path id="DejaVuSans-Bold-45" d="M 588 4666 
L 3834 4666 
L 3834 3756 
L 1791 3756 
L 1791 2888 
L 3713 2888 
L 3713 1978 
L 1791 1978 
L 1791 909 
L 3903 909 
L 3903 0 
L 588 0 
L 588 4666 
z
" transform="scale(0.015625)"/>
      <path id="DejaVuSans-Bold-76" d="M 97 3500 
L 1216 3500 
L 2088 1081 
L 2956 3500 
L 4078 3500 
L 2700 0 
L 1472 0 
L 97 3500 
z
" transform="scale(0.015625)"/>
      <path id="DejaVuSans-Bold-6f" d="M 2203 2784 
Q 1831 2784 1636 2517 
Q 1441 2250 1441 1747 
Q 1441 1244 1636 976 
Q 1831 709 2203 709 
Q 2569 709 2762 976 
Q 2956 1244 2956 1747 
Q 2956 2250 2762 2517 
Q 2569 2784 2203 2784 
z
M 2203 3584 
Q 3106 3584 3614 3096 
Q 4122 2609 4122 1747 
Q 4122 884 3614 396 
Q 3106 -91 2203 -91 
Q 1297 -91 786 396 
Q 275 884 275 1747 
Q 275 2609 786 3096 
Q 1297 3584 2203 3584 
z
" transform="scale(0.015625)"/>
      <path id="DejaVuSans-Bold-6c" d="M 538 4863 
L 1656 4863 
L 1656 0 
L 538 0 
L 538 4863 
z
" transform="scale(0.015625)"/>
      <path id="DejaVuSans-Bold-75" d="M 500 1363 
L 500 3500 
L 1625 3500 
L 1625 3150 
Q 1625 2866 1622 2436 
Q 1619 2006 1619 1863 
Q 1619 1441 1641 1255 
Q 1663 1069 1716 984 
Q 1784 875 1895 815 
Q 2006 756 2150 756 
Q 2500 756 2700 1025 
Q 2900 1294 2900 1772 
L 2900 3500 
L 4019 3500 
L 4019 0 
L 2900 0 
L 2900 506 
Q 2647 200 2364 54 
Q 2081 -91 1741 -91 
Q 1134 -91 817 281 
Q 500 653 500 1363 
z
" transform="scale(0.015625)"/>
      <path id="DejaVuSans-Bold-74" d="M 1759 4494 
L 1759 3500 
L 2913 3500 
L 2913 2700 
L 1759 2700 
L 1759 1216 
Q 1759 972 1856 886 
Q 1953 800 2241 800 
L 2816 800 
L 2816 0 
L 1856 0 
Q 1194 0 917 276 
Q 641 553 641 1216 
L 641 2700 
L 84 2700 
L 84 3500 
L 641 3500 
L 641 4494 
L 1759 4494 
z
" transform="scale(0.015625)"/>
      <path id="DejaVuSans-Bold-69" d="M 538 3500 
L 1656 3500 
L 1656 0 
L 538 0 
L 538 3500 
z
M 538 4863 
L 1656 4863 
L 1656 3950 
L 538 3950 
L 538 4863 
z
" transform="scale(0.015625)"/>
      <path id="DejaVuSans-Bold-6e" d="M 4056 2131 
L 4056 0 
L 2931 0 
L 2931 347 
L 2931 1631 
Q 2931 2084 2911 2256 
Q 2891 2428 2841 2509 
Q 2775 2619 2662 2680 
Q 2550 2741 2406 2741 
Q 2056 2741 1856 2470 
Q 1656 2200 1656 1722 
L 1656 0 
L 538 0 
L 538 3500 
L 1656 3500 
L 1656 2988 
Q 1909 3294 2193 3439 
Q 2478 3584 2822 3584 
Q 3428 3584 3742 3212 
Q 4056 2841 4056 2131 
z
" transform="scale(0.015625)"/>
      <path id="DejaVuSans-Bold-20" transform="scale(0.015625)"/>
      <path id="DejaVuSans-Bold-66" d="M 2841 4863 
L 2841 4128 
L 2222 4128 
Q 1984 4128 1890 4042 
Q 1797 3956 1797 3744 
L 1797 3500 
L 2753 3500 
L 2753 2700 
L 1797 2700 
L 1797 0 
L 678 0 
L 678 2700 
L 122 2700 
L 122 3500 
L 678 3500 
L 678 3744 
Q 678 4316 997 4589 
Q 1316 4863 1984 4863 
L 2841 4863 
z
" transform="scale(0.015625)"/>
      <path id="DejaVuSans-Bold-41" d="M 3419 850 
L 1538 850 
L 1241 0 
L 31 0 
L 1759 4666 
L 3194 4666 
L 4922 0 
L 3713 0 
L 3419 850 
z
M 1838 1716 
L 3116 1716 
L 2478 3572 
L 1838 1716 
z
" transform="scale(0.015625)"/>
      <path id="DejaVuSans-Bold-61" d="M 2106 1575 
Q 1756 1575 1579 1456 
Q 1403 1338 1403 1106 
Q 1403 894 1545 773 
Q 1688 653 1941 653 
Q 2256 653 2472 879 
Q 2688 1106 2688 1447 
L 2688 1575 
L 2106 1575 
z
M 3816 1997 
L 3816 0 
L 2688 0 
L 2688 519 
Q 2463 200 2181 54 
Q 1900 -91 1497 -91 
Q 953 -91 614 226 
Q 275 544 275 1050 
Q 275 1666 698 1953 
Q 1122 2241 2028 2241 
L 2688 2241 
L 2688 2328 
Q 2688 2594 2478 2717 
Q 2269 2841 1825 2841 
Q 1466 2841 1156 2769 
Q 847 2697 581 2553 
L 581 3406 
Q 941 3494 1303 3539 
Q 1666 3584 2028 3584 
Q 2975 3584 3395 3211 
Q 3816 2838 3816 1997 
z
" transform="scale(0.015625)"/>
      <path id="DejaVuSans-Bold-62" d="M 2400 722 
Q 2759 722 2948 984 
Q 3138 1247 3138 1747 
Q 3138 2247 2948 2509 
Q 2759 2772 2400 2772 
Q 2041 2772 1848 2508 
Q 1656 2244 1656 1747 
Q 1656 1250 1848 986 
Q 2041 722 2400 722 
z
M 1656 2988 
Q 1888 3294 2169 3439 
Q 2450 3584 2816 3584 
Q 3463 3584 3878 3070 
Q 4294 2556 4294 1747 
Q 4294 938 3878 423 
Q 3463 -91 2816 -91 
Q 2450 -91 2169 54 
Q 1888 200 1656 506 
L 1656 0 
L 538 0 
L 538 4863 
L 1656 4863 
L 1656 2988 
z
" transform="scale(0.015625)"/>
      <path id="DejaVuSans-Bold-65" d="M 4031 1759 
L 4031 1441 
L 1416 1441 
Q 1456 1047 1700 850 
Q 1944 653 2381 653 
Q 2734 653 3104 758 
Q 3475 863 3866 1075 
L 3866 213 
Q 3469 63 3072 -14 
Q 2675 -91 2278 -91 
Q 1328 -91 801 392 
Q 275 875 275 1747 
Q 275 2603 792 3093 
Q 1309 3584 2216 3584 
Q 3041 3584 3536 3087 
Q 4031 2591 4031 1759 
z
M 2881 2131 
Q 2881 2450 2695 2645 
Q 2509 2841 2209 2841 
Q 1884 2841 1681 2658 
Q 1478 2475 1428 2131 
L 2881 2131 
z
" transform="scale(0.015625)"/>
      <path id="DejaVuSans-Bold-52" d="M 2297 2597 
Q 2675 2597 2839 2737 
Q 3003 2878 3003 3200 
Q 3003 3519 2839 3656 
Q 2675 3794 2297 3794 
L 1791 3794 
L 1791 2597 
L 2297 2597 
z
M 1791 1766 
L 1791 0 
L 588 0 
L 588 4666 
L 2425 4666 
Q 3347 4666 3776 4356 
Q 4206 4047 4206 3378 
Q 4206 2916 3982 2619 
Q 3759 2322 3309 2181 
Q 3556 2125 3751 1926 
Q 3947 1728 4147 1325 
L 4800 0 
L 3519 0 
L 2950 1159 
Q 2778 1509 2601 1637 
Q 2425 1766 2131 1766 
L 1791 1766 
z
" transform="scale(0.015625)"/>
      <path id="DejaVuSans-Bold-63" d="M 3366 3391 
L 3366 2478 
Q 3138 2634 2908 2709 
Q 2678 2784 2431 2784 
Q 1963 2784 1702 2511 
Q 1441 2238 1441 1747 
Q 1441 1256 1702 982 
Q 1963 709 2431 709 
Q 2694 709 2930 787 
Q 3166 866 3366 1019 
L 3366 103 
Q 3103 6 2833 -42 
Q 2563 -91 2291 -91 
Q 1344 -91 809 395 
Q 275 881 275 1747 
Q 275 2613 809 3098 
Q 1344 3584 2291 3584 
Q 2566 3584 2833 3536 
Q 3100 3488 3366 3391 
z
" transform="scale(0.015625)"/>
      <path id="DejaVuSans-Bold-72" d="M 3138 2547 
Q 2991 2616 2845 2648 
Q 2700 2681 2553 2681 
Q 2122 2681 1889 2404 
Q 1656 2128 1656 1613 
L 1656 0 
L 538 0 
L 538 3500 
L 1656 3500 
L 1656 2925 
Q 1872 3269 2151 3426 
Q 2431 3584 2822 3584 
Q 2878 3584 2943 3579 
Q 3009 3575 3134 3559 
L 3138 2547 
z
" transform="scale(0.015625)"/>
      <path id="DejaVuSans-Bold-64" d="M 2919 2988 
L 2919 4863 
L 4044 4863 
L 4044 0 
L 2919 0 
L 2919 506 
Q 2688 197 2409 53 
Q 2131 -91 1766 -91 
Q 1119 -91 703 423 
Q 288 938 288 1747 
Q 288 2556 703 3070 
Q 1119 3584 1766 3584 
Q 2128 3584 2408 3439 
Q 2688 3294 2919 2988 
z
M 2181 722 
Q 2541 722 2730 984 
Q 2919 1247 2919 1747 
Q 2919 2247 2730 2509 
Q 2541 2772 2181 2772 
Q 1825 2772 1636 2509 
Q 1447 2247 1447 1747 
Q 1447 1247 1636 984 
Q 1825 722 2181 722 
z
" transform="scale(0.015625)"/>
      <path id="DejaVuSans-Bold-73" d="M 3272 3391 
L 3272 2541 
Q 2913 2691 2578 2766 
Q 2244 2841 1947 2841 
Q 1628 2841 1473 2761 
Q 1319 2681 1319 2516 
Q 1319 2381 1436 2309 
Q 1553 2238 1856 2203 
L 2053 2175 
Q 2913 2066 3209 1816 
Q 3506 1566 3506 1031 
Q 3506 472 3093 190 
Q 2681 -91 1863 -91 
Q 1516 -91 1145 -36 
Q 775 19 384 128 
L 384 978 
Q 719 816 1070 734 
Q 1422 653 1784 653 
Q 2113 653 2278 743 
Q 2444 834 2444 1013 
Q 2444 1163 2330 1236 
Q 2216 1309 1875 1350 
L 1678 1375 
Q 931 1469 631 1722 
Q 331 1975 331 2491 
Q 331 3047 712 3315 
Q 1094 3584 1881 3584 
Q 2191 3584 2531 3537 
Q 2872 3491 3272 3391 
z
" transform="scale(0.015625)"/>
     </defs>
     <use xlink:href="#DejaVuSans-Bold-45"/>
     <use xlink:href="#DejaVuSans-Bold-76" x="68.310547"/>
     <use xlink:href="#DejaVuSans-Bold-6f" x="133.496094"/>
     <use xlink:href="#DejaVuSans-Bold-6c" x="202.197266"/>
     <use xlink:href="#DejaVuSans-Bold-75" x="236.474609"/>
     <use xlink:href="#DejaVuSans-Bold-74" x="307.666016"/>
     <use xlink:href="#DejaVuSans-Bold-69" x="355.46875"/>
     <use xlink:href="#DejaVuSans-Bold-6f" x="389.746094"/>
     <use xlink:href="#DejaVuSans-Bold-6e" x="458.447266"/>
     <use xlink:href="#DejaVuSans-Bold-20" x="529.638672"/>
     <use xlink:href="#DejaVuSans-Bold-6f" x="564.453125"/>
     <use xlink:href="#DejaVuSans-Bold-66" x="633.154297"/>
     <use xlink:href="#DejaVuSans-Bold-20" x="676.660156"/>
     <use xlink:href="#DejaVuSans-Bold-41" x="711.474609"/>
     <use xlink:href="#DejaVuSans-Bold-76" x="785.242188"/>
     <use xlink:href="#DejaVuSans-Bold-61" x="850.427734"/>
     <use xlink:href="#DejaVuSans-Bold-69" x="917.908203"/>
     <use xlink:href="#DejaVuSans-Bold-6c" x="952.185547"/>
     <use xlink:href="#DejaVuSans-Bold-61" x="986.462891"/>
     <use xlink:href="#DejaVuSans-Bold-62" x="1053.943359"/>
     <use xlink:href="#DejaVuSans-Bold-6c" x="1125.525391"/>
     <use xlink:href="#DejaVuSans-Bold-65" x="1159.802734"/>
     <use xlink:href="#DejaVuSans-Bold-20" x="1227.625"/>
     <use xlink:href="#DejaVuSans-Bold-52" x="1262.439453"/>
     <use xlink:href="#DejaVuSans-Bold-65" x="1339.441406"/>
     <use xlink:href="#DejaVuSans-Bold-63" x="1407.263672"/>
     <use xlink:href="#DejaVuSans-Bold-6f" x="1466.541016"/>
     <use xlink:href="#DejaVuSans-Bold-72" x="1535.242188"/>
     <use xlink:href="#DejaVuSans-Bold-64" x="1584.558594"/>
     <use xlink:href="#DejaVuSans-Bold-73" x="1656.140625"/>
    </g>
   </g>
   <g id="legend_1">
    <g id="line2d_63">
     <path d="M 61.57375 38.246094 
L 72.57375 38.246094 
L 83.57375 38.246094 
" style="fill: none; stroke: #d62728; stroke-opacity: 0.9; stroke-width: 2; stroke-linecap: round"/>
    </g>
    <g id="text_13">
     <!-- Temperature -->
     <g style="fill: #262626" transform="translate(92.37375 42.096094) scale(0.11 -0.11)">
      <defs>
       <path id="DejaVuSans-54" d="M -19 4666 
L 3928 4666 
L 3928 4134 
L 2272 4134 
L 2272 0 
L 1638 0 
L 1638 4134 
L -19 4134 
L -19 4666 
z
" transform="scale(0.015625)"/>
       <path id="DejaVuSans-70" d="M 1159 525 
L 1159 -1331 
L 581 -1331 
L 581 3500 
L 1159 3500 
L 1159 2969 
Q 1341 3281 1617 3432 
Q 1894 3584 2278 3584 
Q 2916 3584 3314 3078 
Q 3713 2572 3713 1747 
Q 3713 922 3314 415 
Q 2916 -91 2278 -91 
Q 1894 -91 1617 61 
Q 1341 213 1159 525 
z
M 3116 1747 
Q 3116 2381 2855 2742 
Q 2594 3103 2138 3103 
Q 1681 3103 1420 2742 
Q 1159 2381 1159 1747 
Q 1159 1113 1420 752 
Q 1681 391 2138 391 
Q 2594 391 2855 752 
Q 3116 1113 3116 1747 
z
" transform="scale(0.015625)"/>
       <path id="DejaVuSans-74" d="M 1172 4494 
L 1172 3500 
L 2356 3500 
L 2356 3053 
L 1172 3053 
L 1172 1153 
Q 1172 725 1289 603 
Q 1406 481 1766 481 
L 2356 481 
L 2356 0 
L 1766 0 
Q 1100 0 847 248 
Q 594 497 594 1153 
L 594 3053 
L 172 3053 
L 172 3500 
L 594 3500 
L 594 4494 
L 1172 4494 
z
" transform="scale(0.015625)"/>
      </defs>
      <use xlink:href="#DejaVuSans-54"/>
      <use xlink:href="#DejaVuSans-65" x="44.083984"/>
      <use xlink:href="#DejaVuSans-6d" x="105.607422"/>
      <use xlink:href="#DejaVuSans-70" x="203.019531"/>
      <use xlink:href="#DejaVuSans-65" x="266.496094"/>
      <use xlink:href="#DejaVuSans-72" x="328.019531"/>
      <use xlink:href="#DejaVuSans-61" x="369.132812"/>
      <use xlink:href="#DejaVuSans-74" x="430.412109"/>
      <use xlink:href="#DejaVuSans-75" x="469.621094"/>
      <use xlink:href="#DejaVuSans-72" x="533"/>
      <use xlink:href="#DejaVuSans-65" x="571.863281"/>
     </g>
    </g>
    <g id="line2d_64">
     <path d="M 61.57375 54.392031 
L 72.57375 54.392031 
L 83.57375 54.392031 
" style="fill: none; stroke: #9467bd; stroke-opacity: 0.9; stroke-width: 2; stroke-linecap: round"/>
    </g>
    <g id="text_14">
     <!-- Pressure -->
     <g style="fill: #262626" transform="translate(92.37375 58.242031) scale(0.11 -0.11)">
      <defs>
       <path id="DejaVuSans-50" d="M 1259 4147 
L 1259 2394 
L 2053 2394 
Q 2494 2394 2734 2622 
Q 2975 2850 2975 3272 
Q 2975 3691 2734 3919 
Q 2494 4147 2053 4147 
L 1259 4147 
z
M 628 4666 
L 2053 4666 
Q 2838 4666 3239 4311 
Q 3641 3956 3641 3272 
Q 3641 2581 3239 2228 
Q 2838 1875 2053 1875 
L 1259 1875 
L 1259 0 
L 628 0 
L 628 4666 
z
" transform="scale(0.015625)"/>
      </defs>
      <use xlink:href="#DejaVuSans-50"/>
      <use xlink:href="#DejaVuSans-72" x="58.552734"/>
      <use xlink:href="#DejaVuSans-65" x="97.416016"/>
      <use xlink:href="#DejaVuSans-73" x="158.939453"/>
      <use xlink:href="#DejaVuSans-73" x="211.039062"/>
      <use xlink:href="#DejaVuSans-75" x="263.138672"/>
      <use xlink:href="#DejaVuSans-72" x="326.517578"/>
      <use xlink:href="#DejaVuSans-65" x="365.380859"/>
     </g>
    </g>
    <g id="line2d_65">
     <path d="M 61.57375 70.537969 
L 72.57375 70.537969 
L 83.57375 70.537969 
" style="fill: none; stroke: #2ca02c; stroke-opacity: 0.9; stroke-width: 2; stroke-linecap: round"/>
    </g>
    <g id="text_15">
     <!-- Wind Direction -->
     <g style="fill: #262626" transform="translate(92.37375 74.387969) scale(0.11 -0.11)">
      <defs>
       <path id="DejaVuSans-57" d="M 213 4666 
L 850 4666 
L 1831 722 
L 2809 4666 
L 3519 4666 
L 4500 722 
L 5478 4666 
L 6119 4666 
L 4947 0 
L 4153 0 
L 3169 4050 
L 2175 0 
L 1381 0 
L 213 4666 
z
" transform="scale(0.015625)"/>
       <path id="DejaVuSans-69" d="M 603 3500 
L 1178 3500 
L 1178 0 
L 603 0 
L 603 3500 
z
M 603 4863 
L 1178 4863 
L 1178 4134 
L 603 4134 
L 603 4863 
z
" transform="scale(0.015625)"/>
       <path id="DejaVuSans-6e" d="M 3513 2113 
L 3513 0 
L 2938 0 
L 2938 2094 
Q 2938 2591 2744 2837 
Q 2550 3084 2163 3084 
Q 1697 3084 1428 2787 
Q 1159 2491 1159 1978 
L 1159 0 
L 581 0 
L 581 3500 
L 1159 3500 
L 1159 2956 
Q 1366 3272 1645 3428 
Q 1925 3584 2291 3584 
Q 2894 3584 3203 3211 
Q 3513 2838 3513 2113 
z
" transform="scale(0.015625)"/>
       <path id="DejaVuSans-44" d="M 1259 4147 
L 1259 519 
L 2022 519 
Q 2988 519 3436 956 
Q 3884 1394 3884 2338 
Q 3884 3275 3436 3711 
Q 2988 4147 2022 4147 
L 1259 4147 
z
M 628 4666 
L 1925 4666 
Q 3281 4666 3915 4102 
Q 4550 3538 4550 2338 
Q 4550 1131 3912 565 
Q 3275 0 1925 0 
L 628 0 
L 628 4666 
z
" transform="scale(0.015625)"/>
      </defs>
      <use xlink:href="#DejaVuSans-57"/>
      <use xlink:href="#DejaVuSans-69" x="96.626953"/>
      <use xlink:href="#DejaVuSans-6e" x="124.410156"/>
      <use xlink:href="#DejaVuSans-64" x="187.789062"/>
      <use xlink:href="#DejaVuSans-20" x="251.265625"/>
      <use xlink:href="#DejaVuSans-44" x="283.052734"/>
      <use xlink:href="#DejaVuSans-69" x="360.054688"/>
      <use xlink:href="#DejaVuSans-72" x="387.837891"/>
      <use xlink:href="#DejaVuSans-65" x="426.701172"/>
      <use xlink:href="#DejaVuSans-63" x="488.224609"/>
      <use xlink:href="#DejaVuSans-74" x="543.205078"/>
      <use xlink:href="#DejaVuSans-69" x="582.414062"/>
      <use xlink:href="#DejaVuSans-6f" x="610.197266"/>
      <use xlink:href="#DejaVuSans-6e" x="671.378906"/>
     </g>
    </g>
    <g id="line2d_66">
     <path d="M 61.57375 86.683906 
L 72.57375 86.683906 
L 83.57375 86.683906 
" style="fill: none; stroke: #1f77b4; stroke-opacity: 0.9; stroke-width: 2; stroke-linecap: round"/>
    </g>
    <g id="text_16">
     <!-- Precipitation -->
     <g style="fill: #262626" transform="translate(92.37375 90.533906) scale(0.11 -0.11)">
      <use xlink:href="#DejaVuSans-50"/>
      <use xlink:href="#DejaVuSans-72" x="58.552734"/>
      <use xlink:href="#DejaVuSans-65" x="97.416016"/>
      <use xlink:href="#DejaVuSans-63" x="158.939453"/>
      <use xlink:href="#DejaVuSans-69" x="213.919922"/>
      <use xlink:href="#DejaVuSans-70" x="241.703125"/>
      <use xlink:href="#DejaVuSans-69" x="305.179688"/>
      <use xlink:href="#DejaVuSans-74" x="332.962891"/>
      <use xlink:href="#DejaVuSans-61" x="372.171875"/>
      <use xlink:href="#DejaVuSans-74" x="433.451172"/>
      <use xlink:href="#DejaVuSans-69" x="472.660156"/>
      <use xlink:href="#DejaVuSans-6f" x="500.443359"/>
      <use xlink:href="#DejaVuSans-6e" x="561.625"/>
     </g>
    </g>
    <g id="line2d_67">
     <path d="M 61.57375 102.829844 
L 72.57375 102.829844 
L 83.57375 102.829844 
" style="fill: none; stroke: #ff7f0e; stroke-opacity: 0.9; stroke-width: 2; stroke-linecap: round"/>
    </g>
    <g id="text_17">
     <!-- Maximum Temperature -->
     <g style="fill: #262626" transform="translate(92.37375 106.679844) scale(0.11 -0.11)">
      <defs>
       <path id="DejaVuSans-4d" d="M 628 4666 
L 1569 4666 
L 2759 1491 
L 3956 4666 
L 4897 4666 
L 4897 0 
L 4281 0 
L 4281 4097 
L 3078 897 
L 2444 897 
L 1241 4097 
L 1241 0 
L 628 0 
L 628 4666 
z
" transform="scale(0.015625)"/>
       <path id="DejaVuSans-78" d="M 3513 3500 
L 2247 1797 
L 3578 0 
L 2900 0 
L 1881 1375 
L 863 0 
L 184 0 
L 1544 1831 
L 300 3500 
L 978 3500 
L 1906 2253 
L 2834 3500 
L 3513 3500 
z
" transform="scale(0.015625)"/>
      </defs>
      <use xlink:href="#DejaVuSans-4d"/>
      <use xlink:href="#DejaVuSans-61" x="86.279297"/>
      <use xlink:href="#DejaVuSans-78" x="147.558594"/>
      <use xlink:href="#DejaVuSans-69" x="206.738281"/>
      <use xlink:href="#DejaVuSans-6d" x="234.521484"/>
      <use xlink:href="#DejaVuSans-75" x="331.933594"/>
      <use xlink:href="#DejaVuSans-6d" x="395.3125"/>
      <use xlink:href="#DejaVuSans-20" x="492.724609"/>
      <use xlink:href="#DejaVuSans-54" x="524.511719"/>
      <use xlink:href="#DejaVuSans-65" x="568.595703"/>
      <use xlink:href="#DejaVuSans-6d" x="630.119141"/>
      <use xlink:href="#DejaVuSans-70" x="727.53125"/>
      <use xlink:href="#DejaVuSans-65" x="791.007812"/>
      <use xlink:href="#DejaVuSans-72" x="852.53125"/>
      <use xlink:href="#DejaVuSans-61" x="893.644531"/>
      <use xlink:href="#DejaVuSans-74" x="954.923828"/>
      <use xlink:href="#DejaVuSans-75" x="994.132812"/>
      <use xlink:href="#DejaVuSans-72" x="1057.511719"/>
      <use xlink:href="#DejaVuSans-65" x="1096.375"/>
     </g>
    </g>
    <g id="line2d_68">
     <path d="M 61.57375 118.975781 
L 72.57375 118.975781 
L 83.57375 118.975781 
" style="fill: none; stroke: #ffbb78; stroke-opacity: 0.9; stroke-width: 2; stroke-linecap: round"/>
    </g>
    <g id="text_18">
     <!-- Minimum Temperature -->
     <g style="fill: #262626" transform="translate(92.37375 122.825781) scale(0.11 -0.11)">
      <use xlink:href="#DejaVuSans-4d"/>
      <use xlink:href="#DejaVuSans-69" x="86.279297"/>
      <use xlink:href="#DejaVuSans-6e" x="114.0625"/>
      <use xlink:href="#DejaVuSans-69" x="177.441406"/>
      <use xlink:href="#DejaVuSans-6d" x="205.224609"/>
      <use xlink:href="#DejaVuSans-75" x="302.636719"/>
      <use xlink:href="#DejaVuSans-6d" x="366.015625"/>
      <use xlink:href="#DejaVuSans-20" x="463.427734"/>
      <use xlink:href="#DejaVuSans-54" x="495.214844"/>
      <use xlink:href="#DejaVuSans-65" x="539.298828"/>
      <use xlink:href="#DejaVuSans-6d" x="600.822266"/>
      <use xlink:href="#DejaVuSans-70" x="698.234375"/>
      <use xlink:href="#DejaVuSans-65" x="761.710938"/>
      <use xlink:href="#DejaVuSans-72" x="823.234375"/>
      <use xlink:href="#DejaVuSans-61" x="864.347656"/>
      <use xlink:href="#DejaVuSans-74" x="925.626953"/>
      <use xlink:href="#DejaVuSans-75" x="964.835938"/>
      <use xlink:href="#DejaVuSans-72" x="1028.214844"/>
      <use xlink:href="#DejaVuSans-65" x="1067.078125"/>
     </g>
    </g>
   </g>
  </g>
 </g>
 <defs>
  <clipPath id="p055f62710a">
   <rect x="51.67375" y="23.837812" width="638.003038" height="354.18"/>
  </clipPath>
 </defs>
</svg>
