<?xml version="1.0" encoding="utf-8" standalone="no"?>
<!DOCTYPE svg PUBLIC "-//W3C//DTD SVG 1.1//EN"
  "http://www.w3.org/Graphics/SVG/1.1/DTD/svg11.dtd">
<svg xmlns:xlink="http://www.w3.org/1999/xlink" width="720pt" height="252pt" viewBox="0 0 720 252" xmlns="http://www.w3.org/2000/svg" version="1.1">
 <metadata>
  <rdf:RDF xmlns:dc="http://purl.org/dc/elements/1.1/" xmlns:cc="http://creativecommons.org/ns#" xmlns:rdf="http://www.w3.org/1999/02/22-rdf-syntax-ns#">
   <cc:Work>
    <dc:type rdf:resource="http://purl.org/dc/dcmitype/StillImage"/>
    <dc:date>2026-04-15T14:37:18.212907</dc:date>
    <dc:format>image/svg+xml</dc:format>
    <dc:creator>
     <cc:Agent>
      <dc:title>Matplotlib v3.8.4, https://matplotlib.org/</dc:title>
     </cc:Agent>
    </dc:creator>
   </cc:Work>
  </rdf:RDF>
 </metadata>
 <defs>
  <style type="text/css">*{stroke-linejoin: round; stroke-linecap: butt}</style>
 </defs>
 <g id="figure_1">
  <g id="patch_1">
   <path d="M 0 252 
L 720 252 
L 720 0 
L 0 0 
z
" style="fill: #ffffff"/>
  </g>
  <g id="axes_1">
   <g id="patch_2">
    <path d="M 45.92 223.4 
L 709.2 223.4 
L 709.2 25.44 
L 45.92 25.44 
z
" style="fill: #ffffff"/>
   </g>
   <g id="line2d_1">
    <path d="M 45.92 175.75206 
L 709.2 175.75206 
" clip-path="url(#p6355198c02)" style="fill: none; stroke: #000000; stroke-width: 0.5; stroke-linecap: square"/>
   </g>
   <g id="matplotlib.axis_1">
    <g id="xtick_1">
     <g id="line2d_2">
      <defs>
       <path id="m657f98ff5f" d="M 0 0 
L 0 3.5 
" style="stroke: #000000; stroke-width: 0.6"/>
      </defs>
      <g>
       <use xlink:href="#m657f98ff5f" x="71.034885" y="223.4" style="stroke: #000000; stroke-width: 0.6"/>
      </g>
     </g>
     <g id="text_1">
      <!-- Jan 1829 -->
      <g transform="translate(46.810823 238.758281) scale(0.11 -0.11)">
       <defs>
        <path id="DejaVuSans-4a" d="M 628 4666 
L 1259 4666 
L 1259 325 
Q 1259 -519 939 -900 
Q 619 -1281 -91 -1281 
L -331 -1281 
L -331 -750 
L -134 -750 
Q 284 -750 456 -515 
Q 628 -281 628 325 
L 628 4666 
z
" transform="scale(0.015625)"/>
        <path id="DejaVuSans-61" d="M 2194 1759 
Q 1497 1759 1228 1600 
Q 959 1441 959 1056 
Q 959 750 1161 570 
Q 1363 391 1709 391 
Q 2188 391 2477 730 
Q 2766 1069 2766 1631 
L 2766 1759 
L 2194 1759 
z
M 3341 1997 
L 3341 0 
L 2766 0 
L 2766 531 
Q 2569 213 2275 61 
Q 1981 -91 1556 -91 
Q 1019 -91 701 211 
Q 384 513 384 1019 
Q 384 1609 779 1909 
Q 1175 2209 1959 2209 
L 2766 2209 
L 2766 2266 
Q 2766 2663 2505 2880 
Q 2244 3097 1772 3097 
Q 1472 3097 1187 3025 
Q 903 2953 641 2809 
L 641 3341 
Q 956 3463 1253 3523 
Q 1550 3584 1831 3584 
Q 2591 3584 2966 3190 
Q 3341 2797 3341 1997 
z
" transform="scale(0.015625)"/>
        <path id="DejaVuSans-6e" d="M 3513 2113 
L 3513 0 
L 2938 0 
L 2938 2094 
Q 2938 2591 2744 2837 
Q 2550 3084 2163 3084 
Q 1697 3084 1428 2787 
Q 1159 2491 1159 1978 
L 1159 0 
L 581 0 
L 581 3500 
L 1159 3500 
L 1159 2956 
Q 1366 3272 1645 3428 
Q 1925 3584 2291 3584 
Q 2894 3584 3203 3211 
Q 3513 2838 3513 2113 
z
" transform="scale(0.015625)"/>
        <path id="DejaVuSans-20" transform="scale(0.015625)"/>
        <path id="DejaVuSans-31" d="M 794 531 
L 1825 531 
L 1825 4091 
L 703 3866 
L 703 4441 
L 1819 4666 
L 2450 4666 
L 2450 531 
L 3481 531 
L 3481 0 
L 794 0 
L 794 531 
z
" transform="scale(0.015625)"/>
        <path id="DejaVuSans-38" d="M 2034 2216 
Q 1584 2216 1326 1975 
Q 1069 1734 1069 1313 
Q 1069 891 1326 650 
Q 1584 409 2034 409 
Q 2484 409 2743 651 
Q 3003 894 3003 1313 
Q 3003 1734 2745 1975 
Q 2488 2216 2034 2216 
z
M 1403 2484 
Q 997 2584 770 2862 
Q 544 3141 544 3541 
Q 544 4100 942 4425 
Q 1341 4750 2034 4750 
Q 2731 4750 3128 4425 
Q 3525 4100 3525 3541 
Q 3525 3141 3298 2862 
Q 3072 2584 2669 2484 
Q 3125 2378 3379 2068 
Q 3634 1759 3634 1313 
Q 3634 634 3220 271 
Q 2806 -91 2034 -91 
Q 1263 -91 848 271 
Q 434 634 434 1313 
Q 434 1759 690 2068 
Q 947 2378 1403 2484 
z
M 1172 3481 
Q 1172 3119 1398 2916 
Q 1625 2713 2034 2713 
Q 2441 2713 2670 2916 
Q 2900 3119 2900 3481 
Q 2900 3844 2670 4047 
Q 2441 4250 2034 4250 
Q 1625 4250 1398 4047 
Q 1172 3844 1172 3481 
z
" transform="scale(0.015625)"/>
        <path id="DejaVuSans-32" d="M 1228 531 
L 3431 531 
L 3431 0 
L 469 0 
L 469 531 
Q 828 903 1448 1529 
Q 2069 2156 2228 2338 
Q 2531 2678 2651 2914 
Q 2772 3150 2772 3378 
Q 2772 3750 2511 3984 
Q 2250 4219 1831 4219 
Q 1534 4219 1204 4116 
Q 875 4013 500 3803 
L 500 4441 
Q 881 4594 1212 4672 
Q 1544 4750 1819 4750 
Q 2544 4750 2975 4387 
Q 3406 4025 3406 3419 
Q 3406 3131 3298 2873 
Q 3191 2616 2906 2266 
Q 2828 2175 2409 1742 
Q 1991 1309 1228 531 
z
" transform="scale(0.015625)"/>
        <path id="DejaVuSans-39" d="M 703 97 
L 703 672 
Q 941 559 1184 500 
Q 1428 441 1663 441 
Q 2288 441 2617 861 
Q 2947 1281 2994 2138 
Q 2813 1869 2534 1725 
Q 2256 1581 1919 1581 
Q 1219 1581 811 2004 
Q 403 2428 403 3163 
Q 403 3881 828 4315 
Q 1253 4750 1959 4750 
Q 2769 4750 3195 4129 
Q 3622 3509 3622 2328 
Q 3622 1225 3098 567 
Q 2575 -91 1691 -91 
Q 1453 -91 1209 -44 
Q 966 3 703 97 
z
M 1959 2075 
Q 2384 2075 2632 2365 
Q 2881 2656 2881 3163 
Q 2881 3666 2632 3958 
Q 2384 4250 1959 4250 
Q 1534 4250 1286 3958 
Q 1038 3666 1038 3163 
Q 1038 2656 1286 2365 
Q 1534 2075 1959 2075 
z
" transform="scale(0.015625)"/>
       </defs>
       <use xlink:href="#DejaVuSans-4a"/>
       <use xlink:href="#DejaVuSans-61" x="29.492188"/>
       <use xlink:href="#DejaVuSans-6e" x="90.771484"/>
       <use xlink:href="#DejaVuSans-20" x="154.150391"/>
       <use xlink:href="#DejaVuSans-31" x="185.9375"/>
       <use xlink:href="#DejaVuSans-38" x="249.560547"/>
       <use xlink:href="#DejaVuSans-32" x="313.183594"/>
       <use xlink:href="#DejaVuSans-39" x="376.806641"/>
      </g>
     </g>
    </g>
    <g id="xtick_2">
     <g id="line2d_3">
      <g>
       <use xlink:href="#m657f98ff5f" x="145.556102" y="223.4" style="stroke: #000000; stroke-width: 0.6"/>
      </g>
     </g>
     <g id="text_2">
      <!-- Jul 1829 -->
      <g transform="translate(123.174539 238.758281) scale(0.11 -0.11)">
       <defs>
        <path id="DejaVuSans-75" d="M 544 1381 
L 544 3500 
L 1119 3500 
L 1119 1403 
Q 1119 906 1312 657 
Q 1506 409 1894 409 
Q 2359 409 2629 706 
Q 2900 1003 2900 1516 
L 2900 3500 
L 3475 3500 
L 3475 0 
L 2900 0 
L 2900 538 
Q 2691 219 2414 64 
Q 2138 -91 1772 -91 
Q 1169 -91 856 284 
Q 544 659 544 1381 
z
M 1991 3584 
L 1991 3584 
z
" transform="scale(0.015625)"/>
        <path id="DejaVuSans-6c" d="M 603 4863 
L 1178 4863 
L 1178 0 
L 603 0 
L 603 4863 
z
" transform="scale(0.015625)"/>
       </defs>
       <use xlink:href="#DejaVuSans-4a"/>
       <use xlink:href="#DejaVuSans-75" x="29.492188"/>
       <use xlink:href="#DejaVuSans-6c" x="92.871094"/>
       <use xlink:href="#DejaVuSans-20" x="120.654297"/>
       <use xlink:href="#DejaVuSans-31" x="152.441406"/>
       <use xlink:href="#DejaVuSans-38" x="216.064453"/>
       <use xlink:href="#DejaVuSans-32" x="279.6875"/>
       <use xlink:href="#DejaVuSans-39" x="343.310547"/>
      </g>
     </g>
    </g>
    <g id="xtick_3">
     <g id="line2d_4">
      <g>
       <use xlink:href="#m657f98ff5f" x="221.312477" y="223.4" style="stroke: #000000; stroke-width: 0.6"/>
      </g>
     </g>
     <g id="text_3">
      <!-- Jan 1830 -->
      <g transform="translate(197.088414 238.758281) scale(0.11 -0.11)">
       <defs>
        <path id="DejaVuSans-33" d="M 2597 2516 
Q 3050 2419 3304 2112 
Q 3559 1806 3559 1356 
Q 3559 666 3084 287 
Q 2609 -91 1734 -91 
Q 1441 -91 1130 -33 
Q 819 25 488 141 
L 488 750 
Q 750 597 1062 519 
Q 1375 441 1716 441 
Q 2309 441 2620 675 
Q 2931 909 2931 1356 
Q 2931 1769 2642 2001 
Q 2353 2234 1838 2234 
L 1294 2234 
L 1294 2753 
L 1863 2753 
Q 2328 2753 2575 2939 
Q 2822 3125 2822 3475 
Q 2822 3834 2567 4026 
Q 2313 4219 1838 4219 
Q 1578 4219 1281 4162 
Q 984 4106 628 3988 
L 628 4550 
Q 988 4650 1302 4700 
Q 1616 4750 1894 4750 
Q 2613 4750 3031 4423 
Q 3450 4097 3450 3541 
Q 3450 3153 3228 2886 
Q 3006 2619 2597 2516 
z
" transform="scale(0.015625)"/>
        <path id="DejaVuSans-30" d="M 2034 4250 
Q 1547 4250 1301 3770 
Q 1056 3291 1056 2328 
Q 1056 1369 1301 889 
Q 1547 409 2034 409 
Q 2525 409 2770 889 
Q 3016 1369 3016 2328 
Q 3016 3291 2770 3770 
Q 2525 4250 2034 4250 
z
M 2034 4750 
Q 2819 4750 3233 4129 
Q 3647 3509 3647 2328 
Q 3647 1150 3233 529 
Q 2819 -91 2034 -91 
Q 1250 -91 836 529 
Q 422 1150 422 2328 
Q 422 3509 836 4129 
Q 1250 4750 2034 4750 
z
" transform="scale(0.015625)"/>
       </defs>
       <use xlink:href="#DejaVuSans-4a"/>
       <use xlink:href="#DejaVuSans-61" x="29.492188"/>
       <use xlink:href="#DejaVuSans-6e" x="90.771484"/>
       <use xlink:href="#DejaVuSans-20" x="154.150391"/>
       <use xlink:href="#DejaVuSans-31" x="185.9375"/>
       <use xlink:href="#DejaVuSans-38" x="249.560547"/>
       <use xlink:href="#DejaVuSans-33" x="313.183594"/>
       <use xlink:href="#DejaVuSans-30" x="376.806641"/>
      </g>
     </g>
    </g>
    <g id="xtick_4">
     <g id="line2d_5">
      <g>
       <use xlink:href="#m657f98ff5f" x="295.833693" y="223.4" style="stroke: #000000; stroke-width: 0.6"/>
      </g>
     </g>
     <g id="text_4">
      <!-- Jul 1830 -->
      <g transform="translate(273.452131 238.758281) scale(0.11 -0.11)">
       <use xlink:href="#DejaVuSans-4a"/>
       <use xlink:href="#DejaVuSans-75" x="29.492188"/>
       <use xlink:href="#DejaVuSans-6c" x="92.871094"/>
       <use xlink:href="#DejaVuSans-20" x="120.654297"/>
       <use xlink:href="#DejaVuSans-31" x="152.441406"/>
       <use xlink:href="#DejaVuSans-38" x="216.064453"/>
       <use xlink:href="#DejaVuSans-33" x="279.6875"/>
       <use xlink:href="#DejaVuSans-30" x="343.310547"/>
      </g>
     </g>
    </g>
    <g id="xtick_5">
     <g id="line2d_6">
      <g>
       <use xlink:href="#m657f98ff5f" x="371.590068" y="223.4" style="stroke: #000000; stroke-width: 0.6"/>
      </g>
     </g>
     <g id="text_5">
      <!-- Jan 1831 -->
      <g transform="translate(347.366006 238.758281) scale(0.11 -0.11)">
       <use xlink:href="#DejaVuSans-4a"/>
       <use xlink:href="#DejaVuSans-61" x="29.492188"/>
       <use xlink:href="#DejaVuSans-6e" x="90.771484"/>
       <use xlink:href="#DejaVuSans-20" x="154.150391"/>
       <use xlink:href="#DejaVuSans-31" x="185.9375"/>
       <use xlink:href="#DejaVuSans-38" x="249.560547"/>
       <use xlink:href="#DejaVuSans-33" x="313.183594"/>
       <use xlink:href="#DejaVuSans-31" x="376.806641"/>
      </g>
     </g>
    </g>
    <g id="xtick_6">
     <g id="line2d_7">
      <g>
       <use xlink:href="#m657f98ff5f" x="446.111285" y="223.4" style="stroke: #000000; stroke-width: 0.6"/>
      </g>
     </g>
     <g id="text_6">
      <!-- Jul 1831 -->
      <g transform="translate(423.729722 238.758281) scale(0.11 -0.11)">
       <use xlink:href="#DejaVuSans-4a"/>
       <use xlink:href="#DejaVuSans-75" x="29.492188"/>
       <use xlink:href="#DejaVuSans-6c" x="92.871094"/>
       <use xlink:href="#DejaVuSans-20" x="120.654297"/>
       <use xlink:href="#DejaVuSans-31" x="152.441406"/>
       <use xlink:href="#DejaVuSans-38" x="216.064453"/>
       <use xlink:href="#DejaVuSans-33" x="279.6875"/>
       <use xlink:href="#DejaVuSans-31" x="343.310547"/>
      </g>
     </g>
    </g>
    <g id="xtick_7">
     <g id="line2d_8">
      <g>
       <use xlink:href="#m657f98ff5f" x="521.86766" y="223.4" style="stroke: #000000; stroke-width: 0.6"/>
      </g>
     </g>
     <g id="text_7">
      <!-- Jan 1832 -->
      <g transform="translate(497.643597 238.758281) scale(0.11 -0.11)">
       <use xlink:href="#DejaVuSans-4a"/>
       <use xlink:href="#DejaVuSans-61" x="29.492188"/>
       <use xlink:href="#DejaVuSans-6e" x="90.771484"/>
       <use xlink:href="#DejaVuSans-20" x="154.150391"/>
       <use xlink:href="#DejaVuSans-31" x="185.9375"/>
       <use xlink:href="#DejaVuSans-38" x="249.560547"/>
       <use xlink:href="#DejaVuSans-33" x="313.183594"/>
       <use xlink:href="#DejaVuSans-32" x="376.806641"/>
      </g>
     </g>
    </g>
    <g id="xtick_8">
     <g id="line2d_9">
      <g>
       <use xlink:href="#m657f98ff5f" x="596.800596" y="223.4" style="stroke: #000000; stroke-width: 0.6"/>
      </g>
     </g>
     <g id="text_8">
      <!-- Jul 1832 -->
      <g transform="translate(574.419033 238.758281) scale(0.11 -0.11)">
       <use xlink:href="#DejaVuSans-4a"/>
       <use xlink:href="#DejaVuSans-75" x="29.492188"/>
       <use xlink:href="#DejaVuSans-6c" x="92.871094"/>
       <use xlink:href="#DejaVuSans-20" x="120.654297"/>
       <use xlink:href="#DejaVuSans-31" x="152.441406"/>
       <use xlink:href="#DejaVuSans-38" x="216.064453"/>
       <use xlink:href="#DejaVuSans-33" x="279.6875"/>
       <use xlink:href="#DejaVuSans-32" x="343.310547"/>
      </g>
     </g>
    </g>
    <g id="xtick_9">
     <g id="line2d_10">
      <g>
       <use xlink:href="#m657f98ff5f" x="672.556971" y="223.4" style="stroke: #000000; stroke-width: 0.6"/>
      </g>
     </g>
     <g id="text_9">
      <!-- Jan 1833 -->
      <g transform="translate(648.332908 238.758281) scale(0.11 -0.11)">
       <use xlink:href="#DejaVuSans-4a"/>
       <use xlink:href="#DejaVuSans-61" x="29.492188"/>
       <use xlink:href="#DejaVuSans-6e" x="90.771484"/>
       <use xlink:href="#DejaVuSans-20" x="154.150391"/>
       <use xlink:href="#DejaVuSans-31" x="185.9375"/>
       <use xlink:href="#DejaVuSans-38" x="249.560547"/>
       <use xlink:href="#DejaVuSans-33" x="313.183594"/>
       <use xlink:href="#DejaVuSans-33" x="376.806641"/>
      </g>
     </g>
    </g>
   </g>
   <g id="matplotlib.axis_2">
    <g id="ytick_1">
     <g id="line2d_11">
      <path d="M 45.92 175.75206 
L 709.2 175.75206 
" clip-path="url(#p6355198c02)" style="fill: none; stroke: #b0b0b0; stroke-opacity: 0.3; stroke-width: 0.5; stroke-linecap: square"/>
     </g>
     <g id="line2d_12">
      <defs>
       <path id="mf47ee2fecb" d="M 0 0 
L -3.5 0 
" style="stroke: #000000; stroke-width: 0.6"/>
      </defs>
      <g>
       <use xlink:href="#mf47ee2fecb" x="45.92" y="175.75206" style="stroke: #000000; stroke-width: 0.6"/>
      </g>
     </g>
     <g id="text_10">
      <!-- 0 -->
      <g transform="translate(31.92125 179.9312) scale(0.11 -0.11)">
       <use xlink:href="#DejaVuSans-30"/>
      </g>
     </g>
    </g>
    <g id="ytick_2">
     <g id="line2d_13">
      <path d="M 45.92 126.630471 
L 709.2 126.630471 
" clip-path="url(#p6355198c02)" style="fill: none; stroke: #b0b0b0; stroke-opacity: 0.3; stroke-width: 0.5; stroke-linecap: square"/>
     </g>
     <g id="line2d_14">
      <g>
       <use xlink:href="#mf47ee2fecb" x="45.92" y="126.630471" style="stroke: #000000; stroke-width: 0.6"/>
      </g>
     </g>
     <g id="text_11">
      <!-- 10 -->
      <g transform="translate(24.9225 130.809612) scale(0.11 -0.11)">
       <use xlink:href="#DejaVuSans-31"/>
       <use xlink:href="#DejaVuSans-30" x="63.623047"/>
      </g>
     </g>
    </g>
    <g id="ytick_3">
     <g id="line2d_15">
      <path d="M 45.92 77.508883 
L 709.2 77.508883 
" clip-path="url(#p6355198c02)" style="fill: none; stroke: #b0b0b0; stroke-opacity: 0.3; stroke-width: 0.5; stroke-linecap: square"/>
     </g>
     <g id="line2d_16">
      <g>
       <use xlink:href="#mf47ee2fecb" x="45.92" y="77.508883" style="stroke: #000000; stroke-width: 0.6"/>
      </g>
     </g>
     <g id="text_12">
      <!-- 20 -->
      <g transform="translate(24.9225 81.688024) scale(0.11 -0.11)">
       <use xlink:href="#DejaVuSans-32"/>
       <use xlink:href="#DejaVuSans-30" x="63.623047"/>
      </g>
     </g>
    </g>
    <g id="ytick_4">
     <g id="line2d_17">
      <path d="M 45.92 28.387295 
L 709.2 28.387295 
" clip-path="url(#p6355198c02)" style="fill: none; stroke: #b0b0b0; stroke-opacity: 0.3; stroke-width: 0.5; stroke-linecap: square"/>
     </g>
     <g id="line2d_18">
      <g>
       <use xlink:href="#mf47ee2fecb" x="45.92" y="28.387295" style="stroke: #000000; stroke-width: 0.6"/>
      </g>
     </g>
     <g id="text_13">
      <!-- 30 -->
      <g transform="translate(24.9225 32.566436) scale(0.11 -0.11)">
       <use xlink:href="#DejaVuSans-33"/>
       <use xlink:href="#DejaVuSans-30" x="63.623047"/>
      </g>
     </g>
    </g>
    <g id="text_14">
     <!-- Temperature (°C) -->
     <g transform="translate(18.842812 167.571562) rotate(-90) scale(0.1 -0.1)">
      <defs>
       <path id="DejaVuSans-54" d="M -19 4666 
L 3928 4666 
L 3928 4134 
L 2272 4134 
L 2272 0 
L 1638 0 
L 1638 4134 
L -19 4134 
L -19 4666 
z
" transform="scale(0.015625)"/>
       <path id="DejaVuSans-65" d="M 3597 1894 
L 3597 1613 
L 953 1613 
Q 991 1019 1311 708 
Q 1631 397 2203 397 
Q 2534 397 2845 478 
Q 3156 559 3463 722 
L 3463 178 
Q 3153 47 2828 -22 
Q 2503 -91 2169 -91 
Q 1331 -91 842 396 
Q 353 884 353 1716 
Q 353 2575 817 3079 
Q 1281 3584 2069 3584 
Q 2775 3584 3186 3129 
Q 3597 2675 3597 1894 
z
M 3022 2063 
Q 3016 2534 2758 2815 
Q 2500 3097 2075 3097 
Q 1594 3097 1305 2825 
Q 1016 2553 972 2059 
L 3022 2063 
z
" transform="scale(0.015625)"/>
       <path id="DejaVuSans-6d" d="M 3328 2828 
Q 3544 3216 3844 3400 
Q 4144 3584 4550 3584 
Q 5097 3584 5394 3201 
Q 5691 2819 5691 2113 
L 5691 0 
L 5113 0 
L 5113 2094 
Q 5113 2597 4934 2840 
Q 4756 3084 4391 3084 
Q 3944 3084 3684 2787 
Q 3425 2491 3425 1978 
L 3425 0 
L 2847 0 
L 2847 2094 
Q 2847 2600 2669 2842 
Q 2491 3084 2119 3084 
Q 1678 3084 1418 2786 
Q 1159 2488 1159 1978 
L 1159 0 
L 581 0 
L 581 3500 
L 1159 3500 
L 1159 2956 
Q 1356 3278 1631 3431 
Q 1906 3584 2284 3584 
Q 2666 3584 2933 3390 
Q 3200 3197 3328 2828 
z
" transform="scale(0.015625)"/>
       <path id="DejaVuSans-70" d="M 1159 525 
L 1159 -1331 
L 581 -1331 
L 581 3500 
L 1159 3500 
L 1159 2969 
Q 1341 3281 1617 3432 
Q 1894 3584 2278 3584 
Q 2916 3584 3314 3078 
Q 3713 2572 3713 1747 
Q 3713 922 3314 415 
Q 2916 -91 2278 -91 
Q 1894 -91 1617 61 
Q 1341 213 1159 525 
z
M 3116 1747 
Q 3116 2381 2855 2742 
Q 2594 3103 2138 3103 
Q 1681 3103 1420 2742 
Q 1159 2381 1159 1747 
Q 1159 1113 1420 752 
Q 1681 391 2138 391 
Q 2594 391 2855 752 
Q 3116 1113 3116 1747 
z
" transform="scale(0.015625)"/>
       <path id="DejaVuSans-72" d="M 2631 2963 
Q 2534 3019 2420 3045 
Q 2306 3072 2169 3072 
Q 1681 3072 1420 2755 
Q 1159 2438 1159 1844 
L 1159 0 
L 581 0 
L 581 3500 
L 1159 3500 
L 1159 2956 
Q 1341 3275 1631 3429 
Q 1922 3584 2338 3584 
Q 2397 3584 2469 3576 
Q 2541 3569 2628 3553 
L 2631 2963 
z
" transform="scale(0.015625)"/>
       <path id="DejaVuSans-74" d="M 1172 4494 
L 1172 3500 
L 2356 3500 
L 2356 3053 
L 1172 3053 
L 1172 1153 
Q 1172 725 1289 603 
Q 1406 481 1766 481 
L 2356 481 
L 2356 0 
L 1766 0 
Q 1100 0 847 248 
Q 594 497 594 1153 
L 594 3053 
L 172 3053 
L 172 3500 
L 594 3500 
L 594 4494 
L 1172 4494 
z
" transform="scale(0.015625)"/>
       <path id="DejaVuSans-28" d="M 1984 4856 
Q 1566 4138 1362 3434 
Q 1159 2731 1159 2009 
Q 1159 1288 1364 580 
Q 1569 -128 1984 -844 
L 1484 -844 
Q 1016 -109 783 600 
Q 550 1309 550 2009 
Q 550 2706 781 3412 
Q 1013 4119 1484 4856 
L 1984 4856 
z
" transform="scale(0.015625)"/>
       <path id="DejaVuSans-b0" d="M 1600 4347 
Q 1350 4347 1178 4173 
Q 1006 4000 1006 3750 
Q 1006 3503 1178 3333 
Q 1350 3163 1600 3163 
Q 1850 3163 2022 3333 
Q 2194 3503 2194 3750 
Q 2194 3997 2020 4172 
Q 1847 4347 1600 4347 
z
M 1600 4750 
Q 1800 4750 1984 4673 
Q 2169 4597 2303 4453 
Q 2447 4313 2519 4134 
Q 2591 3956 2591 3750 
Q 2591 3338 2302 3052 
Q 2013 2766 1594 2766 
Q 1172 2766 890 3047 
Q 609 3328 609 3750 
Q 609 4169 896 4459 
Q 1184 4750 1600 4750 
z
" transform="scale(0.015625)"/>
       <path id="DejaVuSans-43" d="M 4122 4306 
L 4122 3641 
Q 3803 3938 3442 4084 
Q 3081 4231 2675 4231 
Q 1875 4231 1450 3742 
Q 1025 3253 1025 2328 
Q 1025 1406 1450 917 
Q 1875 428 2675 428 
Q 3081 428 3442 575 
Q 3803 722 4122 1019 
L 4122 359 
Q 3791 134 3420 21 
Q 3050 -91 2638 -91 
Q 1578 -91 968 557 
Q 359 1206 359 2328 
Q 359 3453 968 4101 
Q 1578 4750 2638 4750 
Q 3056 4750 3426 4639 
Q 3797 4528 4122 4306 
z
" transform="scale(0.015625)"/>
       <path id="DejaVuSans-29" d="M 513 4856 
L 1013 4856 
Q 1481 4119 1714 3412 
Q 1947 2706 1947 2009 
Q 1947 1309 1714 600 
Q 1481 -109 1013 -844 
L 513 -844 
Q 928 -128 1133 580 
Q 1338 1288 1338 2009 
Q 1338 2731 1133 3434 
Q 928 4138 513 4856 
z
" transform="scale(0.015625)"/>
      </defs>
      <use xlink:href="#DejaVuSans-54"/>
      <use xlink:href="#DejaVuSans-65" x="44.083984"/>
      <use xlink:href="#DejaVuSans-6d" x="105.607422"/>
      <use xlink:href="#DejaVuSans-70" x="203.019531"/>
      <use xlink:href="#DejaVuSans-65" x="266.496094"/>
      <use xlink:href="#DejaVuSans-72" x="328.019531"/>
      <use xlink:href="#DejaVuSans-61" x="369.132812"/>
      <use xlink:href="#DejaVuSans-74" x="430.412109"/>
      <use xlink:href="#DejaVuSans-75" x="469.621094"/>
      <use xlink:href="#DejaVuSans-72" x="533"/>
      <use xlink:href="#DejaVuSans-65" x="571.863281"/>
      <use xlink:href="#DejaVuSans-20" x="633.386719"/>
      <use xlink:href="#DejaVuSans-28" x="665.173828"/>
      <use xlink:href="#DejaVuSans-b0" x="704.1875"/>
      <use xlink:href="#DejaVuSans-43" x="754.1875"/>
      <use xlink:href="#DejaVuSans-29" x="824.011719"/>
     </g>
    </g>
   </g>
   <g id="patch_3">
    <path d="M 45.92 175.75206 
L 57.859863 175.75206 
L 57.859863 139.942422 
L 45.92 139.942422 
z
" clip-path="url(#p6355198c02)" style="fill: #c2845a; opacity: 0.3; stroke: #ffffff; stroke-width: 0.5; stroke-linejoin: miter"/>
   </g>
   <g id="patch_4">
    <path d="M 58.271583 175.75206 
L 70.623166 175.75206 
L 70.623166 157.022473 
L 58.271583 157.022473 
z
" clip-path="url(#p6355198c02)" style="fill: #c2845a; opacity: 0.3; stroke: #ffffff; stroke-width: 0.5; stroke-linejoin: miter"/>
   </g>
   <g id="patch_5">
    <path d="M 71.034885 175.75206 
L 83.386468 175.75206 
L 83.386468 167.338007 
L 71.034885 167.338007 
z
" clip-path="url(#p6355198c02)" style="fill: #c2845a; opacity: 0.3; stroke: #ffffff; stroke-width: 0.5; stroke-linejoin: miter"/>
   </g>
   <g id="patch_6">
    <path d="M 83.798187 175.75206 
L 94.914612 175.75206 
L 94.914612 165.348809 
L 83.798187 165.348809 
z
" clip-path="url(#p6355198c02)" style="fill: #c2845a; opacity: 0.3; stroke: #ffffff; stroke-width: 0.5; stroke-linejoin: miter"/>
   </g>
   <g id="patch_7">
    <path d="M 95.326331 175.75206 
L 107.677914 175.75206 
L 107.677914 140.067603 
L 95.326331 140.067603 
z
" clip-path="url(#p6355198c02)" style="fill: #c2845a; opacity: 0.3; stroke: #ffffff; stroke-width: 0.5; stroke-linejoin: miter"/>
   </g>
   <g id="patch_8">
    <path d="M 108.089634 175.75206 
L 120.029497 175.75206 
L 120.029497 113.69512 
L 108.089634 113.69512 
z
" clip-path="url(#p6355198c02)" style="fill: #c2845a; opacity: 0.3; stroke: #ffffff; stroke-width: 0.5; stroke-linejoin: miter"/>
   </g>
   <g id="patch_9">
    <path d="M 120.441217 175.75206 
L 132.7928 175.75206 
L 132.7928 90.740021 
L 120.441217 90.740021 
z
" clip-path="url(#p6355198c02)" style="fill: #c2845a; opacity: 0.3; stroke: #ffffff; stroke-width: 0.5; stroke-linejoin: miter"/>
   </g>
   <g id="patch_10">
    <path d="M 133.204519 175.75206 
L 145.144382 175.75206 
L 145.144382 78.769671 
L 133.204519 78.769671 
z
" clip-path="url(#p6355198c02)" style="fill: #c2845a; opacity: 0.3; stroke: #ffffff; stroke-width: 0.5; stroke-linejoin: miter"/>
   </g>
   <g id="patch_11">
    <path d="M 145.556102 175.75206 
L 157.907685 175.75206 
L 157.907685 60.506476 
L 145.556102 60.506476 
z
" clip-path="url(#p6355198c02)" style="fill: #c2845a; opacity: 0.3; stroke: #ffffff; stroke-width: 0.5; stroke-linejoin: miter"/>
   </g>
   <g id="patch_12">
    <path d="M 158.319404 175.75206 
L 170.670987 175.75206 
L 170.670987 74.561588 
L 158.319404 74.561588 
z
" clip-path="url(#p6355198c02)" style="fill: #c2845a; opacity: 0.3; stroke: #ffffff; stroke-width: 0.5; stroke-linejoin: miter"/>
   </g>
   <g id="patch_13">
    <path d="M 171.082706 175.75206 
L 183.02257 175.75206 
L 183.02257 84.156672 
L 171.082706 84.156672 
z
" clip-path="url(#p6355198c02)" style="fill: #c2845a; opacity: 0.3; stroke: #ffffff; stroke-width: 0.5; stroke-linejoin: miter"/>
   </g>
   <g id="patch_14">
    <path d="M 183.434289 175.75206 
L 195.785872 175.75206 
L 195.785872 114.080698 
L 183.434289 114.080698 
z
" clip-path="url(#p6355198c02)" style="fill: #c2845a; opacity: 0.3; stroke: #ffffff; stroke-width: 0.5; stroke-linejoin: miter"/>
   </g>
   <g id="patch_15">
    <path d="M 196.197592 175.75206 
L 208.137455 175.75206 
L 208.137455 148.489578 
L 196.197592 148.489578 
z
" clip-path="url(#p6355198c02)" style="fill: #c2845a; opacity: 0.3; stroke: #ffffff; stroke-width: 0.5; stroke-linejoin: miter"/>
   </g>
   <g id="patch_16">
    <path d="M 208.549174 175.75206 
L 220.900757 175.75206 
L 220.900757 169.271179 
L 208.549174 169.271179 
z
" clip-path="url(#p6355198c02)" style="fill: #c2845a; opacity: 0.3; stroke: #ffffff; stroke-width: 0.5; stroke-linejoin: miter"/>
   </g>
   <g id="patch_17">
    <path d="M 221.312477 175.75206 
L 233.66406 175.75206 
L 233.66406 187.319401 
L 221.312477 187.319401 
z
" clip-path="url(#p6355198c02)" style="fill: #4682b4; opacity: 0.3; stroke: #ffffff; stroke-width: 0.5; stroke-linejoin: miter"/>
   </g>
   <g id="patch_18">
    <path d="M 234.075779 175.75206 
L 245.192204 175.75206 
L 245.192204 171.945136 
L 234.075779 171.945136 
z
" clip-path="url(#p6355198c02)" style="fill: #c2845a; opacity: 0.3; stroke: #ffffff; stroke-width: 0.5; stroke-linejoin: miter"/>
   </g>
   <g id="patch_19">
    <path d="M 245.603923 175.75206 
L 257.955506 175.75206 
L 257.955506 134.426543 
L 245.603923 134.426543 
z
" clip-path="url(#p6355198c02)" style="fill: #c2845a; opacity: 0.3; stroke: #ffffff; stroke-width: 0.5; stroke-linejoin: miter"/>
   </g>
   <g id="patch_20">
    <path d="M 258.367225 175.75206 
L 270.307089 175.75206 
L 270.307089 101.807696 
L 258.367225 101.807696 
z
" clip-path="url(#p6355198c02)" style="fill: #c2845a; opacity: 0.3; stroke: #ffffff; stroke-width: 0.5; stroke-linejoin: miter"/>
   </g>
   <g id="patch_21">
    <path d="M 270.718808 175.75206 
L 283.070391 175.75206 
L 283.070391 84.576054 
L 270.718808 84.576054 
z
" clip-path="url(#p6355198c02)" style="fill: #c2845a; opacity: 0.3; stroke: #ffffff; stroke-width: 0.5; stroke-linejoin: miter"/>
   </g>
   <g id="patch_22">
    <path d="M 283.48211 175.75206 
L 295.421974 175.75206 
L 295.421974 73.300801 
L 283.48211 73.300801 
z
" clip-path="url(#p6355198c02)" style="fill: #c2845a; opacity: 0.3; stroke: #ffffff; stroke-width: 0.5; stroke-linejoin: miter"/>
   </g>
   <g id="patch_23">
    <path d="M 295.833693 175.75206 
L 308.185276 175.75206 
L 308.185276 53.882984 
L 295.833693 53.882984 
z
" clip-path="url(#p6355198c02)" style="fill: #c2845a; opacity: 0.3; stroke: #ffffff; stroke-width: 0.5; stroke-linejoin: miter"/>
   </g>
   <g id="patch_24">
    <path d="M 308.596996 175.75206 
L 320.948579 175.75206 
L 320.948579 58.494075 
L 308.596996 58.494075 
z
" clip-path="url(#p6355198c02)" style="fill: #c2845a; opacity: 0.3; stroke: #ffffff; stroke-width: 0.5; stroke-linejoin: miter"/>
   </g>
   <g id="patch_25">
    <path d="M 321.360298 175.75206 
L 333.300161 175.75206 
L 333.300161 89.641916 
L 321.360298 89.641916 
z
" clip-path="url(#p6355198c02)" style="fill: #c2845a; opacity: 0.3; stroke: #ffffff; stroke-width: 0.5; stroke-linejoin: miter"/>
   </g>
   <g id="patch_26">
    <path d="M 333.711881 175.75206 
L 346.063464 175.75206 
L 346.063464 115.696957 
L 333.711881 115.696957 
z
" clip-path="url(#p6355198c02)" style="fill: #c2845a; opacity: 0.3; stroke: #ffffff; stroke-width: 0.5; stroke-linejoin: miter"/>
   </g>
   <g id="patch_27">
    <path d="M 346.475183 175.75206 
L 358.415047 175.75206 
L 358.415047 129.38128 
L 346.475183 129.38128 
z
" clip-path="url(#p6355198c02)" style="fill: #c2845a; opacity: 0.3; stroke: #ffffff; stroke-width: 0.5; stroke-linejoin: miter"/>
   </g>
   <g id="patch_28">
    <path d="M 358.826766 175.75206 
L 371.178349 175.75206 
L 371.178349 149.226402 
L 358.826766 149.226402 
z
" clip-path="url(#p6355198c02)" style="fill: #c2845a; opacity: 0.3; stroke: #ffffff; stroke-width: 0.5; stroke-linejoin: miter"/>
   </g>
   <g id="patch_29">
    <path d="M 371.590068 175.75206 
L 383.941651 175.75206 
L 383.941651 161.506799 
L 371.590068 161.506799 
z
" clip-path="url(#p6355198c02)" style="fill: #c2845a; opacity: 0.3; stroke: #ffffff; stroke-width: 0.5; stroke-linejoin: miter"/>
   </g>
   <g id="patch_30">
    <path d="M 384.353371 175.75206 
L 395.469795 175.75206 
L 395.469795 153.208759 
L 384.353371 153.208759 
z
" clip-path="url(#p6355198c02)" style="fill: #c2845a; opacity: 0.3; stroke: #ffffff; stroke-width: 0.5; stroke-linejoin: miter"/>
   </g>
   <g id="patch_31">
    <path d="M 395.881515 175.75206 
L 408.233097 175.75206 
L 408.233097 132.841976 
L 395.881515 132.841976 
z
" clip-path="url(#p6355198c02)" style="fill: #c2845a; opacity: 0.3; stroke: #ffffff; stroke-width: 0.5; stroke-linejoin: miter"/>
   </g>
   <g id="patch_32">
    <path d="M 408.644817 175.75206 
L 420.58468 175.75206 
L 420.58468 110.927937 
L 408.644817 110.927937 
z
" clip-path="url(#p6355198c02)" style="fill: #c2845a; opacity: 0.3; stroke: #ffffff; stroke-width: 0.5; stroke-linejoin: miter"/>
   </g>
   <g id="patch_33">
    <path d="M 420.9964 175.75206 
L 433.347983 175.75206 
L 433.347983 92.419662 
L 420.9964 92.419662 
z
" clip-path="url(#p6355198c02)" style="fill: #c2845a; opacity: 0.3; stroke: #ffffff; stroke-width: 0.5; stroke-linejoin: miter"/>
   </g>
   <g id="patch_34">
    <path d="M 433.759702 175.75206 
L 445.699565 175.75206 
L 445.699565 77.361519 
L 433.759702 77.361519 
z
" clip-path="url(#p6355198c02)" style="fill: #c2845a; opacity: 0.3; stroke: #ffffff; stroke-width: 0.5; stroke-linejoin: miter"/>
   </g>
   <g id="patch_35">
    <path d="M 446.111285 175.75206 
L 458.462868 175.75206 
L 458.462868 63.136857 
L 446.111285 63.136857 
z
" clip-path="url(#p6355198c02)" style="fill: #c2845a; opacity: 0.3; stroke: #ffffff; stroke-width: 0.5; stroke-linejoin: miter"/>
   </g>
   <g id="patch_36">
    <path d="M 458.874587 175.75206 
L 471.22617 175.75206 
L 471.22617 68.651152 
L 458.874587 68.651152 
z
" clip-path="url(#p6355198c02)" style="fill: #c2845a; opacity: 0.3; stroke: #ffffff; stroke-width: 0.5; stroke-linejoin: miter"/>
   </g>
   <g id="patch_37">
    <path d="M 471.63789 175.75206 
L 483.577753 175.75206 
L 483.577753 88.675858 
L 471.63789 88.675858 
z
" clip-path="url(#p6355198c02)" style="fill: #c2845a; opacity: 0.3; stroke: #ffffff; stroke-width: 0.5; stroke-linejoin: miter"/>
   </g>
   <g id="patch_38">
    <path d="M 483.989472 175.75206 
L 496.341055 175.75206 
L 496.341055 95.636334 
L 483.989472 95.636334 
z
" clip-path="url(#p6355198c02)" style="fill: #c2845a; opacity: 0.3; stroke: #ffffff; stroke-width: 0.5; stroke-linejoin: miter"/>
   </g>
   <g id="patch_39">
    <path d="M 496.752775 175.75206 
L 508.692638 175.75206 
L 508.692638 136.241929 
L 496.752775 136.241929 
z
" clip-path="url(#p6355198c02)" style="fill: #c2845a; opacity: 0.3; stroke: #ffffff; stroke-width: 0.5; stroke-linejoin: miter"/>
   </g>
   <g id="patch_40">
    <path d="M 509.104358 175.75206 
L 521.45594 175.75206 
L 521.45594 152.046932 
L 509.104358 152.046932 
z
" clip-path="url(#p6355198c02)" style="fill: #c2845a; opacity: 0.3; stroke: #ffffff; stroke-width: 0.5; stroke-linejoin: miter"/>
   </g>
   <g id="patch_41">
    <path d="M 521.86766 175.75206 
L 534.219243 175.75206 
L 534.219243 159.494398 
L 521.86766 159.494398 
z
" clip-path="url(#p6355198c02)" style="fill: #c2845a; opacity: 0.3; stroke: #ffffff; stroke-width: 0.5; stroke-linejoin: miter"/>
   </g>
   <g id="patch_42">
    <path d="M 534.630962 175.75206 
L 546.159106 175.75206 
L 546.159106 145.923399 
L 534.630962 145.923399 
z
" clip-path="url(#p6355198c02)" style="fill: #c2845a; opacity: 0.3; stroke: #ffffff; stroke-width: 0.5; stroke-linejoin: miter"/>
   </g>
   <g id="patch_43">
    <path d="M 546.570826 175.75206 
L 558.922408 175.75206 
L 558.922408 137.104462 
L 546.570826 137.104462 
z
" clip-path="url(#p6355198c02)" style="fill: #c2845a; opacity: 0.3; stroke: #ffffff; stroke-width: 0.5; stroke-linejoin: miter"/>
   </g>
   <g id="patch_44">
    <path d="M 559.334128 175.75206 
L 571.273991 175.75206 
L 571.273991 115.054151 
L 559.334128 115.054151 
z
" clip-path="url(#p6355198c02)" style="fill: #c2845a; opacity: 0.3; stroke: #ffffff; stroke-width: 0.5; stroke-linejoin: miter"/>
   </g>
   <g id="patch_45">
    <path d="M 571.685711 175.75206 
L 584.037294 175.75206 
L 584.037294 101.911221 
L 571.685711 101.911221 
z
" clip-path="url(#p6355198c02)" style="fill: #c2845a; opacity: 0.3; stroke: #ffffff; stroke-width: 0.5; stroke-linejoin: miter"/>
   </g>
   <g id="patch_46">
    <path d="M 584.449013 175.75206 
L 596.388876 175.75206 
L 596.388876 79.752103 
L 584.449013 79.752103 
z
" clip-path="url(#p6355198c02)" style="fill: #c2845a; opacity: 0.3; stroke: #ffffff; stroke-width: 0.5; stroke-linejoin: miter"/>
   </g>
   <g id="patch_47">
    <path d="M 596.800596 175.75206 
L 609.152179 175.75206 
L 609.152179 60.411402 
L 596.800596 60.411402 
z
" clip-path="url(#p6355198c02)" style="fill: #c2845a; opacity: 0.3; stroke: #ffffff; stroke-width: 0.5; stroke-linejoin: miter"/>
   </g>
   <g id="patch_48">
    <path d="M 609.563898 175.75206 
L 621.915481 175.75206 
L 621.915481 60.823389 
L 609.563898 60.823389 
z
" clip-path="url(#p6355198c02)" style="fill: #c2845a; opacity: 0.3; stroke: #ffffff; stroke-width: 0.5; stroke-linejoin: miter"/>
   </g>
   <g id="patch_49">
    <path d="M 622.3272 175.75206 
L 634.267064 175.75206 
L 634.267064 87.267706 
L 622.3272 87.267706 
z
" clip-path="url(#p6355198c02)" style="fill: #c2845a; opacity: 0.3; stroke: #ffffff; stroke-width: 0.5; stroke-linejoin: miter"/>
   </g>
   <g id="patch_50">
    <path d="M 634.678783 175.75206 
L 647.030366 175.75206 
L 647.030366 109.643909 
L 634.678783 109.643909 
z
" clip-path="url(#p6355198c02)" style="fill: #c2845a; opacity: 0.3; stroke: #ffffff; stroke-width: 0.5; stroke-linejoin: miter"/>
   </g>
   <g id="patch_51">
    <path d="M 647.442086 175.75206 
L 659.381949 175.75206 
L 659.381949 137.568212 
L 647.442086 137.568212 
z
" clip-path="url(#p6355198c02)" style="fill: #c2845a; opacity: 0.3; stroke: #ffffff; stroke-width: 0.5; stroke-linejoin: miter"/>
   </g>
   <g id="patch_52">
    <path d="M 659.793669 175.75206 
L 672.145251 175.75206 
L 672.145251 165.769285 
L 659.793669 165.769285 
z
" clip-path="url(#p6355198c02)" style="fill: #c2845a; opacity: 0.3; stroke: #ffffff; stroke-width: 0.5; stroke-linejoin: miter"/>
   </g>
   <g id="patch_53">
    <path d="M 672.556971 175.75206 
L 684.908554 175.75206 
L 684.908554 173.042449 
L 672.556971 173.042449 
z
" clip-path="url(#p6355198c02)" style="fill: #c2845a; opacity: 0.3; stroke: #ffffff; stroke-width: 0.5; stroke-linejoin: miter"/>
   </g>
   <g id="patch_54">
    <path d="M 685.320273 175.75206 
L 696.436698 175.75206 
L 696.436698 148.717643 
L 685.320273 148.717643 
z
" clip-path="url(#p6355198c02)" style="fill: #c2845a; opacity: 0.3; stroke: #ffffff; stroke-width: 0.5; stroke-linejoin: miter"/>
   </g>
   <g id="patch_55">
    <path d="M 696.848417 175.75206 
L 709.2 175.75206 
L 709.2 138.35627 
L 696.848417 138.35627 
z
" clip-path="url(#p6355198c02)" style="fill: #c2845a; opacity: 0.3; stroke: #ffffff; stroke-width: 0.5; stroke-linejoin: miter"/>
   </g>
   <g id="line2d_19">
    <path d="M 45.92 157.577072 
L 46.331719 140.384516 
L 46.743439 145.296675 
L 47.155158 142.34938 
L 47.566878 145.296675 
L 47.978597 161.506799 
L 48.390317 157.085856 
L 48.802036 161.506799 
L 49.213755 154.138561 
L 50.037194 133.016278 
L 50.448914 118.771017 
L 50.860633 123.19196 
L 51.272353 112.385211 
L 51.684072 114.84129 
L 52.507511 109.437916 
L 52.91923 120.735881 
L 53.33095 118.279801 
L 53.742669 133.016278 
L 54.154389 122.209529 
L 54.566108 144.314243 
L 55.389547 158.068288 
L 55.801266 154.629777 
L 56.212986 156.103424 
L 56.624705 144.805459 
L 57.036425 152.664913 
L 57.448144 148.24397 
L 57.859863 161.506799 
L 58.271583 141.858164 
L 58.683302 150.70005 
L 59.095022 174.769628 
L 59.506741 172.804764 
L 59.918461 172.313548 
L 60.33018 164.94531 
L 60.741899 163.962878 
L 61.153619 151.191266 
L 61.565338 143.331811 
L 61.977058 139.8933 
L 62.388777 158.068288 
L 62.800497 166.418958 
L 63.212216 170.839901 
L 63.623935 163.962878 
L 64.035655 164.94531 
L 64.447374 157.085856 
L 64.859094 177.716923 
L 65.270813 169.366253 
L 65.682533 156.59464 
L 66.094252 170.348685 
L 66.917691 158.068288 
L 67.32941 156.103424 
L 67.74113 147.261538 
L 68.152849 149.226402 
L 68.976288 132.033846 
L 69.799727 136.454789 
L 70.211446 147.752754 
L 70.623166 171.822333 
L 71.034885 179.190571 
L 71.446605 183.611514 
L 71.858324 177.716923 
L 72.270043 179.681787 
L 72.681763 169.366253 
L 73.093482 168.383821 
L 73.505202 168.383821 
L 74.328641 178.699355 
L 74.74036 189.014888 
L 75.152079 166.910174 
L 75.563799 152.664913 
L 75.975518 144.314243 
L 76.387238 154.629777 
L 76.798957 174.278412 
L 77.210677 177.225707 
L 77.622396 172.313548 
L 78.445835 158.068288 
L 78.857554 167.892605 
L 79.269274 171.331117 
L 79.680993 179.190571 
L 80.092713 166.910174 
L 80.504432 164.94531 
L 80.916151 158.068288 
L 81.327871 171.822333 
L 81.73959 155.612208 
L 82.15131 156.59464 
L 82.563029 154.138561 
L 82.974749 159.05072 
L 83.386468 148.735186 
L 83.798187 152.664913 
L 85.033346 175.260844 
L 85.445065 186.067593 
L 85.856785 182.137866 
L 86.268504 180.664218 
L 86.680223 181.155434 
L 87.091943 178.699355 
L 87.503662 179.190571 
L 87.915382 184.593945 
L 88.327101 191.470968 
L 88.738821 192.944615 
L 89.15054 181.64665 
L 89.973979 171.822333 
L 90.385698 155.612208 
L 90.797418 161.998015 
L 91.209137 151.682481 
L 91.620857 155.120993 
L 92.444295 144.314243 
L 92.856015 140.384516 
L 93.267734 145.787891 
L 93.679454 147.261538 
L 94.091173 134.981141 
L 94.502893 142.34938 
L 95.326331 171.822333 
L 95.738051 162.980447 
L 96.14977 148.24397 
L 96.56149 155.612208 
L 96.973209 146.279107 
L 97.384929 159.05072 
L 98.208367 154.629777 
L 98.620087 140.875732 
L 99.031806 138.910868 
L 99.443526 145.787891 
L 99.855245 144.805459 
L 100.266965 144.805459 
L 101.090403 128.595335 
L 101.502123 155.612208 
L 101.913842 162.489231 
L 102.325562 144.805459 
L 103.149001 129.577767 
L 103.56072 128.104119 
L 103.972439 130.068983 
L 105.207598 123.19196 
L 105.619317 118.279801 
L 106.442756 130.068983 
L 106.854475 126.630471 
L 107.266195 121.718313 
L 107.677914 121.718313 
L 108.089634 124.174392 
L 108.501353 124.174392 
L 108.913073 118.771017 
L 109.324792 130.068983 
L 109.736511 134.981141 
L 110.148231 123.683176 
L 110.55995 122.209529 
L 110.97167 123.19196 
L 111.383389 122.209529 
L 111.795109 120.735881 
L 112.206828 121.718313 
L 112.618547 120.735881 
L 113.030267 117.29737 
L 113.441986 105.016973 
L 113.853706 114.350074 
L 114.265425 108.455484 
L 114.677145 107.964268 
L 115.088864 107.964268 
L 115.500583 105.508189 
L 115.912303 110.420347 
L 116.324022 111.402779 
L 116.735742 114.350074 
L 117.559181 96.666303 
L 117.9709 95.192655 
L 118.382619 87.333201 
L 118.794339 89.298065 
L 119.206058 113.858859 
L 119.617778 111.402779 
L 120.029497 123.19196 
L 120.441217 125.64804 
L 120.852936 119.262233 
L 121.264655 99.122382 
L 121.676375 102.560893 
L 122.088094 97.648734 
L 122.499814 97.648734 
L 122.911533 92.24536 
L 123.323253 95.192655 
L 123.734972 95.683871 
L 124.146691 89.78928 
L 124.558411 108.455484 
L 124.97013 104.034541 
L 125.793569 89.298065 
L 126.205289 91.754144 
L 126.617008 89.78928 
L 127.028727 80.456179 
L 127.440447 90.771712 
L 127.852166 85.859553 
L 128.263886 82.421042 
L 128.675605 83.89469 
L 129.087325 78.000099 
L 129.499044 77.508883 
L 129.910764 78.491315 
L 130.734202 85.859553 
L 131.145922 81.929826 
L 131.557641 81.43861 
L 131.969361 82.912258 
L 132.38108 78.491315 
L 132.7928 69.158213 
L 133.204519 86.841985 
L 133.616238 86.350769 
L 134.027958 81.43861 
L 134.439677 75.052804 
L 134.851397 73.579156 
L 135.674836 98.631166 
L 136.086555 91.754144 
L 136.498274 99.613598 
L 136.909994 97.157519 
L 137.321713 79.473747 
L 138.145152 94.701439 
L 138.556872 81.929826 
L 138.968591 79.473747 
L 139.38031 73.579156 
L 139.79203 73.579156 
L 140.203749 79.473747 
L 140.615469 78.982531 
L 141.027188 77.508883 
L 141.438908 66.210918 
L 141.850627 69.158213 
L 142.262346 60.807543 
L 142.674066 59.825112 
L 143.085785 71.614293 
L 143.497505 61.789975 
L 143.909224 59.333896 
L 144.320944 76.526452 
L 144.732663 76.526452 
L 145.144382 77.017667 
L 145.556102 73.08794 
L 145.967821 58.351464 
L 146.379541 53.930521 
L 146.79126 70.631861 
L 147.20298 61.298759 
L 147.614699 57.860248 
L 148.026418 66.702134 
L 148.438138 62.281191 
L 148.849857 59.333896 
L 149.261577 69.649429 
L 149.673296 66.210918 
L 150.085016 59.333896 
L 150.496735 61.298759 
L 150.908454 50.49201 
L 151.731893 42.14134 
L 152.143613 57.369032 
L 152.555332 60.316328 
L 152.967052 48.527146 
L 153.378771 67.19335 
L 153.79049 65.719702 
L 154.20221 70.631861 
L 154.613929 68.175782 
L 155.025649 56.877816 
L 155.437368 53.439305 
L 155.849088 49.018362 
L 156.260807 51.474442 
L 156.672526 68.175782 
L 157.084246 63.263623 
L 157.495965 65.719702 
L 157.907685 70.631861 
L 158.319404 69.158213 
L 158.731124 76.526452 
L 159.142843 75.54402 
L 159.554562 66.702134 
L 159.966282 68.175782 
L 160.378001 84.877122 
L 160.789721 85.859553 
L 161.20144 69.158213 
L 161.61316 71.123077 
L 162.436598 58.84268 
L 162.848318 57.369032 
L 163.260037 49.509578 
L 163.671757 57.369032 
L 164.083476 58.351464 
L 164.495196 68.175782 
L 165.318634 77.017667 
L 165.730354 75.54402 
L 166.142073 67.19335 
L 166.553793 62.772407 
L 166.965512 78.000099 
L 167.377232 83.89469 
L 168.20067 77.017667 
L 168.61239 95.192655 
L 169.024109 94.210223 
L 169.435829 85.368337 
L 169.847548 89.78928 
L 170.259268 95.683871 
L 170.670987 95.192655 
L 171.082706 87.824417 
L 171.906145 80.947395 
L 172.317865 86.841985 
L 172.729584 82.912258 
L 173.141304 74.070372 
L 173.553023 72.105509 
L 173.964742 67.684566 
L 174.376462 65.228486 
L 174.788181 70.140645 
L 175.199901 70.631861 
L 175.61162 76.035236 
L 176.02334 78.491315 
L 176.435059 79.964963 
L 176.846778 83.89469 
L 177.258498 99.613598 
L 177.670217 90.280496 
L 178.081937 96.666303 
L 178.493656 93.227792 
L 178.905376 86.350769 
L 179.317095 92.24536 
L 179.728814 76.035236 
L 180.140534 89.78928 
L 180.552253 78.491315 
L 180.963973 84.877122 
L 181.375692 95.683871 
L 181.787412 102.069677 
L 182.199131 94.210223 
L 182.61085 95.683871 
L 183.02257 88.806849 
L 183.434289 87.333201 
L 183.846009 81.929826 
L 184.257728 81.929826 
L 184.669448 78.982531 
L 185.492886 105.508189 
L 185.904606 112.385211 
L 186.316325 124.665608 
L 186.728045 129.086551 
L 187.139764 126.139256 
L 187.551484 124.665608 
L 188.374922 116.806154 
L 188.786642 103.543325 
L 189.610081 122.209529 
L 190.0218 132.525062 
L 190.43352 119.262233 
L 190.845239 116.314938 
L 191.256958 115.332506 
L 191.668678 127.121687 
L 192.080397 124.665608 
L 192.492117 116.806154 
L 192.903836 120.735881 
L 193.315556 111.402779 
L 194.138994 101.578462 
L 194.550714 108.9467 
L 195.374153 139.8933 
L 195.785872 149.717618 
L 196.197592 133.99871 
L 196.609311 143.331811 
L 197.02103 140.384516 
L 197.43275 139.402084 
L 197.844469 131.051414 
L 198.256189 130.560199 
L 198.667908 118.279801 
L 199.079628 120.735881 
L 199.491347 127.612903 
L 200.314786 144.805459 
L 201.138225 133.507494 
L 201.961664 168.875037 
L 202.373383 154.138561 
L 202.785102 158.559504 
L 203.196822 176.243275 
L 203.608541 175.75206 
L 204.020261 180.173002 
L 204.43198 180.173002 
L 204.8437 183.611514 
L 205.255419 177.716923 
L 205.667138 152.664913 
L 206.078858 146.279107 
L 206.490577 144.805459 
L 206.902297 137.928437 
L 207.314016 144.314243 
L 207.725736 146.279107 
L 208.137455 134.489926 
L 208.960894 147.261538 
L 209.372613 170.839901 
L 210.196052 193.435831 
L 210.607772 181.155434 
L 211.019491 164.454094 
L 211.43121 166.418958 
L 211.84293 166.418958 
L 212.254649 169.366253 
L 212.666369 165.436526 
L 213.078088 157.577072 
L 213.489808 164.94531 
L 213.901527 157.577072 
L 214.313246 156.59464 
L 214.724966 148.24397 
L 215.136685 152.173697 
L 215.548405 153.647345 
L 215.960124 155.612208 
L 216.371844 153.647345 
L 216.783563 156.59464 
L 217.195282 166.910174 
L 218.018721 179.681787 
L 218.430441 174.769628 
L 218.84216 189.506104 
L 219.25388 191.470968 
L 219.665599 194.909479 
L 220.077318 188.523672 
L 220.489038 177.716923 
L 220.900757 204.242581 
L 221.312477 209.154739 
L 221.724196 208.172308 
L 222.135916 193.435831 
L 222.959354 206.207444 
L 223.782793 199.330422 
L 224.194513 183.611514 
L 224.606232 182.137866 
L 225.017952 208.172308 
L 225.429671 213.084467 
L 225.84139 213.575682 
L 226.25311 182.137866 
L 226.664829 176.734491 
L 227.076549 179.190571 
L 227.488268 175.75206 
L 227.899988 171.331117 
L 228.311707 170.348685 
L 228.723426 177.716923 
L 229.135146 164.94531 
L 229.546865 159.541935 
L 229.958585 151.682481 
L 230.370304 158.068288 
L 230.782024 160.524367 
L 231.193743 167.40139 
L 232.017182 200.804069 
L 232.428901 198.34799 
L 232.840621 197.365558 
L 233.25234 199.821638 
L 233.66406 210.628387 
L 234.075779 206.69866 
L 234.487498 205.716228 
L 234.899218 194.418263 
L 235.310937 204.242581 
L 235.722657 181.155434 
L 236.134376 168.383821 
L 236.546096 161.506799 
L 236.957815 176.734491 
L 237.369534 163.471663 
L 237.781254 158.559504 
L 238.192973 159.05072 
L 238.604693 156.59464 
L 239.016412 164.94531 
L 239.428132 182.137866 
L 239.839851 189.506104 
L 240.25157 190.979752 
L 240.66329 192.944615 
L 241.898448 160.033151 
L 242.310168 159.05072 
L 242.721887 159.05072 
L 243.133606 160.033151 
L 243.545326 161.998015 
L 243.957045 158.559504 
L 244.368765 148.24397 
L 244.780484 147.261538 
L 245.192204 152.664913 
L 246.015642 139.8933 
L 246.427362 154.629777 
L 246.839081 162.489231 
L 247.250801 163.471663 
L 247.66252 157.577072 
L 248.07424 163.962878 
L 248.485959 149.226402 
L 248.897678 154.138561 
L 249.721117 137.437221 
L 250.132837 143.823027 
L 250.544556 137.928437 
L 250.956276 134.489926 
L 251.367995 133.507494 
L 251.779714 138.910868 
L 252.191434 130.068983 
L 252.603153 134.981141 
L 253.014873 132.033846 
L 253.838312 122.700744 
L 254.250031 126.139256 
L 254.66175 125.156824 
L 255.07347 116.314938 
L 255.485189 113.858859 
L 255.896909 120.735881 
L 256.308628 115.823722 
L 256.720348 112.385211 
L 257.132067 114.350074 
L 257.543786 108.455484 
L 257.955506 104.525757 
L 258.367225 110.420347 
L 258.778945 108.9467 
L 259.190664 103.052109 
L 259.602384 100.59603 
L 260.014103 101.578462 
L 260.425822 112.385211 
L 261.249261 101.578462 
L 261.660981 99.122382 
L 262.0727 103.052109 
L 262.48442 109.437916 
L 262.896139 106.981836 
L 263.719578 97.648734 
L 264.131297 95.683871 
L 264.543017 102.069677 
L 264.954736 105.016973 
L 265.366456 90.280496 
L 265.778175 90.771712 
L 266.189894 93.719007 
L 266.601614 103.543325 
L 267.013333 105.016973 
L 267.425053 103.052109 
L 267.836772 93.719007 
L 268.248492 92.24536 
L 268.660211 106.981836 
L 269.07193 96.666303 
L 270.307089 106.981836 
L 270.718808 95.192655 
L 271.130528 87.333201 
L 271.542247 90.771712 
L 271.953966 89.78928 
L 272.365686 85.368337 
L 273.189125 84.385906 
L 273.600844 76.526452 
L 274.012564 87.333201 
L 274.424283 93.227792 
L 274.836002 103.543325 
L 275.247722 101.578462 
L 275.659441 106.49062 
L 276.071161 91.262928 
L 276.48288 69.158213 
L 276.8946 69.158213 
L 277.306319 84.877122 
L 277.718038 90.280496 
L 278.129758 81.929826 
L 278.541477 78.491315 
L 279.364916 65.228486 
L 279.776636 66.210918 
L 280.188355 66.210918 
L 280.600074 57.860248 
L 281.423513 75.052804 
L 281.835233 119.753449 
L 282.658672 92.24536 
L 283.070391 83.89469 
L 283.48211 86.841985 
L 283.89383 80.456179 
L 284.305549 71.123077 
L 284.717269 70.631861 
L 285.128988 59.333896 
L 285.540708 61.298759 
L 285.952427 70.631861 
L 286.364146 70.140645 
L 286.775866 75.052804 
L 287.187585 81.929826 
L 287.599305 74.070372 
L 288.011024 74.070372 
L 288.422744 73.08794 
L 288.834463 76.526452 
L 289.246182 90.280496 
L 289.657902 108.9467 
L 290.069621 98.631166 
L 290.481341 85.368337 
L 290.89306 91.262928 
L 291.30478 74.070372 
L 291.716499 73.08794 
L 292.128218 70.631861 
L 292.539938 77.017667 
L 292.951657 80.456179 
L 293.363377 61.298759 
L 293.775096 52.456873 
L 294.598535 58.84268 
L 295.010255 50.000794 
L 295.421974 46.071067 
L 295.833693 52.456873 
L 296.245413 52.456873 
L 296.657132 50.983226 
L 297.068852 78.982531 
L 297.480571 85.368337 
L 298.30401 62.772407 
L 298.715729 69.158213 
L 299.127449 66.210918 
L 299.539168 51.965658 
L 299.950888 58.84268 
L 300.362607 50.000794 
L 300.774327 47.544715 
L 301.186046 53.930521 
L 301.597765 47.544715 
L 302.009485 50.000794 
L 302.421204 46.071067 
L 302.832924 44.106203 
L 303.244643 44.597419 
L 303.656363 50.000794 
L 304.479801 43.123772 
L 304.891521 53.439305 
L 305.30324 50.983226 
L 305.71496 44.597419 
L 306.126679 57.860248 
L 306.538399 55.404169 
L 306.950118 49.509578 
L 307.361837 41.650124 
L 307.773557 48.527146 
L 308.185276 42.14134 
L 308.596996 37.720397 
L 309.008715 44.106203 
L 309.420435 35.755533 
L 309.832154 40.176476 
L 310.243873 38.702829 
L 311.067312 45.088635 
L 311.479032 60.807543 
L 311.890751 60.807543 
L 312.302471 60.316328 
L 312.71419 57.369032 
L 313.125909 59.333896 
L 313.949348 45.579851 
L 314.361068 45.579851 
L 314.772787 46.562283 
L 315.184507 78.000099 
L 315.596226 85.368337 
L 316.007945 83.403474 
L 316.419665 89.298065 
L 316.831384 82.912258 
L 317.243104 67.684566 
L 317.654823 72.105509 
L 318.066543 70.140645 
L 318.478262 73.579156 
L 319.301701 58.84268 
L 319.71342 54.912953 
L 320.12514 55.404169 
L 320.536859 48.035931 
L 320.948579 55.895385 
L 321.360298 56.877816 
L 321.772017 67.684566 
L 322.183737 72.105509 
L 322.595456 71.123077 
L 323.007176 87.333201 
L 323.418895 85.368337 
L 323.830615 88.806849 
L 324.242334 97.157519 
L 324.654053 92.24536 
L 325.065773 95.683871 
L 325.477492 91.262928 
L 325.889212 103.543325 
L 326.300931 100.104814 
L 326.712651 102.069677 
L 327.12437 88.315633 
L 327.536089 87.333201 
L 327.947809 83.403474 
L 328.359528 76.526452 
L 328.771248 80.456179 
L 329.182967 88.315633 
L 329.594687 101.578462 
L 330.006406 88.806849 
L 330.418125 94.210223 
L 330.829845 93.227792 
L 331.241564 104.525757 
L 331.653284 107.473052 
L 332.065003 98.13995 
L 332.476723 91.754144 
L 332.888442 100.104814 
L 333.300161 93.719007 
L 333.711881 94.210223 
L 334.1236 84.385906 
L 334.947039 99.613598 
L 335.358759 96.175087 
L 335.770478 101.578462 
L 336.182197 104.525757 
L 336.593917 108.455484 
L 337.005636 106.49062 
L 337.417356 105.508189 
L 337.829075 104.034541 
L 338.240795 100.104814 
L 338.652514 121.718313 
L 339.475953 138.910868 
L 339.887672 129.086551 
L 340.299392 128.104119 
L 340.711111 115.823722 
L 341.122831 125.156824 
L 341.53455 128.595335 
L 341.946269 118.279801 
L 342.357989 124.665608 
L 342.769708 124.665608 
L 343.181428 118.279801 
L 343.593147 124.665608 
L 344.004867 125.156824 
L 344.416586 117.788586 
L 344.828305 131.051414 
L 345.240025 132.525062 
L 345.651744 123.683176 
L 346.063464 130.068983 
L 346.475183 130.068983 
L 346.886903 146.279107 
L 347.298622 132.033846 
L 347.710341 132.033846 
L 348.122061 128.104119 
L 348.53378 129.577767 
L 348.9455 130.560199 
L 349.357219 115.332506 
L 349.768939 113.858859 
L 350.180658 104.034541 
L 350.592377 101.087246 
L 351.415816 118.771017 
L 351.827536 134.981141 
L 352.239255 123.683176 
L 352.650975 122.700744 
L 353.062694 118.279801 
L 353.474413 115.332506 
L 353.886133 122.209529 
L 354.297852 125.156824 
L 354.709572 140.875732 
L 355.121291 143.331811 
L 355.533011 137.928437 
L 355.94473 139.8933 
L 356.356449 139.402084 
L 356.768169 136.946005 
L 357.179888 144.314243 
L 357.591608 155.120993 
L 358.003327 146.279107 
L 358.415047 142.34938 
L 358.826766 133.99871 
L 359.238485 143.331811 
L 359.650205 146.770323 
L 360.473644 127.612903 
L 360.885363 136.454789 
L 361.297083 129.577767 
L 361.708802 137.928437 
L 362.120521 131.54263 
L 362.532241 118.771017 
L 362.94396 141.366948 
L 363.35568 136.946005 
L 363.767399 143.823027 
L 364.590838 163.962878 
L 365.002557 157.085856 
L 365.414277 155.120993 
L 365.825996 155.120993 
L 366.237716 152.173697 
L 366.649435 159.541935 
L 367.061155 158.068288 
L 367.472874 159.541935 
L 367.884593 165.927742 
L 368.708032 145.296675 
L 369.119752 153.647345 
L 369.531471 170.839901 
L 369.943191 168.383821 
L 370.35491 160.524367 
L 370.766629 165.927742 
L 371.178349 160.524367 
L 371.590068 135.963573 
L 372.413507 128.595335 
L 372.825227 134.981141 
L 373.236946 144.805459 
L 373.648665 142.840596 
L 374.060385 152.664913 
L 374.472104 167.40139 
L 374.883824 153.647345 
L 375.295543 166.910174 
L 375.707263 154.138561 
L 376.118982 171.331117 
L 376.530701 174.769628 
L 376.942421 173.787196 
L 377.35414 177.716923 
L 377.76586 174.769628 
L 378.177579 162.980447 
L 378.589299 158.068288 
L 379.001018 157.577072 
L 379.412737 151.191266 
L 379.824457 159.05072 
L 380.647896 168.383821 
L 381.059615 158.559504 
L 381.471335 158.068288 
L 381.883054 162.980447 
L 382.294773 176.734491 
L 382.706493 184.593945 
L 383.118212 176.243275 
L 383.529932 189.99732 
L 383.941651 191.470968 
L 384.353371 185.576377 
L 385.176809 178.699355 
L 385.588529 162.489231 
L 386.000248 162.980447 
L 386.411968 160.033151 
L 386.823687 146.770323 
L 387.235407 158.559504 
L 387.647126 144.805459 
L 388.058845 139.8933 
L 388.470565 139.8933 
L 388.882284 137.928437 
L 389.294004 133.99871 
L 390.117443 154.138561 
L 390.529162 156.103424 
L 390.940881 153.156129 
L 391.352601 141.858164 
L 391.76432 146.279107 
L 392.17604 155.612208 
L 392.587759 154.138561 
L 392.999479 151.682481 
L 393.411198 142.34938 
L 393.822917 155.612208 
L 394.234637 159.541935 
L 394.646356 158.559504 
L 395.058076 145.296675 
L 395.469795 137.437221 
L 395.881515 138.910868 
L 396.293234 144.314243 
L 396.704953 144.805459 
L 397.528392 134.981141 
L 397.940112 134.981141 
L 398.351831 127.121687 
L 398.763551 133.016278 
L 399.17527 133.99871 
L 399.586989 125.64804 
L 399.998709 124.174392 
L 400.822148 133.99871 
L 401.233867 134.981141 
L 402.057306 121.718313 
L 402.469025 123.683176 
L 402.880745 124.174392 
L 403.292464 122.700744 
L 403.704184 129.577767 
L 404.115903 143.331811 
L 404.527623 146.279107 
L 404.939342 143.331811 
L 405.351061 155.612208 
L 405.762781 146.770323 
L 406.58622 124.174392 
L 406.997939 132.033846 
L 407.409659 129.577767 
L 408.233097 112.385211 
L 408.644817 117.788586 
L 409.056536 119.262233 
L 409.468256 112.876427 
L 409.879975 111.402779 
L 410.291695 108.9467 
L 410.703414 109.437916 
L 411.115133 108.455484 
L 411.526853 106.981836 
L 411.938572 104.525757 
L 412.350292 104.525757 
L 412.762011 100.59603 
L 413.173731 105.508189 
L 413.58545 101.087246 
L 413.997169 102.560893 
L 414.408889 97.648734 
L 414.820608 108.9467 
L 415.232328 114.84129 
L 415.644047 132.033846 
L 416.055767 122.209529 
L 416.467486 116.806154 
L 416.879205 118.279801 
L 417.290925 115.823722 
L 417.702644 111.893995 
L 418.114364 115.332506 
L 418.526083 112.385211 
L 418.937803 110.420347 
L 419.349522 101.087246 
L 419.761241 111.402779 
L 420.172961 113.858859 
L 420.58468 110.911563 
L 420.9964 102.560893 
L 421.408119 99.122382 
L 421.819839 89.78928 
L 422.231558 95.192655 
L 422.643277 96.175087 
L 423.054997 100.59603 
L 423.466716 102.069677 
L 423.878436 96.175087 
L 424.290155 87.824417 
L 424.701875 91.262928 
L 425.113594 89.298065 
L 425.525313 96.666303 
L 426.348752 83.89469 
L 426.760472 112.876427 
L 427.172191 84.385906 
L 427.583911 95.192655 
L 427.99563 95.683871 
L 428.407349 102.560893 
L 428.819069 94.701439 
L 429.230788 107.964268 
L 429.642508 104.525757 
L 430.054227 94.701439 
L 430.465947 94.701439 
L 430.877666 81.929826 
L 431.289385 82.421042 
L 431.701105 74.561588 
L 432.112824 82.421042 
L 432.524544 81.929826 
L 432.936263 79.473747 
L 433.347983 74.070372 
L 433.759702 72.105509 
L 434.171421 79.964963 
L 434.583141 96.175087 
L 434.99486 89.78928 
L 435.40658 77.508883 
L 435.818299 93.227792 
L 436.230019 114.84129 
L 436.641738 105.016973 
L 437.053457 89.298065 
L 437.465177 78.982531 
L 437.876896 79.473747 
L 438.288616 65.719702 
L 438.700335 66.702134 
L 439.112055 72.105509 
L 439.935493 57.369032 
L 440.347213 78.000099 
L 440.758932 70.140645 
L 441.170652 70.140645 
L 441.582371 69.649429 
L 441.994091 64.73727 
L 442.40581 56.877816 
L 442.817529 60.316328 
L 443.229249 60.807543 
L 443.640968 80.947395 
L 444.052688 94.701439 
L 444.464407 96.666303 
L 444.876127 69.649429 
L 445.287846 67.19335 
L 445.699565 77.508883 
L 446.111285 69.158213 
L 446.523004 70.631861 
L 446.934724 70.140645 
L 447.346443 62.772407 
L 447.758163 71.123077 
L 448.169882 72.105509 
L 448.581601 70.140645 
L 448.993321 67.19335 
L 449.40504 66.210918 
L 449.81676 68.666998 
L 450.228479 64.73727 
L 450.640199 68.666998 
L 451.051918 61.789975 
L 451.463637 77.017667 
L 451.875357 60.316328 
L 452.287076 49.018362 
L 452.698796 73.08794 
L 453.933954 52.948089 
L 454.345673 60.807543 
L 454.757393 52.456873 
L 455.169112 58.351464 
L 455.580832 54.421737 
L 455.992551 57.369032 
L 456.404271 49.509578 
L 456.81599 55.895385 
L 457.227709 65.719702 
L 457.639429 50.983226 
L 458.051148 68.175782 
L 458.462868 61.298759 
L 458.874587 68.175782 
L 459.286307 60.807543 
L 459.698026 64.246055 
L 460.109745 51.965658 
L 460.521465 54.421737 
L 460.933184 53.439305 
L 461.344904 56.877816 
L 461.756623 55.404169 
L 462.168343 67.684566 
L 462.580062 66.702134 
L 462.991782 68.666998 
L 463.403501 60.807543 
L 463.81522 61.789975 
L 464.22694 65.228486 
L 464.638659 81.929826 
L 465.050379 78.000099 
L 465.462098 72.596725 
L 465.873818 72.105509 
L 466.285537 84.877122 
L 466.697256 80.947395 
L 467.108976 79.964963 
L 467.520695 79.473747 
L 467.932415 81.43861 
L 468.344134 78.000099 
L 468.755854 78.491315 
L 469.167573 74.070372 
L 469.579292 67.19335 
L 469.991012 62.772407 
L 470.402731 66.210918 
L 470.814451 74.561588 
L 471.22617 59.333896 
L 471.63789 57.369032 
L 472.049609 84.877122 
L 472.461328 98.13995 
L 472.873048 100.104814 
L 473.284767 81.929826 
L 473.696487 91.262928 
L 474.519926 73.579156 
L 474.931645 77.017667 
L 475.755084 93.719007 
L 476.166803 92.24536 
L 476.578523 94.210223 
L 476.990242 83.403474 
L 477.401962 94.701439 
L 477.813681 99.613598 
L 478.2254 95.192655 
L 478.63712 99.122382 
L 479.048839 94.210223 
L 479.460559 95.192655 
L 479.872278 87.333201 
L 480.283998 90.280496 
L 480.695717 84.877122 
L 481.107436 95.192655 
L 481.519156 98.631166 
L 481.930875 82.421042 
L 482.342595 93.227792 
L 482.754314 85.859553 
L 483.166034 89.298065 
L 483.577753 79.473747 
L 483.989472 78.000099 
L 484.401192 85.859553 
L 484.812911 84.877122 
L 485.224631 87.333201 
L 485.63635 86.350769 
L 486.04807 89.78928 
L 486.459789 91.754144 
L 486.871508 88.315633 
L 487.283228 94.210223 
L 487.694947 85.368337 
L 488.106667 89.78928 
L 488.518386 87.824417 
L 488.930106 92.736576 
L 489.341825 92.24536 
L 489.753544 90.771712 
L 490.165264 91.262928 
L 490.576983 92.24536 
L 490.988703 98.13995 
L 491.400422 97.157519 
L 492.223861 109.437916 
L 492.63558 110.911563 
L 493.0473 102.560893 
L 493.459019 97.648734 
L 493.870739 99.613598 
L 494.282458 97.648734 
L 494.694178 100.104814 
L 495.105897 99.613598 
L 495.929336 114.350074 
L 496.341055 118.279801 
L 496.752775 118.279801 
L 497.164494 129.086551 
L 497.576214 117.788586 
L 497.987933 113.858859 
L 498.399652 132.033846 
L 498.811372 135.963573 
L 499.223091 129.086551 
L 499.634811 116.806154 
L 500.04653 111.893995 
L 500.45825 110.911563 
L 500.869969 117.788586 
L 501.281688 120.244665 
L 501.693408 136.946005 
L 502.105127 134.489926 
L 502.516847 135.963573 
L 502.928566 135.963573 
L 503.340286 148.735186 
L 503.752005 151.191266 
L 504.163724 161.506799 
L 504.575444 150.70005 
L 504.987163 150.208834 
L 505.810602 136.946005 
L 506.222322 136.946005 
L 506.634041 127.121687 
L 507.04576 138.419653 
L 507.45748 143.823027 
L 508.280919 171.331117 
L 508.692638 170.348685 
L 509.104358 164.94531 
L 509.516077 161.015583 
L 509.927796 161.015583 
L 510.339516 151.682481 
L 510.751235 152.664913 
L 511.162955 134.489926 
L 511.574674 137.928437 
L 511.986394 135.963573 
L 512.398113 134.981141 
L 512.809832 134.489926 
L 513.221552 122.209529 
L 513.633271 126.630471 
L 514.044991 127.121687 
L 514.45671 129.086551 
L 514.86843 123.683176 
L 515.691868 157.577072 
L 516.103588 163.471663 
L 516.515307 156.103424 
L 516.927027 152.664913 
L 517.338746 150.70005 
L 517.750466 152.173697 
L 518.162185 162.489231 
L 518.573904 147.752754 
L 518.985624 162.489231 
L 519.397343 172.804764 
L 519.809063 175.260844 
L 520.220782 175.260844 
L 520.632502 182.629082 
L 521.044221 184.10273 
L 521.45594 181.155434 
L 521.86766 169.857469 
L 522.279379 165.927742 
L 522.691099 176.734491 
L 523.102818 181.155434 
L 523.514538 161.998015 
L 523.926257 159.541935 
L 524.749696 149.226402 
L 525.161415 149.226402 
L 525.573135 154.138561 
L 525.984854 150.70005 
L 526.396574 154.138561 
L 526.808293 151.682481 
L 527.220012 146.770323 
L 527.631732 148.735186 
L 528.043451 160.524367 
L 528.455171 152.664913 
L 528.86689 137.437221 
L 529.27861 144.314243 
L 529.690329 149.226402 
L 530.102048 168.875037 
L 530.513768 175.260844 
L 530.925487 173.29598 
L 531.337207 160.033151 
L 531.748926 177.225707 
L 532.160646 154.629777 
L 532.572365 158.559504 
L 532.984084 158.068288 
L 534.219243 171.331117 
L 535.042682 147.261538 
L 535.86612 127.121687 
L 536.27784 123.683176 
L 537.101279 134.981141 
L 537.512998 135.472357 
L 537.924718 139.402084 
L 538.336437 150.70005 
L 538.748156 150.208834 
L 539.571595 139.8933 
L 539.983315 162.980447 
L 540.395034 174.769628 
L 540.806754 172.804764 
L 541.218473 169.857469 
L 541.630192 160.033151 
L 542.041912 144.805459 
L 542.453631 140.875732 
L 543.68879 136.454789 
L 544.100509 140.875732 
L 544.512228 148.24397 
L 544.923948 144.314243 
L 545.335667 150.208834 
L 545.747387 150.70005 
L 546.159106 138.910868 
L 546.570826 138.419653 
L 546.982545 148.24397 
L 547.394264 144.314243 
L 547.805984 150.208834 
L 548.217703 158.068288 
L 548.629423 149.717618 
L 549.041142 136.946005 
L 549.452862 140.875732 
L 549.864581 135.963573 
L 550.2763 126.630471 
L 550.68802 125.64804 
L 551.099739 122.209529 
L 551.511459 125.64804 
L 551.923178 137.437221 
L 552.334898 133.99871 
L 552.746617 134.981141 
L 553.158336 142.34938 
L 553.570056 133.99871 
L 553.981775 147.752754 
L 554.393495 148.24397 
L 554.805214 133.016278 
L 555.216934 136.946005 
L 555.628653 138.419653 
L 556.040372 125.156824 
L 556.452092 124.174392 
L 556.863811 138.910868 
L 557.275531 127.612903 
L 557.68725 132.525062 
L 558.09897 140.875732 
L 558.510689 143.823027 
L 558.922408 127.121687 
L 559.334128 121.718313 
L 559.745847 119.262233 
L 560.569286 105.999404 
L 560.981006 106.49062 
L 561.392725 104.034541 
L 561.804444 125.64804 
L 562.216164 138.910868 
L 562.627883 137.928437 
L 563.039603 154.629777 
L 563.451322 134.981141 
L 563.863042 136.454789 
L 564.274761 132.033846 
L 564.68648 108.455484 
L 565.509919 97.648734 
L 566.333358 108.455484 
L 566.745078 120.244665 
L 567.156797 101.578462 
L 567.568516 102.560893 
L 567.980236 112.876427 
L 568.803675 105.508189 
L 569.215394 108.455484 
L 569.627114 100.59603 
L 570.038833 110.911563 
L 570.450552 109.929132 
L 571.273991 109.929132 
L 571.685711 107.964268 
L 572.09743 111.893995 
L 572.50915 110.420347 
L 573.332588 99.613598 
L 573.744308 98.13995 
L 574.156027 89.298065 
L 574.979466 78.000099 
L 575.391186 99.613598 
L 575.802905 139.8933 
L 576.214624 124.174392 
L 576.626344 118.279801 
L 577.038063 119.262233 
L 577.861502 112.385211 
L 578.273222 102.560893 
L 578.684941 108.9467 
L 579.09666 104.034541 
L 579.50838 104.525757 
L 579.920099 98.13995 
L 580.331819 95.192655 
L 580.743538 88.806849 
L 581.155258 94.701439 
L 581.566977 91.754144 
L 581.978696 87.333201 
L 582.390416 101.087246 
L 583.213855 91.754144 
L 584.037294 89.78928 
L 584.449013 91.754144 
L 584.860732 90.280496 
L 585.272452 96.666303 
L 585.684171 88.806849 
L 586.095891 99.613598 
L 586.50761 85.859553 
L 586.91933 78.491315 
L 587.331049 80.947395 
L 587.742768 78.491315 
L 588.154488 84.877122 
L 588.566207 78.491315 
L 588.977927 66.210918 
L 589.389646 63.754839 
L 589.801366 81.929826 
L 590.213085 81.929826 
L 590.624804 81.43861 
L 591.448243 73.08794 
L 591.859963 76.035236 
L 592.271682 66.702134 
L 592.683402 67.684566 
L 593.095121 71.614293 
L 593.91856 83.89469 
L 594.330279 64.73727 
L 594.741999 88.315633 
L 595.153718 82.912258 
L 595.565438 78.982531 
L 595.977157 80.947395 
L 596.388876 73.08794 
L 596.800596 67.684566 
L 597.212315 72.105509 
L 597.624035 54.421737 
L 598.035754 49.509578 
L 598.447474 53.439305 
L 598.859193 61.298759 
L 599.270912 56.3866 
L 599.682632 56.3866 
L 600.094351 52.948089 
L 600.506071 48.035931 
L 600.91779 39.685261 
L 601.32951 37.720397 
L 601.741229 46.562283 
L 602.152948 43.614988 
L 602.564668 35.264318 
L 602.976387 49.018362 
L 603.799826 52.948089 
L 604.211546 47.544715 
L 604.623265 73.579156 
L 605.034984 71.614293 
L 605.446704 66.210918 
L 606.270143 77.508883 
L 606.681862 76.035236 
L 607.093582 75.052804 
L 607.505301 77.508883 
L 607.91702 85.368337 
L 608.32874 82.421042 
L 608.740459 78.491315 
L 609.152179 60.807543 
L 609.563898 59.825112 
L 609.975618 67.19335 
L 610.387337 63.263623 
L 610.799056 61.298759 
L 611.210776 55.404169 
L 611.622495 52.456873 
L 612.034215 62.281191 
L 612.445934 62.281191 
L 612.857654 65.719702 
L 613.269373 55.895385 
L 614.092812 50.49201 
L 614.504531 50.000794 
L 614.916251 58.351464 
L 615.32797 52.456873 
L 615.73969 53.930521 
L 616.151409 46.562283 
L 616.563128 59.825112 
L 616.974848 54.912953 
L 617.386567 53.930521 
L 617.798287 45.579851 
L 618.210006 57.369032 
L 618.621726 56.877816 
L 619.033445 52.456873 
L 619.445164 66.210918 
L 619.856884 50.000794 
L 620.268603 76.035236 
L 620.680323 73.579156 
L 621.092042 86.841985 
L 621.503762 87.824417 
L 621.915481 93.227792 
L 622.3272 83.89469 
L 622.73892 71.123077 
L 623.150639 73.08794 
L 623.562359 71.123077 
L 623.974078 70.140645 
L 624.385798 63.263623 
L 624.797517 58.351464 
L 625.620956 91.262928 
L 626.032675 71.123077 
L 626.856114 90.771712 
L 627.267834 82.421042 
L 627.679553 80.947395 
L 628.091273 98.631166 
L 628.502992 101.578462 
L 628.914711 100.59603 
L 629.326431 98.631166 
L 629.73815 92.24536 
L 630.14987 82.421042 
L 630.561589 88.806849 
L 630.973309 105.016973 
L 631.385028 105.999404 
L 631.796747 112.385211 
L 632.208467 109.929132 
L 632.620186 97.157519 
L 633.031906 95.683871 
L 633.443625 93.719007 
L 633.855345 90.280496 
L 634.267064 82.912258 
L 634.678783 86.350769 
L 635.090503 86.841985 
L 635.502222 91.262928 
L 635.913942 91.262928 
L 636.325661 87.824417 
L 636.737381 91.262928 
L 637.1491 85.368337 
L 637.560819 83.403474 
L 637.972539 95.683871 
L 638.384258 98.13995 
L 638.795978 103.052109 
L 639.207697 101.578462 
L 639.619417 105.016973 
L 640.031136 96.175087 
L 640.442855 111.893995 
L 640.854575 117.29737 
L 641.266294 130.068983 
L 641.678014 118.279801 
L 642.089733 119.262233 
L 642.501453 110.420347 
L 642.913172 118.771017 
L 643.324891 114.84129 
L 643.736611 116.806154 
L 644.14833 125.64804 
L 644.56005 125.156824 
L 644.971769 136.946005 
L 645.383489 136.454789 
L 645.795208 129.086551 
L 646.206927 124.665608 
L 646.618647 126.139256 
L 647.030366 133.99871 
L 647.442086 129.577767 
L 647.853805 131.54263 
L 648.265525 128.104119 
L 648.677244 126.630471 
L 649.088963 124.665608 
L 649.500683 138.419653 
L 649.912402 137.928437 
L 650.324122 125.156824 
L 650.735841 124.665608 
L 651.147561 129.086551 
L 651.55928 139.402084 
L 651.970999 136.454789 
L 652.382719 139.8933 
L 652.794438 130.560199 
L 653.206158 110.911563 
L 653.617877 115.823722 
L 654.029597 118.771017 
L 655.264755 147.752754 
L 655.676474 148.735186 
L 656.088194 155.612208 
L 656.499913 156.59464 
L 656.911633 151.682481 
L 657.323352 149.226402 
L 657.735071 156.103424 
L 658.146791 157.085856 
L 658.55851 153.647345 
L 658.97023 145.296675 
L 659.381949 154.629777 
L 659.793669 160.524367 
L 660.205388 153.647345 
L 660.617107 141.366948 
L 661.028827 136.454789 
L 661.852266 174.769628 
L 662.263985 168.875037 
L 662.675705 164.94531 
L 663.087424 167.40139 
L 663.499143 168.875037 
L 663.910863 168.383821 
L 664.322582 169.366253 
L 664.734302 165.436526 
L 665.146021 166.910174 
L 665.557741 174.769628 
L 665.96946 172.804764 
L 666.381179 169.366253 
L 666.792899 171.331117 
L 667.204618 160.524367 
L 667.616338 154.629777 
L 668.028057 143.331811 
L 668.439777 166.418958 
L 668.851496 169.857469 
L 669.263215 178.208139 
L 669.674935 171.822333 
L 670.086654 171.822333 
L 670.910093 178.699355 
L 671.321813 188.032457 
L 671.733532 162.980447 
L 672.145251 164.94531 
L 672.556971 161.998015 
L 672.96869 175.260844 
L 673.38041 179.681787 
L 673.792129 177.225707 
L 674.203849 186.067593 
L 674.615568 186.067593 
L 675.027287 171.331117 
L 675.439007 176.243275 
L 675.850726 168.875037 
L 676.262446 166.910174 
L 676.674165 170.348685 
L 677.085885 176.243275 
L 677.497604 160.524367 
L 677.909323 168.875037 
L 678.321043 172.804764 
L 678.732762 161.506799 
L 679.144482 174.278412 
L 679.556201 167.892605 
L 679.967921 186.067593 
L 680.37964 165.927742 
L 681.203079 189.506104 
L 681.614798 185.085161 
L 682.026518 189.99732 
L 682.438237 187.541241 
L 682.849957 186.067593 
L 683.261676 157.577072 
L 683.673395 162.980447 
L 684.085115 155.120993 
L 684.496834 159.541935 
L 684.908554 158.068288 
L 685.320273 167.40139 
L 685.731993 156.59464 
L 686.143712 158.559504 
L 686.555431 162.980447 
L 686.967151 163.962878 
L 687.37887 152.664913 
L 687.79059 153.156129 
L 688.202309 148.735186 
L 688.614029 160.524367 
L 689.025748 152.173697 
L 689.437467 147.752754 
L 689.849187 137.437221 
L 690.260906 138.910868 
L 690.672626 138.910868 
L 691.084345 147.752754 
L 691.496065 145.296675 
L 691.907784 144.314243 
L 692.319503 155.120993 
L 692.731223 147.752754 
L 693.142942 152.173697 
L 693.554662 150.70005 
L 693.966381 145.787891 
L 694.378101 150.208834 
L 694.78982 147.752754 
L 695.613259 133.016278 
L 696.024978 132.033846 
L 696.436698 132.033846 
L 696.848417 139.8933 
L 697.260137 139.402084 
L 697.671856 145.296675 
L 698.083575 155.120993 
L 698.495295 147.261538 
L 698.907014 151.682481 
L 699.318734 138.910868 
L 699.730453 144.314243 
L 700.142173 135.963573 
L 700.553892 153.156129 
L 700.965611 147.752754 
L 701.377331 144.805459 
L 701.78905 139.402084 
L 702.20077 139.402084 
L 702.612489 142.34938 
L 703.024209 128.595335 
L 703.435928 132.525062 
L 703.847647 140.875732 
L 704.259367 139.402084 
L 704.671086 134.489926 
L 705.082806 138.910868 
L 705.494525 147.261538 
L 705.906245 139.8933 
L 706.317964 141.366948 
L 706.729683 139.402084 
L 707.141403 136.454789 
L 707.553122 123.19196 
L 707.964842 124.174392 
L 708.788281 117.788586 
L 709.2 118.771017 
L 709.2 118.771017 
" clip-path="url(#p6355198c02)" style="fill: none; stroke: #000000; stroke-width: 0.8; stroke-linecap: square"/>
   </g>
   <g id="patch_56">
    <path d="M 45.92 223.4 
L 45.92 25.44 
" style="fill: none; stroke: #000000; stroke-width: 0.6; stroke-linejoin: miter; stroke-linecap: square"/>
   </g>
   <g id="patch_57">
    <path d="M 45.92 223.4 
L 709.2 223.4 
" style="fill: none; stroke: #000000; stroke-width: 0.6; stroke-linejoin: miter; stroke-linecap: square"/>
   </g>
   <g id="text_15">
    <!-- Padua -->
    <g transform="translate(359.246875 19.44) scale(0.12 -0.12)">
     <defs>
      <path id="DejaVuSans-50" d="M 1259 4147 
L 1259 2394 
L 2053 2394 
Q 2494 2394 2734 2622 
Q 2975 2850 2975 3272 
Q 2975 3691 2734 3919 
Q 2494 4147 2053 4147 
L 1259 4147 
z
M 628 4666 
L 2053 4666 
Q 2838 4666 3239 4311 
Q 3641 3956 3641 3272 
Q 3641 2581 3239 2228 
Q 2838 1875 2053 1875 
L 1259 1875 
L 1259 0 
L 628 0 
L 628 4666 
z
" transform="scale(0.015625)"/>
      <path id="DejaVuSans-64" d="M 2906 2969 
L 2906 4863 
L 3481 4863 
L 3481 0 
L 2906 0 
L 2906 525 
Q 2725 213 2448 61 
Q 2172 -91 1784 -91 
Q 1150 -91 751 415 
Q 353 922 353 1747 
Q 353 2572 751 3078 
Q 1150 3584 1784 3584 
Q 2172 3584 2448 3432 
Q 2725 3281 2906 2969 
z
M 947 1747 
Q 947 1113 1208 752 
Q 1469 391 1925 391 
Q 2381 391 2643 752 
Q 2906 1113 2906 1747 
Q 2906 2381 2643 2742 
Q 2381 3103 1925 3103 
Q 1469 3103 1208 2742 
Q 947 2381 947 1747 
z
" transform="scale(0.015625)"/>
     </defs>
     <use xlink:href="#DejaVuSans-50"/>
     <use xlink:href="#DejaVuSans-61" x="55.802734"/>
     <use xlink:href="#DejaVuSans-64" x="117.082031"/>
     <use xlink:href="#DejaVuSans-75" x="180.558594"/>
     <use xlink:href="#DejaVuSans-61" x="243.9375"/>
    </g>
   </g>
  </g>
 </g>
 <defs>
  <clipPath id="p6355198c02">
   <rect x="45.92" y="25.44" width="663.28" height="197.96"/>
  </clipPath>
 </defs>
</svg>
